<svg version="1.1" preserveAspectRatio="none" xmlns="http://www.w3.org/2000/svg" width="500" height="500" viewBox="0 0 500 500"><rect width="100%" height="100%" fill="#000000" fill-opacity="1"/><svg viewBox="302.6909 209.748 323.3097 150" width="333" height="154.49582861262746" x="83.5px" y="172.7521px" xmlns="http://www.w3.org/2000/svg" xmlns:xlink="http://www.w3.org/1999/xlink" preserveAspectRatio="none"><defs></defs><style>.aD-YM9nyY4color {fill:#E3E3E3;fill-opacity:1;}.aD6z1nYkhcolor {fill:#E3E3E3;fill-opacity:1;}.atBXipXk0bfillColor {fill:#808080;fill-opacity:1;}.icon3-str {stroke:#808080;stroke-opacity:1;}.shapeStroke-str {stroke:#E3E3E3;stroke-opacity:1;}</style><g opacity="1" transform="rotate(0 323.6909 209.748)">
<svg width="302.3097" height="120" x="323.6909" y="209.748" version="1.1" preserveAspectRatio="none" viewBox="2.4 -29.72 180.67999999999998 71.72">
  <g transform="matrix(1 0 0 1 0 0)" class="aD6z1nYkhcolor"><path id="id-D6z1nYkh12" d="M2.40-25L13.04-25Q17.64-25 20.04-23.92Q22.44-22.84 23.42-20.20Q24.40-17.56 24.40-12.48L24.40-12.48Q24.40-7.40 23.42-4.76Q22.44-2.12 20.04-1.06Q17.64 0 13.04 0L13.04 0L2.40 0L2.40-25ZM9.44-19.48L9.44-5.52L13.68-5.52Q15.44-5.52 16.12-6.10Q16.80-6.68 16.80-8.16L16.80-8.16L16.80-16.84Q16.80-18.32 16.12-18.90Q15.44-19.48 13.68-19.48L13.68-19.48L9.44-19.48Z M28 0L28 0ZM28.32-19.16L35.36-20.08L35.36 0L28.32 0L28.32-19.16ZM31.80-22.12Q30.28-22.12 29.48-22.44Q28.68-22.76 28.34-23.56Q28-24.36 28-25.88L28-25.88Q28-28.08 28.80-28.90Q29.60-29.72 31.80-29.72L31.80-29.72Q34-29.72 34.80-28.90Q35.60-28.08 35.60-25.88L35.60-25.88Q35.60-23.68 34.80-22.90Q34-22.12 31.80-22.12L31.80-22.12Z M39.24-14.04Q39.24-17.44 41.32-19.02Q43.40-20.60 47.84-20.60L47.84-20.60Q52.12-20.60 56-19.72L56-19.72L55.16-14.84Q53.24-15.36 50.44-15.36L50.44-15.36Q48.32-15.36 46.80-15L46.80-15L46.80-12.76Q50.76-12.32 52.94-11.56Q55.12-10.80 56.06-9.50Q57-8.20 57-6.08L57-6.08Q57-2.56 54.70-0.98Q52.40 0.60 47.32 0.60L47.32 0.60Q45.12 0.60 42.92 0.26Q40.72-0.08 38.92-0.72L38.92-0.72L39.84-5.84Q42.80-4.64 46.28-4.64L46.28-4.64Q47.52-4.64 49.44-5L49.44-5L49.44-7.32Q45.20-7.80 43.06-8.50Q40.92-9.20 40.08-10.46Q39.24-11.72 39.24-14.04L39.24-14.04Z M69.40-8.52L67.60-8.52L67.60 0L60.56 0L60.56-26L67.60-26.60L67.60-12.80L69.32-12.80L72.52-20L79.96-20L75.20-10.52L80.16 0L72.80 0L69.40-8.52Z M92 0.56Q88.36 0.56 86.16-0.52Q83.96-1.60 82.92-3.90Q81.88-6.20 81.88-10L81.88-10Q81.88-13.80 82.92-16.12Q83.96-18.44 86.16-19.50Q88.36-20.56 92-20.56L92-20.56Q95.68-20.56 97.90-19.50Q100.12-18.44 101.14-16.12Q102.16-13.80 102.16-10L102.16-10Q102.16-6.20 101.12-3.90Q100.08-1.60 97.86-0.52Q95.64 0.56 92 0.56L92 0.56ZM89.44-4.80L93-4.80Q93.96-4.80 94.30-5.02Q94.64-5.24 94.64-5.88L94.64-5.88L94.64-15.20L91.08-15.20Q90.12-15.20 89.78-14.98Q89.44-14.76 89.44-14.12L89.44-14.12L89.44-4.80Z M116.92-15.40L113.96-15.40L113.96-5.04Q115.24-4.84 116.44-4.80L116.44-4.80L116.12-0.04Q113.44 0.56 111.56 0.56L111.56 0.56Q109.20 0.56 108.06-0.42Q106.92-1.40 106.92-3.48L106.92-3.48L106.92-15.40L104.72-15.40L104.72-20L106.92-20L106.92-23.44L113.96-25.20L113.96-20L116.92-20L116.92-15.40Z M130.28-4.64Q133.68-4.64 137.36-5.68L137.36-5.68L138.24-0.76Q134.28 0.56 129.52 0.56L129.52 0.56Q124.24 0.56 121.92-1.90Q119.60-4.36 119.60-10L119.60-10Q119.60-15.60 121.98-18.08Q124.36-20.56 129.68-20.56L129.68-20.56Q133.24-20.56 135.18-19.96Q137.12-19.36 137.94-17.96Q138.76-16.56 138.76-13.96L138.76-13.96Q138.76-11.40 137.72-10Q136.68-8.60 134.20-8Q131.72-7.40 127.16-7.40L127.16-7.40L127.16-4.88Q128.28-4.64 130.28-4.64L130.28-4.64ZM130.04-15.36Q128.40-15.36 127.78-15Q127.16-14.64 127.16-13.64L127.16-13.64L127.16-11.08L129.52-11.08Q131.16-11.08 131.78-11.46Q132.40-11.84 132.40-12.88L132.40-12.88L132.40-15.36L130.04-15.36Z M151.88-8.52L150.08-8.52L150.08 0L143.04 0L143.04-26L150.08-26.60L150.08-12.80L151.80-12.80L155-20L162.44-20L157.68-10.52L162.64 0L155.28 0L151.88-8.52Z M174.32-20.56Q178.92-20.56 181.00-18.98Q183.08-17.40 183.08-13.88L183.08-13.88L183.08 0L179.60 0L177.84-2Q174.80 0.56 170.96 0.56L170.96 0.56Q167.40 0.56 165.78-1.02Q164.16-2.60 164.16-6.04L164.16-6.04Q164.16-8.60 165.14-10Q166.12-11.40 168.44-12Q170.76-12.60 175.00-12.60L175.00-12.60L176.04-12.60L176.04-15.12Q175.20-15.36 173.56-15.36L173.56-15.36Q169.96-15.36 165.92-14.32L165.92-14.32L165.08-19.24Q169.24-20.56 174.32-20.56L174.32-20.56ZM173.20-4.28Q174.84-4.28 175.44-4.64Q176.04-5 176.04-6L176.04-6L176.04-8.92L173.52-8.92Q171.88-8.92 171.26-8.54Q170.64-8.16 170.64-7.12L170.64-7.12L170.64-4.28L173.20-4.28Z M2.40 42L2.40 36.64Q2.40 34.16 3.38 32.58Q4.36 31 6.94 29.52Q9.52 28.04 14.84 25.92L14.84 25.92L14.84 22.68Q13.68 22.40 11.08 22.40L11.08 22.40Q7.56 22.40 3.84 23.16L3.84 23.16L2.88 17.64Q5.16 17.04 7.68 16.72Q10.20 16.40 12.48 16.40L12.48 16.40Q17.56 16.40 19.98 18.10Q22.40 19.80 22.40 23.40L22.40 23.40Q22.40 26.04 21.46 27.58Q20.52 29.12 17.84 30.60Q15.16 32.08 9.08 34.52L9.08 34.52L9.08 36.20L21.96 36.20L21.96 42L2.40 42Z M25.24 42L25.24 36.20L31.76 36.20L31.76 23.32L24.84 23.92L24.84 17.60L38.80 16.40L38.80 36.20L43.68 36.20L43.68 42L25.24 42Z M58.04 37.40L45.20 37.40L45.20 33.32L52.36 17L65.08 17L65.08 31.60L67.80 31.60L67.80 37.40L65.08 37.40L65.08 42L58.04 42L58.04 37.40ZM52.64 31.60L58.04 31.60L58.04 22.28L56.80 22.28L52.64 31.60Z"/></g>
</svg>
</g><g opacity="1" transform="rotate(0 302.6909 209.748)">
<svg width="3" height="150" x="302.6909" y="209.748" version="1.1" preserveAspectRatio="none" viewBox="0 0 3 150">
  <defs><rect x="0" y="0" width="3" height="150" rx="0px" ry="0px" id="id-tBXipXk0b1714137399718"></rect></defs><use class="atBXipXk0bfillColor shapeStroke-str" style="stroke-width:0;" xlink:href="#id-tBXipXk0b1714137399718"></use>
</svg>
</g><g opacity="1" transform="rotate(0 323.6909 345.748)">
<svg width="119.6625" height="14" x="323.6909" y="345.748" version="1.1" preserveAspectRatio="none" viewBox="1.4648 -30.3906 264.93199999999996 30.9961">
  <g transform="matrix(1 0 0 1 0 0)" class="aD-YM9nyY4color"><path id="id-D-YM9nyY413" d="M7.19-26.23L7.99-29.61L19.86-29.61Q21.56-29.61 22.97-29.02Q24.38-28.44 25.39-27.43Q26.41-26.43 26.96-25.08Q27.52-23.73 27.52-22.21L27.52-22.21Q27.52-20.20 26.76-18.48Q26.00-16.76 24.52-15.51Q23.05-14.26 20.87-13.54Q18.69-12.83 15.88-12.83L15.88-12.83L11.05-12.83L8.89-3.36L11.84-3.36L11.07 0L1.46 0L2.23-3.36L4.80-3.36L10.08-26.23L7.19-26.23ZM18.75-26.23L14.12-26.23L11.84-16.19L16.31-16.19Q17.89-16.19 19.20-16.57Q20.51-16.95 21.45-17.69Q22.38-18.42 22.89-19.49Q23.40-20.57 23.40-21.95L23.40-21.95Q23.40-22.77 23.13-23.54Q22.85-24.32 22.29-24.91Q21.72-25.51 20.84-25.87Q19.96-26.23 18.75-26.23L18.75-26.23Z M29.55-16.88L30.35-20.23L37.91-20.23L34.00-3.36L37.25-3.36L36.48 0L29.28 0L33.18-16.88L29.55-16.88ZM34.08-27.36L34.08-27.36Q34.08-27.89 34.29-28.36Q34.49-28.83 34.84-29.17Q35.19-29.51 35.66-29.72Q36.13-29.92 36.68-29.92L36.68-29.92Q37.21-29.92 37.67-29.72Q38.14-29.51 38.49-29.17Q38.83-28.83 39.03-28.36Q39.24-27.89 39.24-27.36L39.24-27.36Q39.24-26.84 39.03-26.36Q38.83-25.88 38.49-25.52Q38.14-25.16 37.67-24.94Q37.21-24.73 36.68-24.73L36.68-24.73Q36.13-24.73 35.66-24.94Q35.19-25.16 34.84-25.52Q34.49-25.88 34.29-26.36Q34.08-26.84 34.08-27.36Z M63.16-9.43L47.62-9.43Q47.60-9.16 47.58-8.96Q47.56-8.77 47.56-8.59L47.56-8.59Q47.56-7.36 47.96-6.31Q48.36-5.25 49.07-4.48Q49.78-3.71 50.77-3.27Q51.76-2.83 52.93-2.83L52.93-2.83Q54.49-2.83 55.91-3.47Q57.32-4.10 58.28-5.31L58.28-5.31L61.17-3.20Q60.51-2.32 59.59-1.62Q58.67-0.92 57.56-0.42Q56.44 0.08 55.18 0.34Q53.92 0.61 52.62 0.61L52.62 0.61Q50.74 0.61 49.11-0.02Q47.48-0.64 46.26-1.84Q45.04-3.03 44.34-4.76Q43.65-6.48 43.65-8.67L43.65-8.67Q43.65-11.19 44.54-13.41Q45.43-15.63 47.00-17.28Q48.57-18.93 50.72-19.88Q52.87-20.84 55.37-20.84L55.37-20.84Q57.30-20.84 58.82-20.19Q60.33-19.53 61.39-18.46Q62.44-17.38 62.99-15.98Q63.53-14.57 63.53-13.09L63.53-13.09Q63.53-12.09 63.43-11.16Q63.32-10.23 63.16-9.43L63.16-9.43ZM54.84-17.52L54.84-17.52Q53.67-17.52 52.64-17.15Q51.62-16.78 50.78-16.11Q49.94-15.45 49.30-14.55Q48.65-13.65 48.24-12.60L48.24-12.60L59.76-12.60Q59.78-13.81 59.44-14.74Q59.10-15.66 58.45-16.28Q57.79-16.89 56.87-17.21Q55.96-17.52 54.84-17.52Z M67.95-16.88L68.75-20.23L76.38-20.23L75.90-18.16Q77.28-19.32 78.93-19.96Q80.58-20.61 82.42-20.61L82.42-20.61Q83.98-20.61 85.24-20.14Q86.50-19.67 87.30-18.71Q88.10-17.75 88.36-16.33Q88.61-14.90 88.18-13.01L88.18-13.01L85.95-3.36L88.83-3.36L88.06 0L81.23 0L84.14-12.52Q84.69-14.82 83.79-16.00Q82.89-17.17 80.74-17.17L80.74-17.17Q79.22-17.17 77.85-16.51Q76.48-15.86 75.25-14.69L75.25-14.69L71.87 0L67.91 0L71.81-16.88L67.95-16.88Z M114.35-9.43L98.81-9.43Q98.79-9.16 98.77-8.96Q98.75-8.77 98.75-8.59L98.75-8.59Q98.75-7.36 99.15-6.31Q99.55-5.25 100.26-4.48Q100.97-3.71 101.96-3.27Q102.95-2.83 104.12-2.83L104.12-2.83Q105.68-2.83 107.10-3.47Q108.51-4.10 109.47-5.31L109.47-5.31L112.36-3.20Q111.70-2.32 110.78-1.62Q109.86-0.92 108.75-0.42Q107.63 0.08 106.37 0.34Q105.11 0.61 103.81 0.61L103.81 0.61Q101.93 0.61 100.30-0.02Q98.67-0.64 97.45-1.84Q96.23-3.03 95.53-4.76Q94.84-6.48 94.84-8.67L94.84-8.67Q94.84-11.19 95.73-13.41Q96.62-15.63 98.19-17.28Q99.76-18.93 101.91-19.88Q104.06-20.84 106.56-20.84L106.56-20.84Q108.49-20.84 110.01-20.19Q111.52-19.53 112.57-18.46Q113.63-17.38 114.18-15.98Q114.72-14.57 114.72-13.09L114.72-13.09Q114.72-12.09 114.62-11.16Q114.51-10.23 114.35-9.43L114.35-9.43ZM106.03-17.52L106.03-17.52Q104.86-17.52 103.83-17.15Q102.81-16.78 101.97-16.11Q101.13-15.45 100.49-14.55Q99.84-13.65 99.43-12.60L99.43-12.60L110.95-12.60Q110.97-13.81 110.63-14.74Q110.29-15.66 109.64-16.28Q108.98-16.89 108.06-17.21Q107.15-17.52 106.03-17.52Z M143.49-27.03L144.29-30.39L151.60-30.39L145.37-3.36L148.73-3.36L147.96 0L140.68 0L140.97-1.31Q139.86-0.55 138.64-0.08Q137.42 0.39 136.01 0.39L136.01 0.39Q134.27 0.39 132.77-0.27Q131.26-0.94 130.14-2.11Q129.02-3.28 128.37-4.87Q127.73-6.46 127.73-8.32L127.73-8.32Q127.73-11.02 128.69-13.30Q129.64-15.59 131.29-17.27Q132.94-18.95 135.14-19.89Q137.34-20.84 139.84-20.84L139.84-20.84Q141.40-20.84 142.75-20.39Q144.10-19.94 145.09-19.16L145.09-19.16L146.91-27.03L143.49-27.03ZM136.93-3.01L136.93-3.01Q138.16-3.01 139.48-3.55Q140.80-4.10 141.87-5.16L141.87-5.16L144.29-15.64Q143.57-16.48 142.42-16.94Q141.26-17.40 139.60-17.40L139.60-17.40Q138.14-17.40 136.72-16.79Q135.31-16.17 134.21-15.04Q133.12-13.91 132.45-12.29Q131.77-10.66 131.77-8.67L131.77-8.67Q131.77-7.36 132.15-6.32Q132.53-5.27 133.22-4.54Q133.90-3.81 134.85-3.41Q135.80-3.01 136.93-3.01Z M153.63-8.77L153.63-8.77Q153.63-10.45 154.05-11.99Q154.47-13.54 155.24-14.88Q156.01-16.23 157.09-17.32Q158.18-18.42 159.49-19.20Q160.80-19.98 162.29-20.41Q163.78-20.84 165.39-20.84L165.39-20.84Q167.40-20.84 169.12-20.13Q170.83-19.41 172.08-18.17Q173.33-16.93 174.05-15.26Q174.76-13.59 174.76-11.68L174.76-11.68Q174.76-9.98 174.33-8.42Q173.90-6.86 173.13-5.51Q172.36-4.16 171.28-3.05Q170.21-1.93 168.89-1.15Q167.57-0.37 166.07 0.06Q164.56 0.49 162.94 0.49L162.94 0.49Q160.91 0.49 159.21-0.22Q157.51-0.94 156.26-2.19Q155.01-3.44 154.32-5.13Q153.63-6.82 153.63-8.77ZM157.71-9.04L157.71-9.04Q157.71-7.68 158.11-6.55Q158.51-5.43 159.23-4.64Q159.96-3.85 160.97-3.41Q161.99-2.97 163.20-2.97L163.20-2.97Q164.62-2.97 165.98-3.59Q167.34-4.22 168.37-5.33Q169.41-6.45 170.04-8.01Q170.68-9.57 170.68-11.45L170.68-11.45Q170.68-12.81 170.26-13.91Q169.84-15 169.10-15.78Q168.35-16.56 167.35-16.98Q166.34-17.40 165.15-17.40L165.15-17.40Q163.71-17.40 162.37-16.79Q161.03-16.17 159.99-15.07Q158.96-13.96 158.33-12.42Q157.71-10.88 157.71-9.04Z M186.79 0L187.28-2.29L201.30-17.13L194.72-17.13L194.04-14.24L190.19-14.24L191.59-20.23L207.02-20.23L206.52-17.87L192.57-3.13L199.72-3.13L200.52-6.60L204.35-6.60L202.83 0L186.79 0Z M208.78-8.77L208.78-8.77Q208.78-10.45 209.20-11.99Q209.62-13.54 210.39-14.88Q211.16-16.23 212.25-17.32Q213.33-18.42 214.64-19.20Q215.95-19.98 217.44-20.41Q218.94-20.84 220.54-20.84L220.54-20.84Q222.55-20.84 224.27-20.13Q225.99-19.41 227.24-18.17Q228.49-16.93 229.20-15.26Q229.91-13.59 229.91-11.68L229.91-11.68Q229.91-9.98 229.48-8.42Q229.05-6.86 228.28-5.51Q227.51-4.16 226.44-3.05Q225.36-1.93 224.04-1.15Q222.73-0.37 221.22 0.06Q219.72 0.49 218.10 0.49L218.10 0.49Q216.07 0.49 214.37-0.22Q212.67-0.94 211.42-2.19Q210.17-3.44 209.47-5.13Q208.78-6.82 208.78-8.77ZM212.86-9.04L212.86-9.04Q212.86-7.68 213.26-6.55Q213.66-5.43 214.39-4.64Q215.11-3.85 216.13-3.41Q217.14-2.97 218.35-2.97L218.35-2.97Q219.78-2.97 221.13-3.59Q222.49-4.22 223.53-5.33Q224.56-6.45 225.20-8.01Q225.83-9.57 225.83-11.45L225.83-11.45Q225.83-12.81 225.41-13.91Q224.99-15 224.25-15.78Q223.51-16.56 222.50-16.98Q221.50-17.40 220.30-17.40L220.30-17.40Q218.86-17.40 217.52-16.79Q216.18-16.17 215.15-15.07Q214.11-13.96 213.49-12.42Q212.86-10.88 212.86-9.04Z M252.24-20.12L250.95-14.65L246.98-14.65L247.55-17.03Q245.66-17.03 244.33-16.06Q243.00-15.10 242.14-13.52L242.14-13.52L239.80-3.36L243.16-3.36L242.39 0L235.07 0L238.98-16.88L235.11-16.88L235.91-20.23L243.55-20.23L242.90-17.46Q243.45-18.09 244.07-18.62Q244.70-19.16 245.39-19.55Q246.09-19.94 246.84-20.17Q247.59-20.39 248.35-20.39L248.35-20.39Q249.05-20.39 249.56-20.37Q250.07-20.35 250.65-20.30Q251.22-20.25 252.24-20.12L252.24-20.12Z M256.71-16.88L257.51-20.23L265.07-20.23L261.16-3.36L264.40-3.36L263.64 0L256.44 0L260.34-16.88L256.71-16.88ZM261.24-27.36L261.24-27.36Q261.24-27.89 261.45-28.36Q261.65-28.83 262.00-29.17Q262.35-29.51 262.82-29.72Q263.29-29.92 263.84-29.92L263.84-29.92Q264.37-29.92 264.83-29.72Q265.30-29.51 265.64-29.17Q265.99-28.83 266.19-28.36Q266.40-27.89 266.40-27.36L266.40-27.36Q266.40-26.84 266.19-26.36Q265.99-25.88 265.64-25.52Q265.30-25.16 264.83-24.94Q264.37-24.73 263.84-24.73L263.84-24.73Q263.29-24.73 262.82-24.94Q262.35-25.16 262.00-25.52Q261.65-25.88 261.45-26.36Q261.24-26.84 261.24-27.36Z"/></g>
</svg>
</g></svg></svg>