<svg version="1.1" preserveAspectRatio="none" xmlns="http://www.w3.org/2000/svg" width="500" height="500" viewBox="0 0 500 500"><rect width="100%" height="100%" fill="#F7F7F7" fill-opacity="1"/><svg viewBox="408.6515 290.9236 338.6791 209.9971" width="333" height="206.4757887333467" x="83.5px" y="146.7621px" xmlns="http://www.w3.org/2000/svg" xmlns:xlink="http://www.w3.org/1999/xlink" preserveAspectRatio="none"><defs></defs><style>.companyName {fill:#2B2B2B;fill-opacity:1;}.icon1 {fill:#2B2B2B;fill-opacity:1;}.icon2 {fill:#59C65B;fill-opacity:1;}.icon3 {fill:#6D6D6D;fill-opacity:1;}.icon3-str {stroke:#6D6D6D;stroke-opacity:1;}</style><g opacity="1" transform="rotate(0 527.1891 290.9236)">
<svg width="101.6038" height="108.3971" x="527.1891" y="290.9236" version="1.1" preserveAspectRatio="none" viewBox="37.65999984741211 36.83599853515625 24.67800521850586 26.328006744384766">
  <g transform="matrix(1 0 0 1 0 0)" class="icon1"><path d="M45.605,41.06v13.172c-0.831-0.625-1.853-1.009-2.974-1.009c-2.744,0-4.971,2.226-4.971,4.971s2.227,4.97,4.971,4.97  c2.746,0,4.971-2.225,4.971-4.97V46.321l12.739-3.215v6.901c-0.831-0.624-1.854-1.009-2.974-1.009c-2.745,0-4.97,2.225-4.97,4.971  c0,2.744,2.225,4.971,4.97,4.971s4.971-2.227,4.971-4.971V36.836L45.605,41.06z"></path></g>
</svg>
</g><g opacity="1" transform="rotate(0 492.7242 479.3207)">
<svg width="170.5337" height="21.6" x="492.7242" y="479.3207" version="1.1" preserveAspectRatio="none" viewBox="2.5391 -30 239.89290000000003 30.390700000000002">
  <g transform="matrix(1 0 0 1 0 0)" class="companyName"><path id="id-6izo4zJp13" d="M13.54-10.02L8.40-10.02L8.40 0L2.54 0L2.54-28.44L13.63-28.44Q16.84-28.44 19.27-27.27Q21.70-26.09 23.01-23.94Q24.32-21.78 24.32-19.02L24.32-19.02Q24.32-14.84 21.46-12.43Q18.59-10.02 13.54-10.02L13.54-10.02ZM8.40-23.69L8.40-14.77L13.63-14.77Q15.96-14.77 17.18-15.86Q18.40-16.95 18.40-18.98L18.40-18.98Q18.40-21.07 17.17-22.36Q15.94-23.65 13.77-23.69L13.77-23.69L8.40-23.69Z M34.73-21.13L34.73 0L29.06 0L29.06-21.13L34.73-21.13ZM28.73-26.60L28.73-26.60Q28.73-27.87 29.58-28.69Q30.43-29.51 31.89-29.51L31.89-29.51Q33.34-29.51 34.20-28.69Q35.06-27.87 35.06-26.60L35.06-26.60Q35.06-25.31 34.19-24.49Q33.32-23.67 31.89-23.67Q30.47-23.67 29.60-24.49Q28.73-25.31 28.73-26.60Z M49.90 0.39L49.90 0.39Q45.25 0.39 42.33-2.46Q39.41-5.31 39.41-10.06L39.41-10.06L39.41-10.61Q39.41-13.79 40.64-16.30Q41.87-18.81 44.13-20.17Q46.39-21.52 49.28-21.52L49.28-21.52Q53.61-21.52 56.10-18.79Q58.59-16.05 58.59-11.04L58.59-11.04L58.59-8.73L45.14-8.73Q45.41-6.66 46.79-5.41Q48.16-4.16 50.27-4.16L50.27-4.16Q53.53-4.16 55.37-6.52L55.37-6.52L58.14-3.42Q56.87-1.62 54.71-0.62Q52.54 0.39 49.90 0.39ZM49.26-16.95L49.26-16.95Q47.58-16.95 46.53-15.82Q45.49-14.69 45.19-12.58L45.19-12.58L53.05-12.58L53.05-13.03Q53.01-14.90 52.03-15.93Q51.05-16.95 49.26-16.95Z M62.48-21.13L67.79-21.13L67.97-18.69Q70.23-21.52 74.04-21.52L74.04-21.52Q77.40-21.52 79.04-19.55Q80.68-17.58 80.72-13.65L80.72-13.65L80.72 0L75.08 0L75.08-13.52Q75.08-15.31 74.29-16.12Q73.51-16.93 71.70-16.93L71.70-16.93Q69.31-16.93 68.12-14.90L68.12-14.90L68.12 0L62.48 0L62.48-21.13Z M95.52 0.39L95.52 0.39Q90.88 0.39 87.96-2.46Q85.04-5.31 85.04-10.06L85.04-10.06L85.04-10.61Q85.04-13.79 86.27-16.30Q87.50-18.81 89.75-20.17Q92.01-21.52 94.90-21.52L94.90-21.52Q99.24-21.52 101.73-18.79Q104.22-16.05 104.22-11.04L104.22-11.04L104.22-8.73L90.76-8.73Q91.03-6.66 92.41-5.41Q93.79-4.16 95.90-4.16L95.90-4.16Q99.16-4.16 100.99-6.52L100.99-6.52L103.77-3.42Q102.50-1.62 100.33-0.62Q98.16 0.39 95.52 0.39ZM94.88-16.95L94.88-16.95Q93.20-16.95 92.16-15.82Q91.11-14.69 90.82-12.58L90.82-12.58L98.67-12.58L98.67-13.03Q98.63-14.90 97.65-15.93Q96.68-16.95 94.88-16.95Z M118.10-10.72L118.10-10.72Q118.10-15.66 120.32-18.59Q122.53-21.52 126.38-21.52L126.38-21.52Q129.47-21.52 131.48-19.22L131.48-19.22L131.48-30L137.14-30L137.14 0L132.05 0L131.77-2.25Q129.66 0.39 126.34 0.39L126.34 0.39Q122.61 0.39 120.36-2.55Q118.10-5.49 118.10-10.72ZM123.75-10.31L123.75-10.31Q123.75-7.34 124.78-5.76Q125.82-4.18 127.79-4.18L127.79-4.18Q130.41-4.18 131.48-6.39L131.48-6.39L131.48-14.73Q130.42-16.93 127.83-16.93L127.83-16.93Q123.75-16.93 123.75-10.31Z M141.44-10.51L141.44-10.76Q141.44-13.91 142.65-16.37Q143.86-18.83 146.14-20.18Q148.41-21.52 151.42-21.52L151.42-21.52Q155.70-21.52 158.40-18.91Q161.11-16.29 161.42-11.80L161.42-11.80L161.46-10.35Q161.46-5.49 158.74-2.55Q156.03 0.39 151.46 0.39Q146.89 0.39 144.16-2.54Q141.44-5.47 141.44-10.51L141.44-10.51ZM147.08-10.35L147.08-10.35Q147.08-7.34 148.22-5.75Q149.35-4.16 151.46-4.16L151.46-4.16Q153.51-4.16 154.66-5.73Q155.81-7.30 155.81-10.76L155.81-10.76Q155.81-13.71 154.66-15.33Q153.51-16.95 151.42-16.95L151.42-16.95Q149.35-16.95 148.22-15.34Q147.08-13.73 147.08-10.35Z M193.00-17.79L182.98-4.55L193.31-4.55L193.31 0L175.77 0L175.77-3.44L185.72-16.56L176.07-16.56L176.07-21.13L193.00-21.13L193.00-17.79Z M196.46-10.51L196.46-10.76Q196.46-13.91 197.67-16.37Q198.88-18.83 201.15-20.18Q203.43-21.52 206.44-21.52L206.44-21.52Q210.71-21.52 213.42-18.91Q216.13-16.29 216.44-11.80L216.44-11.80L216.48-10.35Q216.48-5.49 213.76-2.55Q211.05 0.39 206.48 0.39Q201.91 0.39 199.18-2.54Q196.46-5.47 196.46-10.51L196.46-10.51ZM202.10-10.35L202.10-10.35Q202.10-7.34 203.23-5.75Q204.37-4.16 206.48-4.16L206.48-4.16Q208.53-4.16 209.68-5.73Q210.83-7.30 210.83-10.76L210.83-10.76Q210.83-13.71 209.68-15.33Q208.53-16.95 206.44-16.95L206.44-16.95Q204.37-16.95 203.23-15.34Q202.10-13.73 202.10-10.35Z M232.71-21.27L232.63-15.84Q231.48-16.00 230.60-16.00L230.60-16.00Q227.39-16.00 226.40-13.83L226.40-13.83L226.40 0L220.75 0L220.75-21.13L226.09-21.13L226.24-18.61Q227.94-21.52 230.95-21.52L230.95-21.52Q231.89-21.52 232.71-21.27L232.71-21.27Z M242.10-21.13L242.10 0L236.44 0L236.44-21.13L242.10-21.13ZM236.10-26.60L236.10-26.60Q236.10-27.87 236.95-28.69Q237.80-29.51 239.27-29.51L239.27-29.51Q240.71-29.51 241.57-28.69Q242.43-27.87 242.43-26.60L242.43-26.60Q242.43-25.31 241.56-24.49Q240.69-23.67 239.27-23.67Q237.84-23.67 236.97-24.49Q236.10-25.31 236.10-26.60Z"/></g>
</svg>
</g><g opacity="1" transform="rotate(0 408.6515 425.3207)">
<svg width="338.6791" height="40" x="408.6515" y="425.3207" version="1.1" preserveAspectRatio="none" viewBox="2.08 -25.44 215.39999999999998 25.44">
  <g transform="matrix(1 0 0 1 0 0)" class="companyName"><path id="id-D6z1nYkh13" d="M2.08 0L2.08-25.44L12.68-25.44Q17.76-25.44 17.76-21.04L17.76-21.04L17.76-4.44Q17.76 0 12.68 0L12.68 0L2.08 0ZM12.04-4.92L12.04-4.92L12.04-20.52Q12.04-21.52 10.96-21.52L10.96-21.52L7.80-21.52L7.80-3.92L10.96-3.92Q12.04-3.92 12.04-4.92Z M22.12 0L22.12-25.44L27.80-25.44L27.80 0L22.12 0Z M41.16-5.20L41.16-5.20L41.16-9.80Q41.16-10.32 40.92-10.54Q40.68-10.76 40.08-10.76L40.08-10.76L36.56-10.76Q31.84-10.76 31.84-15.24L31.84-15.24L31.84-21.04Q31.84-25.44 36.88-25.44L36.88-25.44L41.76-25.44Q46.80-25.44 46.80-21.04L46.80-21.04L46.80-17.72L41.08-17.72L41.08-20.24Q41.08-21.24 40-21.24L40-21.24L38.64-21.24Q37.56-21.24 37.56-20.24L37.56-20.24L37.56-15.76Q37.56-15.24 37.80-15.02Q38.04-14.80 38.64-14.80L38.64-14.80L42.08-14.80Q44.64-14.80 45.76-13.70Q46.88-12.60 46.88-10.44L46.88-10.44L46.88-4.44Q46.88 0 41.84 0L41.84 0L37 0Q31.92 0 31.92-4.44L31.92-4.44L31.92-7.72L37.64-7.72L37.64-5.20Q37.64-4.20 38.72-4.20L38.72-4.20L40.08-4.20Q41.16-4.20 41.16-5.20Z M61.52-25.44L67.68-25.44L62.56-12.88L67.68 0L61.52 0L56.60-12.88L61.52-25.44ZM56.48 0L50.80 0L50.80-25.44L56.48-25.44L56.48 0Z M75.52-25.44L75.52-25.44L80.88-25.44Q85.92-25.44 85.92-21.04L85.92-21.04L85.92-4.44Q85.92 0 80.88 0L80.88 0L75.52 0Q70.44 0 70.44-4.44L70.44-4.44L70.44-21.04Q70.44-25.44 75.52-25.44ZM80.20-5.20L80.20-5.20L80.20-20.24Q80.20-21.24 79.16-21.24L79.16-21.24L77.24-21.24Q76.16-21.24 76.16-20.24L76.16-20.24L76.16-5.20Q76.16-4.20 77.24-4.20L77.24-4.20L79.16-4.20Q80.20-4.20 80.20-5.20Z M88.56-25.44L103.60-25.44L103.60-21.24L98.92-21.24L98.92 0L93.20 0L93.20-21.24L88.56-21.24L88.56-25.44Z M112.12-10.84L112.12-4.20L120.28-4.20L120.28 0L106.40 0L106.40-25.44L119.96-25.44L119.96-21.24L112.12-21.24L112.12-15.04L118.80-15.04L118.80-10.84L112.12-10.84Z M134.28-25.44L140.44-25.44L135.32-12.88L140.44 0L134.28 0L129.36-12.88L134.28-25.44ZM129.24 0L123.56 0L123.56-25.44L129.24-25.44L129.24 0Z M160.72 0L154.96 0L154.08-4.60L148.28-4.60L147.40 0L141.76 0L147.52-25.44L154.80-25.44L160.72 0ZM151.16-19.52L149.08-8.76L153.24-8.76L151.16-19.52Z M176.32-20.24L176.32-20.24L176.32-16.88L170.60-16.88L170.60-21.04Q170.60-25.44 175.64-25.44L175.64-25.44L179.96-25.44Q185.08-25.44 185.08-21.04L185.08-21.04L185.08-17.80Q185.08-15.96 184.54-14.62Q184-13.28 182.80-11.68L182.80-11.68L177.68-4.20L185.16-4.20L185.16 0L170.72 0L170.72-3.88L177.76-13.32Q178.76-14.56 179.10-15.52Q179.44-16.48 179.44-17.88L179.44-17.88L179.44-20.24Q179.44-21.24 178.36-21.24L178.36-21.24L177.36-21.24Q176.32-21.24 176.32-20.24Z M187.80-25.44L196.84-25.44L196.84 0L191.12 0L191.12-21.24L187.80-21.24L187.80-25.44Z M214.96-9L217.48-9L217.48-4.76L214.96-4.76L214.96 0L209.56 0L209.56-4.76L199.76-4.76L199.76-9.72L208.44-25.44L214.20-25.44L204.88-9L209.56-9L209.56-14L214.96-14L214.96-9Z"/></g>
</svg>
</g></svg></svg>