<?xml version="1.0" encoding="UTF-8"?>
<svg xmlns="http://www.w3.org/2000/svg" xmlns:xlink="http://www.w3.org/1999/xlink" width="px" height="px" viewBox="0 0 74 74" version="1.1">
<defs>
<clipPath id="clip1">
  <path d="M 28.683594 39.753906 L 45.3125 39.753906 L 45.3125 41.558594 L 28.683594 41.558594 Z M 28.683594 39.753906 "/>
</clipPath>
<clipPath id="clip2">
  <path d="M 12.359375 32.441406 L 49 32.441406 L 49 36.742188 L 12.359375 36.742188 Z M 12.359375 32.441406 "/>
</clipPath>
<clipPath id="clip3">
  <path d="M 12.359375 36.648438 L 12.359375 32.535156 L 14.386719 32.535156 C 14.84375 32.535156 15.246094 32.617188 15.597656 32.785156 C 15.949219 32.953125 16.222656 33.1875 16.414062 33.5 C 16.609375 33.808594 16.707031 34.171875 16.707031 34.589844 C 16.707031 35.011719 16.609375 35.375 16.414062 35.683594 C 16.222656 35.992188 15.949219 36.230469 15.597656 36.398438 C 15.246094 36.566406 14.84375 36.648438 14.386719 36.648438 Z M 13.746094 35.566406 L 14.328125 35.566406 C 14.625 35.566406 14.863281 35.480469 15.039062 35.3125 C 15.21875 35.140625 15.308594 34.902344 15.308594 34.589844 C 15.308594 34.28125 15.21875 34.042969 15.039062 33.871094 C 14.863281 33.703125 14.625 33.617188 14.328125 33.617188 L 13.746094 33.617188 Z M 17.210938 36.648438 L 17.210938 32.535156 L 18.597656 32.535156 L 18.597656 36.648438 Z M 20.800781 36.742188 C 20.460938 36.742188 20.128906 36.703125 19.804688 36.628906 C 19.480469 36.550781 19.214844 36.449219 19.007812 36.320312 L 19.457031 35.308594 C 19.652344 35.421875 19.871094 35.511719 20.113281 35.582031 C 20.355469 35.648438 20.589844 35.683594 20.8125 35.683594 C 21.003906 35.683594 21.140625 35.664062 21.222656 35.628906 C 21.304688 35.589844 21.347656 35.535156 21.347656 35.460938 C 21.347656 35.375 21.292969 35.308594 21.1875 35.265625 C 21.078125 35.222656 20.902344 35.175781 20.652344 35.125 C 20.335938 35.058594 20.074219 34.988281 19.859375 34.910156 C 19.648438 34.835938 19.464844 34.710938 19.308594 34.535156 C 19.152344 34.363281 19.074219 34.125 19.074219 33.828125 C 19.074219 33.570312 19.144531 33.335938 19.292969 33.121094 C 19.4375 32.910156 19.652344 32.746094 19.941406 32.625 C 20.226562 32.5 20.578125 32.441406 20.988281 32.441406 C 21.269531 32.441406 21.546875 32.472656 21.820312 32.53125 C 22.09375 32.59375 22.332031 32.683594 22.539062 32.800781 L 22.125 33.804688 C 21.71875 33.601562 21.335938 33.5 20.976562 33.5 C 20.621094 33.5 20.441406 33.585938 20.441406 33.757812 C 20.441406 33.839844 20.496094 33.902344 20.601562 33.941406 C 20.707031 33.984375 20.882812 34.027344 21.125 34.074219 C 21.4375 34.132812 21.703125 34.199219 21.917969 34.277344 C 22.132812 34.355469 22.320312 34.476562 22.480469 34.648438 C 22.636719 34.824219 22.714844 35.058594 22.714844 35.355469 C 22.714844 35.613281 22.644531 35.847656 22.5 36.058594 C 22.355469 36.265625 22.136719 36.433594 21.851562 36.558594 C 21.5625 36.679688 21.210938 36.742188 20.800781 36.742188 Z M 25.832031 36.648438 L 24.800781 35.285156 L 24.492188 35.632812 L 24.492188 36.648438 L 23.128906 36.648438 L 23.128906 32.535156 L 24.492188 32.535156 L 24.492188 34.027344 L 25.84375 32.535156 L 27.351562 32.535156 L 25.707031 34.34375 L 27.433594 36.648438 Z M 29.632812 36.742188 C 29.1875 36.742188 28.792969 36.648438 28.4375 36.464844 C 28.085938 36.28125 27.808594 36.027344 27.609375 35.699219 C 27.410156 35.371094 27.3125 35.003906 27.3125 34.589844 C 27.3125 34.179688 27.410156 33.8125 27.609375 33.484375 C 27.808594 33.15625 28.085938 32.902344 28.4375 32.71875 C 28.792969 32.53125 29.1875 32.441406 29.632812 32.441406 C 30.074219 32.441406 30.472656 32.53125 30.824219 32.71875 C 31.175781 32.902344 31.453125 33.15625 31.652344 33.484375 C 31.851562 33.8125 31.953125 34.179688 31.953125 34.589844 C 31.953125 35.003906 31.851562 35.371094 31.652344 35.699219 C 31.453125 36.027344 31.175781 36.28125 30.824219 36.464844 C 30.472656 36.648438 30.074219 36.742188 29.632812 36.742188 Z M 29.632812 35.621094 C 29.804688 35.621094 29.960938 35.578125 30.097656 35.492188 C 30.238281 35.410156 30.347656 35.289062 30.429688 35.136719 C 30.511719 34.980469 30.554688 34.800781 30.554688 34.589844 C 30.554688 34.382812 30.511719 34.203125 30.429688 34.046875 C 30.347656 33.894531 30.238281 33.773438 30.097656 33.691406 C 29.960938 33.605469 29.804688 33.5625 29.632812 33.5625 C 29.460938 33.5625 29.304688 33.605469 29.164062 33.691406 C 29.027344 33.773438 28.914062 33.894531 28.832031 34.046875 C 28.75 34.203125 28.710938 34.382812 28.710938 34.589844 C 28.710938 34.800781 28.75 34.980469 28.832031 35.136719 C 28.914062 35.289062 29.027344 35.410156 29.164062 35.492188 C 29.304688 35.578125 29.460938 35.621094 29.632812 35.621094 Z M 33.292969 36.648438 L 33.292969 33.609375 L 32.085938 33.609375 L 32.085938 32.535156 L 35.882812 32.535156 L 35.882812 33.609375 L 34.679688 33.609375 L 34.679688 36.648438 Z M 37.605469 35.601562 L 39.660156 35.601562 L 39.660156 36.648438 L 36.242188 36.648438 L 36.242188 32.535156 L 39.585938 32.535156 L 39.585938 33.582031 L 37.605469 33.582031 L 37.605469 34.0625 L 39.34375 34.0625 L 39.34375 35.0625 L 37.605469 35.0625 Z M 42.898438 36.648438 L 41.871094 35.285156 L 41.558594 35.632812 L 41.558594 36.648438 L 40.195312 36.648438 L 40.195312 32.535156 L 41.558594 32.535156 L 41.558594 34.027344 L 42.910156 32.535156 L 44.421875 32.535156 L 42.777344 34.34375 L 44.503906 36.648438 Z M 47.5625 36.648438 L 47.289062 35.929688 L 45.726562 35.929688 L 45.449219 36.648438 L 44.039062 36.648438 L 45.835938 32.535156 L 47.199219 32.535156 L 48.996094 36.648438 Z M 46.105469 34.933594 L 46.90625 34.933594 L 46.507812 33.898438 Z M 46.105469 34.933594 "/>
</clipPath>
<clipPath id="clip4">
  <path d="M 51.148438 32.441406 L 61.640625 32.441406 L 61.640625 36.742188 L 51.148438 36.742188 Z M 51.148438 32.441406 "/>
</clipPath>
</defs>
<g id="surface1">
<rect x="0" y="0" width="74" height="74" style="fill:rgb(100%,100%,100%);fill-opacity:1;stroke:none;"/>
<g clip-path="url(#clip1)" clip-rule="nonzero">
<path style=" stroke:none;fill-rule:nonzero;fill:rgb(4.705882%,4.705882%,4.705882%);fill-opacity:1;" d="M 29.320312 39.855469 C 29.535156 39.855469 29.703125 39.90625 29.828125 40.007812 C 29.949219 40.113281 30.011719 40.253906 30.011719 40.433594 C 30.011719 40.613281 29.949219 40.757812 29.828125 40.859375 C 29.703125 40.960938 29.535156 41.011719 29.320312 41.011719 L 28.863281 41.011719 L 28.863281 41.546875 L 28.683594 41.546875 L 28.683594 39.855469 Z M 29.3125 40.855469 C 29.480469 40.855469 29.609375 40.820312 29.699219 40.746094 C 29.789062 40.671875 29.832031 40.566406 29.832031 40.433594 C 29.832031 40.296875 29.789062 40.191406 29.699219 40.117188 C 29.609375 40.046875 29.480469 40.007812 29.3125 40.007812 L 28.863281 40.007812 L 28.863281 40.855469 Z M 30.449219 41.546875 L 30.449219 40.273438 L 30.621094 40.273438 L 30.621094 41.546875 Z M 30.539062 39.996094 C 30.503906 39.996094 30.472656 39.984375 30.449219 39.960938 C 30.425781 39.9375 30.414062 39.90625 30.414062 39.875 C 30.414062 39.839844 30.425781 39.8125 30.449219 39.789062 C 30.472656 39.765625 30.503906 39.753906 30.539062 39.753906 C 30.574219 39.753906 30.601562 39.765625 30.628906 39.789062 C 30.652344 39.8125 30.664062 39.839844 30.664062 39.871094 C 30.664062 39.90625 30.652344 39.9375 30.628906 39.960938 C 30.601562 39.984375 30.574219 39.996094 30.539062 39.996094 Z M 32.332031 40.910156 L 32.332031 40.964844 L 31.265625 40.964844 C 31.277344 41.097656 31.328125 41.203125 31.417969 41.285156 C 31.511719 41.367188 31.625 41.40625 31.765625 41.40625 C 31.847656 41.40625 31.917969 41.390625 31.984375 41.363281 C 32.050781 41.335938 32.109375 41.292969 32.15625 41.238281 L 32.253906 41.351562 C 32.195312 41.417969 32.125 41.46875 32.042969 41.503906 C 31.957031 41.542969 31.863281 41.558594 31.761719 41.558594 C 31.632812 41.558594 31.515625 41.53125 31.414062 41.476562 C 31.3125 41.421875 31.234375 41.34375 31.179688 41.246094 C 31.121094 41.144531 31.09375 41.035156 31.09375 40.910156 C 31.09375 40.785156 31.121094 40.675781 31.175781 40.578125 C 31.230469 40.480469 31.304688 40.402344 31.398438 40.347656 C 31.492188 40.292969 31.597656 40.265625 31.714844 40.265625 C 31.832031 40.265625 31.9375 40.292969 32.03125 40.347656 C 32.125 40.402344 32.199219 40.476562 32.253906 40.574219 C 32.304688 40.671875 32.332031 40.785156 32.332031 40.910156 Z M 31.714844 40.414062 C 31.59375 40.414062 31.492188 40.453125 31.40625 40.53125 C 31.324219 40.609375 31.277344 40.710938 31.265625 40.835938 L 32.167969 40.835938 C 32.15625 40.710938 32.109375 40.609375 32.027344 40.53125 C 31.945312 40.453125 31.839844 40.414062 31.714844 40.414062 Z M 33.453125 40.265625 C 33.613281 40.265625 33.738281 40.3125 33.832031 40.402344 C 33.929688 40.496094 33.976562 40.632812 33.976562 40.808594 L 33.976562 41.546875 L 33.804688 41.546875 L 33.804688 40.828125 C 33.804688 40.695312 33.769531 40.59375 33.703125 40.523438 C 33.636719 40.453125 33.542969 40.421875 33.421875 40.421875 C 33.285156 40.421875 33.175781 40.460938 33.097656 40.542969 C 33.015625 40.625 32.976562 40.734375 32.976562 40.878906 L 32.976562 41.546875 L 32.804688 41.546875 L 32.804688 40.273438 L 32.96875 40.273438 L 32.96875 40.507812 C 33.015625 40.433594 33.082031 40.371094 33.164062 40.328125 C 33.246094 40.285156 33.34375 40.265625 33.453125 40.265625 Z M 35.679688 40.910156 L 35.675781 40.964844 L 34.613281 40.964844 C 34.621094 41.097656 34.671875 41.203125 34.765625 41.285156 C 34.855469 41.367188 34.972656 41.40625 35.113281 41.40625 C 35.191406 41.40625 35.261719 41.390625 35.328125 41.363281 C 35.394531 41.335938 35.453125 41.292969 35.5 41.238281 L 35.597656 41.351562 C 35.542969 41.417969 35.472656 41.46875 35.386719 41.503906 C 35.300781 41.542969 35.207031 41.558594 35.105469 41.558594 C 34.976562 41.558594 34.859375 41.53125 34.761719 41.476562 C 34.660156 41.421875 34.582031 41.34375 34.523438 41.246094 C 34.46875 41.144531 34.441406 41.035156 34.441406 40.910156 C 34.441406 40.785156 34.464844 40.675781 34.519531 40.578125 C 34.574219 40.480469 34.648438 40.402344 34.742188 40.347656 C 34.835938 40.292969 34.945312 40.265625 35.0625 40.265625 C 35.179688 40.265625 35.285156 40.292969 35.378906 40.347656 C 35.472656 40.402344 35.546875 40.476562 35.597656 40.574219 C 35.652344 40.671875 35.679688 40.785156 35.679688 40.910156 Z M 35.0625 40.414062 C 34.9375 40.414062 34.835938 40.453125 34.753906 40.53125 C 34.667969 40.609375 34.621094 40.710938 34.613281 40.835938 L 35.511719 40.835938 C 35.503906 40.710938 35.457031 40.609375 35.371094 40.53125 C 35.289062 40.453125 35.183594 40.414062 35.0625 40.414062 Z M 37.894531 39.753906 L 38.066406 39.753906 L 38.066406 41.546875 L 37.902344 41.546875 L 37.902344 41.296875 C 37.847656 41.378906 37.78125 41.445312 37.695312 41.492188 C 37.613281 41.535156 37.515625 41.558594 37.410156 41.558594 C 37.289062 41.558594 37.183594 41.53125 37.085938 41.476562 C 36.988281 41.421875 36.914062 41.34375 36.859375 41.246094 C 36.804688 41.148438 36.777344 41.035156 36.777344 40.910156 C 36.777344 40.785156 36.804688 40.671875 36.859375 40.574219 C 36.914062 40.476562 36.988281 40.398438 37.085938 40.347656 C 37.183594 40.292969 37.289062 40.265625 37.410156 40.265625 C 37.511719 40.265625 37.605469 40.285156 37.6875 40.328125 C 37.773438 40.371094 37.839844 40.433594 37.894531 40.515625 Z M 37.425781 41.40625 C 37.511719 41.40625 37.59375 41.386719 37.664062 41.34375 C 37.738281 41.304688 37.792969 41.246094 37.835938 41.167969 C 37.875 41.09375 37.894531 41.007812 37.894531 40.910156 C 37.894531 40.8125 37.875 40.726562 37.835938 40.652344 C 37.792969 40.578125 37.738281 40.519531 37.664062 40.476562 C 37.59375 40.4375 37.511719 40.414062 37.425781 40.414062 C 37.335938 40.414062 37.253906 40.4375 37.179688 40.476562 C 37.109375 40.519531 37.054688 40.578125 37.011719 40.652344 C 36.972656 40.726562 36.949219 40.8125 36.949219 40.910156 C 36.949219 41.007812 36.972656 41.09375 37.011719 41.167969 C 37.054688 41.246094 37.109375 41.304688 37.179688 41.34375 C 37.253906 41.386719 37.335938 41.40625 37.425781 41.40625 Z M 39.183594 41.558594 C 39.0625 41.558594 38.953125 41.53125 38.855469 41.476562 C 38.753906 41.421875 38.679688 41.34375 38.621094 41.246094 C 38.566406 41.144531 38.539062 41.035156 38.539062 40.910156 C 38.539062 40.785156 38.566406 40.675781 38.621094 40.578125 C 38.679688 40.480469 38.753906 40.402344 38.855469 40.347656 C 38.953125 40.292969 39.0625 40.265625 39.183594 40.265625 C 39.308594 40.265625 39.417969 40.292969 39.515625 40.347656 C 39.613281 40.402344 39.691406 40.480469 39.746094 40.578125 C 39.804688 40.675781 39.832031 40.785156 39.832031 40.910156 C 39.832031 41.035156 39.804688 41.144531 39.746094 41.246094 C 39.691406 41.34375 39.613281 41.421875 39.515625 41.476562 C 39.417969 41.53125 39.308594 41.558594 39.183594 41.558594 Z M 39.183594 41.40625 C 39.277344 41.40625 39.355469 41.386719 39.429688 41.34375 C 39.5 41.304688 39.554688 41.246094 39.597656 41.167969 C 39.636719 41.09375 39.65625 41.007812 39.65625 40.910156 C 39.65625 40.8125 39.636719 40.726562 39.597656 40.652344 C 39.554688 40.578125 39.5 40.519531 39.429688 40.476562 C 39.355469 40.4375 39.277344 40.414062 39.183594 40.414062 C 39.09375 40.414062 39.015625 40.4375 38.941406 40.476562 C 38.871094 40.519531 38.8125 40.578125 38.773438 40.652344 C 38.730469 40.726562 38.710938 40.8125 38.710938 40.910156 C 38.710938 41.007812 38.730469 41.09375 38.773438 41.167969 C 38.8125 41.246094 38.871094 41.304688 38.941406 41.34375 C 39.015625 41.386719 39.09375 41.40625 39.183594 41.40625 Z M 41.140625 41.402344 L 41.953125 41.402344 L 41.953125 41.546875 L 40.917969 41.546875 L 40.917969 41.433594 L 41.71875 40.421875 L 40.933594 40.421875 L 40.933594 40.273438 L 41.941406 40.273438 L 41.941406 40.386719 Z M 42.914062 41.558594 C 42.789062 41.558594 42.679688 41.53125 42.582031 41.476562 C 42.484375 41.421875 42.40625 41.34375 42.347656 41.246094 C 42.292969 41.144531 42.265625 41.035156 42.265625 40.910156 C 42.265625 40.785156 42.292969 40.675781 42.347656 40.578125 C 42.40625 40.480469 42.484375 40.402344 42.582031 40.347656 C 42.679688 40.292969 42.789062 40.265625 42.914062 40.265625 C 43.035156 40.265625 43.144531 40.292969 43.246094 40.347656 C 43.34375 40.402344 43.417969 40.480469 43.476562 40.578125 C 43.53125 40.675781 43.558594 40.785156 43.558594 40.910156 C 43.558594 41.035156 43.53125 41.144531 43.476562 41.246094 C 43.417969 41.34375 43.34375 41.421875 43.246094 41.476562 C 43.144531 41.53125 43.035156 41.558594 42.914062 41.558594 Z M 42.914062 41.40625 C 43.003906 41.40625 43.085938 41.386719 43.15625 41.34375 C 43.226562 41.304688 43.285156 41.246094 43.324219 41.167969 C 43.363281 41.09375 43.382812 41.007812 43.382812 40.910156 C 43.382812 40.8125 43.363281 40.726562 43.324219 40.652344 C 43.285156 40.578125 43.226562 40.519531 43.15625 40.476562 C 43.085938 40.4375 43.003906 40.414062 42.914062 40.414062 C 42.824219 40.414062 42.742188 40.4375 42.667969 40.476562 C 42.597656 40.519531 42.542969 40.578125 42.5 40.652344 C 42.460938 40.726562 42.4375 40.8125 42.4375 40.910156 C 42.4375 41.007812 42.460938 41.09375 42.5 41.167969 C 42.542969 41.246094 42.597656 41.304688 42.667969 41.34375 C 42.742188 41.386719 42.824219 41.40625 42.914062 41.40625 Z M 44.195312 40.523438 C 44.234375 40.4375 44.296875 40.375 44.375 40.332031 C 44.453125 40.285156 44.554688 40.265625 44.671875 40.265625 L 44.671875 40.433594 L 44.628906 40.429688 C 44.496094 40.429688 44.390625 40.472656 44.316406 40.554688 C 44.238281 40.636719 44.203125 40.75 44.203125 40.898438 L 44.203125 41.546875 L 44.03125 41.546875 L 44.03125 40.273438 L 44.195312 40.273438 Z M 45.101562 41.546875 L 45.101562 40.273438 L 45.273438 40.273438 L 45.273438 41.546875 Z M 45.1875 39.996094 C 45.152344 39.996094 45.125 39.984375 45.097656 39.960938 C 45.074219 39.9375 45.0625 39.90625 45.0625 39.875 C 45.0625 39.839844 45.074219 39.8125 45.097656 39.789062 C 45.125 39.765625 45.152344 39.753906 45.1875 39.753906 C 45.222656 39.753906 45.253906 39.765625 45.277344 39.789062 C 45.300781 39.8125 45.316406 39.839844 45.316406 39.871094 C 45.316406 39.90625 45.300781 39.9375 45.277344 39.960938 C 45.253906 39.984375 45.222656 39.996094 45.1875 39.996094 Z M 45.1875 39.996094 "/>
</g>
<g clip-path="url(#clip2)" clip-rule="nonzero">
<g clip-path="url(#clip3)" clip-rule="nonzero">
<path style="fill:none;stroke-width:2;stroke-linecap:butt;stroke-linejoin:miter;stroke:rgb(24.705882%,23.529412%,23.529412%);stroke-opacity:1;stroke-miterlimit:4;" d="M 2.289361 0.00342742 L 2.289361 -27.999154 L 16.091407 -27.999154 C 19.202851 -27.999154 21.941985 -27.440698 24.335403 -26.297193 C 26.728822 -25.153688 28.590369 -23.558099 29.893452 -21.430647 C 31.223129 -19.329789 31.887968 -16.856626 31.887968 -14.01116 C 31.887968 -11.1391 31.223129 -8.665938 29.893452 -6.565079 C 28.590369 -4.464221 26.728822 -2.842039 24.335403 -1.698534 C 21.941985 -0.555029 19.202851 0.00342742 16.091407 0.00342742 Z M 11.730067 -7.362874 L 15.692504 -7.362874 C 17.713612 -7.362874 19.335818 -7.947923 20.532527 -9.091428 C 21.75583 -10.261526 22.367481 -11.883708 22.367481 -14.01116 C 22.367481 -16.112018 21.75583 -17.7342 20.532527 -18.904299 C 19.335818 -20.047804 17.713612 -20.632853 15.692504 -20.632853 L 11.730067 -20.632853 Z M 35.318534 0.00342742 L 35.318534 -27.999154 L 44.75924 -27.999154 L 44.75924 0.00342742 Z M 59.757995 0.641663 C 57.444357 0.641663 55.183906 0.375731 52.976643 -0.129538 C 50.769379 -0.661401 48.961019 -1.352823 47.551561 -2.230397 L 50.609818 -9.118021 C 51.939495 -8.34682 53.428733 -7.735178 55.077532 -7.256501 C 56.726331 -6.804418 58.321944 -6.565079 59.837775 -6.565079 C 61.140859 -6.565079 62.071632 -6.698045 62.630097 -6.937383 C 63.188561 -7.203315 63.48109 -7.575619 63.48109 -8.080889 C 63.48109 -8.665938 63.10878 -9.118021 62.390755 -9.410546 C 61.646136 -9.70307 60.449427 -10.022188 58.74744 -10.367899 C 56.593364 -10.819983 54.811597 -11.298659 53.348952 -11.830522 C 51.912901 -12.335792 50.663005 -13.186772 49.599263 -14.383464 C 48.535522 -15.553562 48.003651 -17.175744 48.003651 -19.196823 C 48.003651 -20.951971 48.482335 -22.547559 49.492889 -24.010182 C 50.47685 -25.446212 51.939495 -26.563124 53.907417 -27.387512 C 55.848745 -28.238492 58.242163 -28.63739 61.034484 -28.63739 C 62.949219 -28.63739 64.83736 -28.424644 66.698908 -28.025747 C 68.560455 -27.600257 70.182661 -26.988615 71.592119 -26.19082 L 68.773204 -19.356382 C 66.007476 -20.739226 63.401309 -21.430647 60.954704 -21.430647 C 58.534692 -21.430647 57.311389 -20.845598 57.311389 -19.6755 C 57.311389 -19.117044 57.683699 -18.691553 58.401724 -18.425622 C 59.11975 -18.133097 60.316459 -17.840573 61.965258 -17.521455 C 64.092741 -17.122558 65.901102 -16.670474 67.363746 -16.138611 C 68.826391 -15.606749 70.102881 -14.782361 71.193216 -13.612263 C 72.256957 -12.415571 72.788828 -10.819983 72.788828 -8.798904 C 72.788828 -7.043756 72.310144 -5.448167 71.326183 -4.012137 C 70.342222 -2.602701 68.852984 -1.459196 66.911656 -0.608215 C 64.943734 0.216173 62.550316 0.641663 59.757995 0.641663 Z M 94.010471 0.00342742 L 86.989777 -9.27758 L 84.888887 -6.91079 L 84.888887 0.00342742 L 75.607743 0.00342742 L 75.607743 -27.999154 L 84.888887 -27.999154 L 84.888887 -17.840573 L 94.090251 -27.999154 L 104.355356 -27.999154 L 93.159477 -15.686528 L 104.913821 0.00342742 Z M 119.885982 0.641663 C 116.854319 0.641663 114.168372 0.00342742 111.74836 -1.24645 C 109.354941 -2.496328 107.4668 -4.224883 106.11053 -6.458707 C 104.75426 -8.692531 104.089421 -11.192287 104.089421 -14.01116 C 104.089421 -16.80344 104.75426 -19.303196 106.11053 -21.53702 C 107.4668 -23.770844 109.354941 -25.499398 111.74836 -26.749276 C 114.168372 -28.025747 116.854319 -28.63739 119.885982 -28.63739 C 122.891052 -28.63739 125.603593 -28.025747 127.997011 -26.749276 C 130.390429 -25.499398 132.27857 -23.770844 133.634841 -21.53702 C 134.991111 -19.303196 135.682543 -16.80344 135.682543 -14.01116 C 135.682543 -11.192287 134.991111 -8.692531 133.634841 -6.458707 C 132.27857 -4.224883 130.390429 -2.496328 127.997011 -1.24645 C 125.603593 0.00342742 122.891052 0.641663 119.885982 0.641663 Z M 119.885982 -6.99057 C 121.056098 -6.99057 122.119839 -7.283094 123.050613 -7.868143 C 124.00798 -8.426599 124.752599 -9.250987 125.311064 -10.28812 C 125.869528 -11.351845 126.162057 -12.57513 126.162057 -14.01116 C 126.162057 -15.420597 125.869528 -16.643881 125.311064 -17.707607 C 124.752599 -18.74474 124.00798 -19.569127 123.050613 -20.127583 C 122.119839 -20.712632 121.056098 -21.005157 119.885982 -21.005157 C 118.715867 -21.005157 117.652125 -20.712632 116.694758 -20.127583 C 115.763984 -19.569127 114.992771 -18.74474 114.434307 -17.707607 C 113.875843 -16.643881 113.609907 -15.420597 113.609907 -14.01116 C 113.609907 -12.57513 113.875843 -11.351845 114.434307 -10.28812 C 114.992771 -9.250987 115.763984 -8.426599 116.694758 -7.868143 C 117.652125 -7.283094 118.715867 -6.99057 119.885982 -6.99057 Z M 144.804126 0.00342742 L 144.804126 -20.686039 L 136.586723 -20.686039 L 136.586723 -27.999154 L 162.435642 -27.999154 L 162.435642 -20.686039 L 154.244832 -20.686039 L 154.244832 0.00342742 Z M 174.163391 -7.123535 L 188.151592 -7.123535 L 188.151592 0.00342742 L 164.882247 0.00342742 L 164.882247 -27.999154 L 187.646315 -27.999154 L 187.646315 -20.872191 L 174.163391 -20.872191 L 174.163391 -17.601234 L 185.997515 -17.601234 L 185.997515 -10.793389 L 174.163391 -10.793389 Z M 210.197634 0.00342742 L 203.203534 -9.27758 L 201.076051 -6.91079 L 201.076051 0.00342742 L 191.794907 0.00342742 L 191.794907 -27.999154 L 201.076051 -27.999154 L 201.076051 -17.840573 L 210.277415 -27.999154 L 220.569114 -27.999154 L 209.373235 -15.686528 L 221.127578 0.00342742 Z M 241.950318 0.00342742 L 240.08877 -4.889711 L 229.451355 -4.889711 L 227.563214 0.00342742 L 217.962947 0.00342742 L 230.195974 -27.999154 L 239.477119 -27.999154 L 251.710146 0.00342742 Z M 232.030928 -11.670963 L 237.482603 -11.670963 L 234.770063 -18.718147 Z M 232.030928 -11.670963 " transform="matrix(0.146887,0,0,0.146889,12.023097,36.647934)"/>
</g>
</g>
<g clip-path="url(#clip4)" clip-rule="nonzero">
<path style=" stroke:none;fill-rule:nonzero;fill:rgb(24.705882%,23.529412%,23.529412%);fill-opacity:1;" d="M 53.347656 35.644531 L 54.765625 35.644531 L 54.765625 36.742188 L 51.394531 36.742188 L 51.394531 35.871094 L 52.914062 34.464844 C 53.046875 34.339844 53.132812 34.234375 53.179688 34.148438 C 53.222656 34.058594 53.246094 33.972656 53.246094 33.890625 C 53.246094 33.785156 53.210938 33.703125 53.140625 33.644531 C 53.070312 33.585938 52.96875 33.558594 52.835938 33.558594 C 52.707031 33.558594 52.585938 33.59375 52.476562 33.660156 C 52.363281 33.726562 52.277344 33.824219 52.21875 33.949219 L 51.148438 33.414062 C 51.308594 33.113281 51.542969 32.875 51.851562 32.703125 C 52.160156 32.527344 52.53125 32.441406 52.96875 32.441406 C 53.300781 32.441406 53.59375 32.496094 53.851562 32.601562 C 54.105469 32.710938 54.308594 32.867188 54.453125 33.066406 C 54.597656 33.265625 54.667969 33.496094 54.667969 33.757812 C 54.667969 33.988281 54.617188 34.207031 54.519531 34.410156 C 54.421875 34.609375 54.230469 34.839844 53.945312 35.097656 Z M 54.910156 32.539062 L 57.046875 32.539062 L 57.046875 36.742188 L 55.628906 36.742188 L 55.628906 33.605469 L 54.910156 33.605469 Z M 61.640625 34.921875 L 61.640625 36.019531 L 61.082031 36.019531 L 61.082031 36.742188 L 59.707031 36.742188 L 59.707031 36.019531 L 57.527344 36.019531 L 57.527344 35.121094 L 59.3125 32.539062 L 60.765625 32.539062 L 59.179688 34.921875 L 59.75 34.921875 L 59.75 34.277344 L 61.082031 34.277344 L 61.082031 34.921875 Z M 61.640625 34.921875 "/>
</g>
</g>
</svg>
