<?xml version="1.0" encoding="UTF-8"?>
<svg xmlns="http://www.w3.org/2000/svg" xmlns:xlink="http://www.w3.org/1999/xlink" width="px" height="px" viewBox="0 0 249 249" version="1.1">
<defs>
<clipPath id="clip1">
  <path d="M 41.582031 135.027344 L 207.417969 135.027344 L 207.417969 135.472656 L 41.582031 135.472656 Z M 41.582031 135.027344 "/>
</clipPath>
<clipPath id="clip2">
  <path d="M 41.582031 97.554688 L 207.417969 97.554688 L 207.417969 99.339844 L 41.582031 99.339844 Z M 41.582031 97.554688 "/>
</clipPath>
<clipPath id="clip3">
  <path d="M 89.097656 142.164062 L 159.902344 142.164062 L 159.902344 151.441406 L 89.097656 151.441406 Z M 89.097656 142.164062 "/>
</clipPath>
<clipPath id="clip4">
  <path d="M 50.503906 108.261719 L 198.492188 108.261719 L 198.492188 126.105469 L 50.503906 126.105469 Z M 50.503906 108.261719 "/>
</clipPath>
</defs>
<g id="surface1">
<rect x="0" y="0" width="249" height="249" style="fill:rgb(100%,100%,100%);fill-opacity:1;stroke:none;"/>
<g clip-path="url(#clip1)" clip-rule="nonzero">
<path style=" stroke:none;fill-rule:nonzero;fill:rgb(11.764706%,11.764706%,11.764706%);fill-opacity:1;" d="M 41.582031 135.027344 L 207.417969 135.027344 L 207.417969 135.472656 L 41.582031 135.472656 Z M 41.582031 135.027344 "/>
</g>
<g clip-path="url(#clip2)" clip-rule="nonzero">
<path style=" stroke:none;fill-rule:nonzero;fill:rgb(11.764706%,11.764706%,11.764706%);fill-opacity:1;" d="M 41.582031 97.554688 L 207.417969 97.554688 L 207.417969 99.339844 L 41.582031 99.339844 Z M 41.582031 97.554688 "/>
</g>
<g clip-path="url(#clip3)" clip-rule="nonzero">
<path style=" stroke:none;fill-rule:nonzero;fill:rgb(11.764706%,11.764706%,11.764706%);fill-opacity:1;" d="M 91.078125 142.769531 C 91.890625 142.769531 92.539062 142.976562 93.019531 143.390625 C 93.496094 143.804688 93.738281 144.410156 93.738281 145.199219 C 93.738281 145.648438 93.640625 146.066406 93.445312 146.453125 C 93.253906 146.839844 92.953125 147.152344 92.546875 147.390625 C 92.140625 147.628906 91.628906 147.746094 91.019531 147.746094 L 89.691406 147.746094 L 89.691406 151.347656 L 89.097656 151.347656 L 89.097656 142.769531 Z M 91.019531 147.179688 C 91.535156 147.179688 91.953125 147.074219 92.273438 146.863281 C 92.597656 146.65625 92.824219 146.398438 92.957031 146.097656 C 93.089844 145.796875 93.15625 145.496094 93.15625 145.199219 C 93.15625 144.640625 92.980469 144.191406 92.625 143.851562 C 92.269531 143.507812 91.777344 143.335938 91.140625 143.335938 L 89.691406 143.335938 L 89.691406 147.179688 Z M 96.105469 146.625 L 96.671875 146.625 L 96.671875 151.347656 L 96.105469 151.347656 Z M 95.984375 144.882812 C 95.984375 144.769531 96.027344 144.675781 96.113281 144.601562 C 96.195312 144.523438 96.292969 144.484375 96.40625 144.484375 C 96.519531 144.484375 96.617188 144.523438 96.699219 144.601562 C 96.777344 144.675781 96.816406 144.769531 96.816406 144.882812 C 96.816406 145.003906 96.777344 145.101562 96.699219 145.179688 C 96.617188 145.257812 96.519531 145.292969 96.40625 145.292969 C 96.292969 145.292969 96.195312 145.253906 96.113281 145.171875 C 96.027344 145.09375 95.984375 144.996094 95.984375 144.882812 Z M 101.496094 150.949219 C 102 150.949219 102.460938 150.777344 102.871094 150.429688 L 103.160156 150.839844 C 102.929688 151.023438 102.664062 151.171875 102.371094 151.28125 C 102.078125 151.390625 101.78125 151.445312 101.480469 151.445312 C 101 151.445312 100.566406 151.335938 100.183594 151.117188 C 99.800781 150.902344 99.503906 150.605469 99.289062 150.230469 C 99.074219 149.855469 98.96875 149.433594 98.96875 148.96875 C 98.96875 148.515625 99.082031 148.097656 99.308594 147.71875 C 99.53125 147.335938 99.839844 147.03125 100.226562 146.804688 C 100.613281 146.578125 101.035156 146.464844 101.496094 146.464844 C 102.042969 146.464844 102.507812 146.628906 102.894531 146.949219 C 103.28125 147.273438 103.566406 147.707031 103.742188 148.253906 L 99.707031 149.8125 C 99.859375 150.152344 100.09375 150.425781 100.414062 150.632812 C 100.730469 150.84375 101.089844 150.949219 101.496094 150.949219 Z M 101.457031 146.949219 C 101.105469 146.949219 100.777344 147.039062 100.480469 147.214844 C 100.179688 147.394531 99.949219 147.632812 99.777344 147.933594 C 99.609375 148.238281 99.523438 148.574219 99.523438 148.941406 C 99.523438 149.113281 99.539062 149.261719 99.574219 149.390625 L 103.054688 148.023438 C 102.898438 147.703125 102.6875 147.441406 102.414062 147.246094 C 102.140625 147.046875 101.820312 146.949219 101.457031 146.949219 Z M 108.453125 146.492188 C 108.890625 146.492188 109.242188 146.621094 109.515625 146.882812 C 109.792969 147.144531 109.9375 147.484375 109.953125 147.902344 L 109.953125 151.347656 L 109.371094 151.347656 L 109.371094 148.0625 C 109.355469 147.746094 109.253906 147.492188 109.070312 147.292969 C 108.886719 147.097656 108.621094 146.992188 108.273438 146.984375 C 107.949219 146.984375 107.65625 147.0625 107.382812 147.214844 C 107.113281 147.367188 106.898438 147.585938 106.730469 147.863281 C 106.566406 148.140625 106.484375 148.457031 106.484375 148.808594 L 106.484375 151.347656 L 105.917969 151.347656 L 105.917969 146.625 L 106.410156 146.625 L 106.460938 147.675781 C 106.613281 147.3125 106.875 147.023438 107.238281 146.8125 C 107.605469 146.597656 108.011719 146.492188 108.453125 146.492188 Z M 114.773438 150.949219 C 115.28125 150.949219 115.738281 150.777344 116.152344 150.429688 L 116.441406 150.839844 C 116.207031 151.023438 115.945312 151.171875 115.648438 151.28125 C 115.355469 151.390625 115.058594 151.445312 114.761719 151.445312 C 114.277344 151.445312 113.84375 151.335938 113.460938 151.117188 C 113.078125 150.902344 112.78125 150.605469 112.566406 150.230469 C 112.355469 149.855469 112.246094 149.433594 112.246094 148.96875 C 112.246094 148.515625 112.359375 148.097656 112.585938 147.71875 C 112.8125 147.335938 113.117188 147.03125 113.503906 146.804688 C 113.890625 146.578125 114.3125 146.464844 114.773438 146.464844 C 115.320312 146.464844 115.789062 146.628906 116.175781 146.949219 C 116.5625 147.273438 116.84375 147.707031 117.019531 148.253906 L 112.984375 149.8125 C 113.136719 150.152344 113.375 150.425781 113.691406 150.632812 C 114.011719 150.84375 114.371094 150.949219 114.773438 150.949219 Z M 114.738281 146.949219 C 114.382812 146.949219 114.054688 147.039062 113.757812 147.214844 C 113.460938 147.394531 113.226562 147.632812 113.058594 147.933594 C 112.886719 148.238281 112.804688 148.574219 112.804688 148.941406 C 112.804688 149.113281 112.820312 149.261719 112.851562 149.390625 L 116.332031 148.023438 C 116.179688 147.703125 115.964844 147.441406 115.691406 147.246094 C 115.417969 147.046875 115.097656 146.949219 114.738281 146.949219 Z M 127.582031 142.164062 L 128.148438 142.164062 L 128.148438 151.347656 L 127.570312 151.347656 L 127.570312 150.367188 C 127.351562 150.691406 127.054688 150.949219 126.675781 151.148438 C 126.296875 151.34375 125.886719 151.445312 125.441406 151.445312 C 125 151.445312 124.59375 151.335938 124.226562 151.125 C 123.863281 150.910156 123.574219 150.613281 123.363281 150.230469 C 123.15625 149.847656 123.050781 149.421875 123.050781 148.957031 C 123.050781 148.464844 123.160156 148.027344 123.375 147.652344 C 123.59375 147.273438 123.886719 146.980469 124.257812 146.78125 C 124.628906 146.578125 125.042969 146.480469 125.503906 146.480469 C 125.914062 146.480469 126.308594 146.578125 126.691406 146.78125 C 127.074219 146.980469 127.371094 147.246094 127.582031 147.578125 Z M 125.585938 150.949219 C 126.128906 150.949219 126.582031 150.78125 126.953125 150.441406 C 127.324219 150.101562 127.527344 149.675781 127.570312 149.160156 L 127.570312 148.554688 C 127.480469 148.097656 127.25 147.714844 126.875 147.410156 C 126.5 147.101562 126.070312 146.949219 125.585938 146.949219 C 125.226562 146.949219 124.894531 147.035156 124.597656 147.203125 C 124.296875 147.371094 124.0625 147.609375 123.882812 147.910156 C 123.707031 148.210938 123.617188 148.554688 123.617188 148.941406 C 123.617188 149.304688 123.707031 149.640625 123.882812 149.945312 C 124.0625 150.253906 124.300781 150.496094 124.601562 150.675781 C 124.90625 150.859375 125.234375 150.949219 125.585938 150.949219 Z M 130.445312 148.957031 C 130.445312 148.503906 130.554688 148.085938 130.777344 147.703125 C 131 147.320312 131.300781 147.019531 131.6875 146.796875 C 132.074219 146.578125 132.503906 146.464844 132.96875 146.464844 C 133.4375 146.464844 133.863281 146.578125 134.25 146.796875 C 134.636719 147.019531 134.941406 147.320312 135.15625 147.703125 C 135.375 148.085938 135.484375 148.503906 135.484375 148.957031 C 135.484375 149.414062 135.371094 149.832031 135.152344 150.210938 C 134.929688 150.589844 134.628906 150.890625 134.246094 151.113281 C 133.863281 151.332031 133.433594 151.445312 132.957031 151.445312 C 132.484375 151.445312 132.054688 151.335938 131.671875 151.125 C 131.289062 150.910156 130.988281 150.613281 130.769531 150.234375 C 130.554688 149.855469 130.445312 149.429688 130.445312 148.957031 Z M 131.011719 148.96875 C 131.011719 149.328125 131.097656 149.664062 131.273438 149.96875 C 131.445312 150.277344 131.679688 150.519531 131.980469 150.695312 C 132.277344 150.871094 132.605469 150.960938 132.957031 150.960938 C 133.3125 150.960938 133.636719 150.871094 133.9375 150.695312 C 134.234375 150.519531 134.46875 150.277344 134.644531 149.96875 C 134.816406 149.664062 134.902344 149.328125 134.902344 148.96875 C 134.902344 148.605469 134.816406 148.269531 134.644531 147.957031 C 134.46875 147.648438 134.234375 147.40625 133.9375 147.226562 C 133.636719 147.050781 133.3125 146.960938 132.957031 146.960938 C 132.59375 146.960938 132.265625 147.054688 131.96875 147.246094 C 131.667969 147.433594 131.433594 147.683594 131.265625 147.988281 C 131.097656 148.292969 131.011719 148.621094 131.011719 148.96875 Z M 145.402344 146.625 L 142.417969 150.863281 L 145.355469 150.863281 L 145.355469 151.347656 L 141.453125 151.347656 L 144.449219 147.09375 L 142.214844 147.09375 C 141.730469 147.09375 141.488281 146.863281 141.488281 146.40625 L 141.488281 146.175781 L 141.933594 146.175781 L 141.933594 146.320312 C 141.933594 146.523438 142.074219 146.625 142.347656 146.625 Z M 147.117188 148.957031 C 147.117188 148.503906 147.230469 148.085938 147.453125 147.703125 C 147.671875 147.320312 147.976562 147.019531 148.363281 146.796875 C 148.75 146.578125 149.175781 146.464844 149.644531 146.464844 C 150.113281 146.464844 150.539062 146.578125 150.925781 146.796875 C 151.3125 147.019531 151.613281 147.320312 151.832031 147.703125 C 152.046875 148.085938 152.15625 148.503906 152.15625 148.957031 C 152.15625 149.414062 152.046875 149.832031 151.824219 150.210938 C 151.605469 150.589844 151.300781 150.890625 150.917969 151.113281 C 150.535156 151.332031 150.109375 151.445312 149.632812 151.445312 C 149.15625 151.445312 148.726562 151.335938 148.34375 151.125 C 147.960938 150.910156 147.664062 150.613281 147.445312 150.234375 C 147.226562 149.855469 147.117188 149.429688 147.117188 148.957031 Z M 147.6875 148.96875 C 147.6875 149.328125 147.773438 149.664062 147.945312 149.96875 C 148.121094 150.277344 148.355469 150.519531 148.652344 150.695312 C 148.953125 150.871094 149.277344 150.960938 149.632812 150.960938 C 149.988281 150.960938 150.3125 150.871094 150.609375 150.695312 C 150.910156 150.519531 151.144531 150.277344 151.316406 149.96875 C 151.492188 149.664062 151.578125 149.328125 151.578125 148.96875 C 151.578125 148.605469 151.492188 148.269531 151.316406 147.957031 C 151.144531 147.648438 150.910156 147.40625 150.609375 147.226562 C 150.3125 147.050781 149.988281 146.960938 149.632812 146.960938 C 149.269531 146.960938 148.941406 147.054688 148.640625 147.246094 C 148.34375 147.433594 148.109375 147.683594 147.941406 147.988281 C 147.769531 148.292969 147.6875 148.621094 147.6875 148.96875 Z M 154.996094 147.746094 C 155.167969 147.367188 155.445312 147.066406 155.832031 146.839844 C 156.21875 146.617188 156.605469 146.5 156.992188 146.492188 L 156.964844 147.046875 C 156.613281 147.046875 156.285156 147.125 155.988281 147.28125 C 155.691406 147.4375 155.453125 147.65625 155.28125 147.933594 C 155.109375 148.210938 155.019531 148.515625 155.019531 148.847656 L 155.019531 151.347656 L 154.453125 151.347656 L 154.453125 146.625 L 154.949219 146.625 Z M 159.191406 146.625 L 159.757812 146.625 L 159.757812 151.347656 L 159.191406 151.347656 Z M 159.070312 144.882812 C 159.070312 144.769531 159.109375 144.675781 159.195312 144.601562 C 159.28125 144.523438 159.378906 144.484375 159.492188 144.484375 C 159.605469 144.484375 159.703125 144.523438 159.78125 144.601562 C 159.863281 144.675781 159.902344 144.769531 159.902344 144.882812 C 159.902344 145.003906 159.863281 145.101562 159.78125 145.179688 C 159.703125 145.257812 159.605469 145.292969 159.492188 145.292969 C 159.378906 145.292969 159.28125 145.253906 159.195312 145.171875 C 159.109375 145.09375 159.070312 144.996094 159.070312 144.882812 Z M 159.070312 144.882812 "/>
</g>
<g clip-path="url(#clip4)" clip-rule="nonzero">
<path style=" stroke:none;fill-rule:nonzero;fill:rgb(11.764706%,11.764706%,11.764706%);fill-opacity:1;" d="M 56.523438 122.460938 C 56.089844 122.460938 55.59375 122.4375 55.035156 122.394531 C 54.816406 122.378906 54.550781 122.367188 54.234375 122.351562 C 53.917969 122.335938 53.566406 122.328125 53.179688 122.328125 L 51.667969 122.351562 C 51.394531 122.367188 51.023438 122.375 50.546875 122.375 C 50.519531 122.375 50.503906 122.328125 50.503906 122.242188 C 50.503906 122.15625 50.519531 122.113281 50.546875 122.113281 C 51.066406 122.113281 51.445312 122.078125 51.691406 122.007812 C 51.933594 121.933594 52.101562 121.792969 52.1875 121.585938 C 52.273438 121.378906 52.316406 121.058594 52.316406 120.625 L 52.316406 110.636719 C 52.316406 110.203125 52.273438 109.886719 52.1875 109.6875 C 52.101562 109.484375 51.9375 109.34375 51.703125 109.265625 C 51.464844 109.1875 51.09375 109.148438 50.589844 109.148438 C 50.546875 109.148438 50.527344 109.105469 50.527344 109.015625 C 50.527344 108.929688 50.546875 108.886719 50.589844 108.886719 L 51.667969 108.910156 C 52.300781 108.9375 52.804688 108.953125 53.179688 108.953125 C 53.726562 108.953125 54.277344 108.929688 54.839844 108.886719 C 55.53125 108.859375 55.988281 108.84375 56.21875 108.84375 C 57.699219 108.84375 59.015625 109.132812 60.167969 109.707031 C 61.316406 110.28125 62.207031 111.066406 62.839844 112.058594 C 63.472656 113.050781 63.789062 114.167969 63.789062 115.402344 C 63.789062 116.800781 63.460938 118.03125 62.808594 119.105469 C 62.15625 120.175781 61.273438 121.003906 60.167969 121.585938 C 59.058594 122.167969 57.84375 122.460938 56.523438 122.460938 Z M 56.304688 122.070312 C 57.382812 122.070312 58.335938 121.832031 59.164062 121.347656 C 59.992188 120.867188 60.636719 120.160156 61.105469 119.234375 C 61.570312 118.304688 61.804688 117.1875 61.804688 115.878906 C 61.804688 114.628906 61.585938 113.496094 61.148438 112.480469 C 60.710938 111.464844 60.085938 110.667969 59.273438 110.085938 C 58.460938 109.503906 57.515625 109.210938 56.4375 109.210938 C 55.816406 109.210938 55.34375 109.246094 55.011719 109.320312 C 54.679688 109.390625 54.4375 109.53125 54.277344 109.738281 C 54.121094 109.949219 54.042969 110.261719 54.042969 110.679688 L 54.042969 120.386719 C 54.042969 121.007812 54.195312 121.441406 54.503906 121.695312 C 54.816406 121.945312 55.414062 122.070312 56.304688 122.070312 Z M 69.332031 120.625 C 69.332031 121.058594 69.375 121.378906 69.460938 121.585938 C 69.546875 121.792969 69.710938 121.933594 69.945312 122.007812 C 70.183594 122.078125 70.5625 122.113281 71.078125 122.113281 C 71.109375 122.113281 71.121094 122.15625 71.121094 122.242188 C 71.121094 122.328125 71.109375 122.375 71.078125 122.375 C 70.621094 122.375 70.261719 122.367188 70 122.351562 L 68.449219 122.328125 L 66.9375 122.351562 C 66.664062 122.367188 66.292969 122.375 65.816406 122.375 C 65.789062 122.375 65.773438 122.328125 65.773438 122.242188 C 65.773438 122.15625 65.789062 122.113281 65.816406 122.113281 C 66.335938 122.113281 66.714844 122.078125 66.960938 122.007812 C 67.203125 121.933594 67.371094 121.792969 67.457031 121.585938 C 67.542969 121.378906 67.585938 121.058594 67.585938 120.625 L 67.585938 110.636719 C 67.585938 110.203125 67.542969 109.886719 67.457031 109.6875 C 67.371094 109.484375 67.203125 109.34375 66.960938 109.265625 C 66.714844 109.1875 66.335938 109.148438 65.816406 109.148438 C 65.789062 109.148438 65.773438 109.105469 65.773438 109.015625 C 65.773438 108.929688 65.789062 108.886719 65.816406 108.886719 L 66.9375 108.910156 C 67.570312 108.9375 68.074219 108.953125 68.449219 108.953125 C 68.867188 108.953125 69.390625 108.9375 70.023438 108.910156 L 71.078125 108.886719 C 71.109375 108.886719 71.121094 108.929688 71.121094 109.015625 C 71.121094 109.105469 71.109375 109.148438 71.078125 109.148438 C 70.578125 109.148438 70.203125 109.191406 69.957031 109.277344 C 69.714844 109.363281 69.546875 109.511719 69.460938 109.71875 C 69.375 109.925781 69.332031 110.246094 69.332031 110.679688 Z M 75.394531 111.304688 C 75.394531 111.851562 75.53125 112.328125 75.800781 112.738281 C 76.074219 113.148438 76.40625 113.5 76.792969 113.796875 C 77.183594 114.089844 77.722656 114.449219 78.410156 114.863281 C 79.132812 115.308594 79.703125 115.695312 80.125 116.019531 C 80.550781 116.34375 80.914062 116.742188 81.214844 117.214844 C 81.519531 117.691406 81.667969 118.253906 81.667969 118.898438 C 81.667969 119.605469 81.484375 120.242188 81.117188 120.808594 C 80.753906 121.378906 80.226562 121.824219 79.542969 122.148438 C 78.863281 122.46875 78.066406 122.632812 77.160156 122.632812 C 76.585938 122.632812 76.019531 122.5625 75.457031 122.425781 C 74.898438 122.289062 74.40625 122.09375 73.992188 121.832031 C 73.917969 121.789062 73.867188 121.742188 73.839844 121.683594 C 73.8125 121.625 73.796875 121.539062 73.796875 121.425781 L 73.582031 118.339844 C 73.566406 118.28125 73.597656 118.246094 73.679688 118.230469 C 73.757812 118.214844 73.804688 118.238281 73.820312 118.296875 C 74.164062 119.386719 74.644531 120.316406 75.261719 121.078125 C 75.882812 121.839844 76.6875 122.222656 77.679688 122.222656 C 78.355469 122.222656 78.917969 122.039062 79.371094 121.671875 C 79.824219 121.304688 80.050781 120.703125 80.050781 119.871094 C 80.050781 119.238281 79.90625 118.683594 79.621094 118.207031 C 79.332031 117.734375 78.984375 117.335938 78.574219 117.011719 C 78.164062 116.6875 77.613281 116.316406 76.925781 115.898438 C 76.25 115.46875 75.710938 115.097656 75.316406 114.789062 C 74.921875 114.480469 74.585938 114.097656 74.3125 113.644531 C 74.042969 113.191406 73.90625 112.664062 73.90625 112.058594 C 73.90625 111.324219 74.101562 110.699219 74.496094 110.183594 C 74.894531 109.664062 75.410156 109.28125 76.050781 109.027344 C 76.691406 108.777344 77.363281 108.652344 78.066406 108.652344 C 79.03125 108.652344 79.898438 108.816406 80.675781 109.148438 C 80.890625 109.234375 81 109.363281 81 109.535156 L 81.109375 112.230469 C 81.109375 112.289062 81.070312 112.324219 81 112.339844 C 80.929688 112.355469 80.886719 112.332031 80.871094 112.277344 C 80.710938 111.5 80.375 110.761719 79.855469 110.0625 C 79.339844 109.367188 78.605469 109.015625 77.65625 109.015625 C 76.9375 109.015625 76.382812 109.234375 75.984375 109.664062 C 75.589844 110.097656 75.394531 110.644531 75.394531 111.304688 Z M 96.808594 122.113281 C 96.851562 122.113281 96.875 122.15625 96.875 122.242188 C 96.875 122.328125 96.851562 122.375 96.808594 122.375 L 94.394531 122.375 L 93.722656 122.394531 C 93.523438 122.394531 93.367188 122.367188 93.261719 122.308594 C 93.152344 122.25 93.03125 122.144531 92.894531 121.984375 C 92.757812 121.828125 92.53125 121.53125 92.214844 121.101562 C 92.085938 120.941406 91.914062 120.714844 91.695312 120.421875 C 91.480469 120.125 91.1875 119.734375 90.8125 119.246094 L 87.6875 115.1875 L 87.039062 115.8125 L 87.039062 120.625 C 87.039062 121.058594 87.082031 121.378906 87.167969 121.585938 C 87.253906 121.792969 87.417969 121.933594 87.652344 122.007812 C 87.890625 122.078125 88.269531 122.113281 88.785156 122.113281 C 88.828125 122.113281 88.851562 122.15625 88.851562 122.242188 C 88.851562 122.328125 88.828125 122.375 88.785156 122.375 C 88.324219 122.375 87.964844 122.367188 87.707031 122.351562 L 86.175781 122.328125 L 84.667969 122.351562 C 84.394531 122.367188 84.019531 122.375 83.546875 122.375 C 83.515625 122.375 83.5 122.328125 83.5 122.242188 C 83.5 122.15625 83.515625 122.113281 83.546875 122.113281 C 84.0625 122.113281 84.445312 122.078125 84.6875 122.007812 C 84.933594 121.933594 85.097656 121.792969 85.183594 121.585938 C 85.269531 121.378906 85.3125 121.058594 85.3125 120.625 L 85.3125 110.636719 C 85.3125 110.203125 85.269531 109.886719 85.183594 109.6875 C 85.097656 109.484375 84.9375 109.34375 84.699219 109.265625 C 84.460938 109.1875 84.089844 109.148438 83.589844 109.148438 C 83.546875 109.148438 83.523438 109.105469 83.523438 109.015625 C 83.523438 108.929688 83.546875 108.886719 83.589844 108.886719 L 84.667969 108.910156 C 85.300781 108.9375 85.800781 108.953125 86.175781 108.953125 C 86.578125 108.953125 87.097656 108.9375 87.730469 108.910156 L 88.785156 108.886719 C 88.8125 108.886719 88.828125 108.929688 88.828125 109.015625 C 88.828125 109.105469 88.8125 109.148438 88.785156 109.148438 C 88.28125 109.148438 87.910156 109.191406 87.664062 109.277344 C 87.417969 109.363281 87.253906 109.511719 87.167969 109.71875 C 87.082031 109.925781 87.039062 110.246094 87.039062 110.679688 L 87.039062 115.253906 L 91.460938 110.785156 C 91.921875 110.328125 92.148438 109.964844 92.148438 109.707031 C 92.148438 109.332031 91.726562 109.148438 90.878906 109.148438 C 90.835938 109.148438 90.8125 109.105469 90.8125 109.015625 C 90.8125 108.929688 90.835938 108.886719 90.878906 108.886719 L 91.828125 108.910156 C 92.402344 108.9375 92.949219 108.953125 93.464844 108.953125 C 93.984375 108.953125 94.515625 108.9375 95.0625 108.910156 L 95.925781 108.886719 C 95.96875 108.886719 95.988281 108.929688 95.988281 109.015625 C 95.988281 109.105469 95.96875 109.148438 95.925781 109.148438 C 95.304688 109.148438 94.644531 109.292969 93.941406 109.589844 C 93.234375 109.882812 92.589844 110.328125 92 110.917969 L 88.894531 114 L 92.019531 118.078125 C 93.042969 119.429688 93.8125 120.382812 94.339844 120.9375 C 94.863281 121.492188 95.273438 121.828125 95.570312 121.941406 C 95.863281 122.058594 96.277344 122.113281 96.808594 122.113281 Z M 104.035156 122.632812 C 102.695312 122.632812 101.507812 122.320312 100.464844 121.695312 C 99.421875 121.066406 98.617188 120.21875 98.046875 119.148438 C 97.480469 118.074219 97.195312 116.90625 97.195312 115.640625 C 97.195312 114.160156 97.570312 112.890625 98.316406 111.832031 C 99.066406 110.777344 100.027344 109.980469 101.195312 109.449219 C 102.367188 108.917969 103.566406 108.652344 104.789062 108.652344 C 106.152344 108.652344 107.355469 108.96875 108.390625 109.609375 C 109.425781 110.25 110.21875 111.097656 110.773438 112.144531 C 111.328125 113.195312 111.601562 114.3125 111.601562 115.492188 C 111.601562 116.800781 111.257812 118 110.566406 119.09375 C 109.878906 120.1875 108.953125 121.050781 107.796875 121.683594 C 106.640625 122.316406 105.386719 122.632812 104.035156 122.632812 Z M 104.789062 122.15625 C 105.707031 122.15625 106.535156 121.921875 107.269531 121.445312 C 108 120.972656 108.582031 120.277344 109.003906 119.363281 C 109.429688 118.449219 109.640625 117.359375 109.640625 116.09375 C 109.640625 114.757812 109.40625 113.5625 108.941406 112.511719 C 108.472656 111.460938 107.804688 110.644531 106.933594 110.054688 C 106.0625 109.464844 105.054688 109.167969 103.902344 109.167969 C 102.410156 109.167969 101.242188 109.675781 100.410156 110.691406 C 99.574219 111.703125 99.160156 113.101562 99.160156 114.886719 C 99.160156 116.253906 99.394531 117.488281 99.871094 118.597656 C 100.34375 119.703125 101.011719 120.574219 101.867188 121.207031 C 102.722656 121.839844 103.695312 122.15625 104.789062 122.15625 Z M 116.457031 109.320312 C 115.5625 109.320312 114.867188 109.566406 114.363281 110.0625 C 113.859375 110.558594 113.488281 111.355469 113.242188 112.449219 C 113.226562 112.476562 113.179688 112.492188 113.101562 112.492188 C 113.023438 112.492188 112.984375 112.476562 112.984375 112.449219 C 113.039062 112.03125 113.105469 111.371094 113.175781 110.464844 C 113.25 109.558594 113.285156 108.875 113.285156 108.414062 C 113.285156 108.339844 113.328125 108.304688 113.414062 108.304688 C 113.5 108.304688 113.542969 108.339844 113.542969 108.414062 C 113.542969 108.730469 113.941406 108.886719 114.730469 108.886719 C 115.953125 108.929688 117.398438 108.953125 119.066406 108.953125 C 119.914062 108.953125 120.8125 108.9375 121.761719 108.910156 L 123.226562 108.886719 C 123.757812 108.886719 124.148438 108.851562 124.390625 108.78125 C 124.636719 108.707031 124.792969 108.5625 124.867188 108.347656 C 124.882812 108.289062 124.929688 108.261719 125.007812 108.261719 C 125.085938 108.261719 125.125 108.289062 125.125 108.347656 C 125.082031 108.75 125.035156 109.398438 124.984375 110.289062 C 124.933594 111.183594 124.910156 111.902344 124.910156 112.449219 C 124.910156 112.476562 124.871094 112.492188 124.792969 112.492188 C 124.710938 112.492188 124.671875 112.476562 124.671875 112.449219 C 124.570312 111.339844 124.285156 110.542969 123.808594 110.054688 C 123.335938 109.5625 122.632812 109.320312 121.695312 109.320312 C 121.164062 109.320312 120.785156 109.351562 120.554688 109.417969 C 120.324219 109.480469 120.164062 109.601562 120.078125 109.785156 C 119.992188 109.964844 119.949219 110.261719 119.949219 110.679688 L 119.949219 120.625 C 119.949219 121.070312 119.996094 121.394531 120.089844 121.597656 C 120.183594 121.796875 120.367188 121.933594 120.640625 122.007812 C 120.914062 122.078125 121.351562 122.113281 121.957031 122.113281 C 121.984375 122.113281 122 122.15625 122 122.242188 C 122 122.328125 121.984375 122.375 121.957031 122.375 C 121.453125 122.375 121.054688 122.367188 120.769531 122.351562 L 119.066406 122.328125 L 117.40625 122.351562 C 117.117188 122.367188 116.714844 122.375 116.195312 122.375 C 116.152344 122.375 116.132812 122.328125 116.132812 122.242188 C 116.132812 122.15625 116.152344 122.113281 116.195312 122.113281 C 116.785156 122.113281 117.21875 122.078125 117.492188 122.007812 C 117.765625 121.933594 117.949219 121.792969 118.050781 121.585938 C 118.152344 121.378906 118.203125 121.058594 118.203125 120.625 L 118.203125 110.636719 C 118.203125 110.234375 118.160156 109.941406 118.074219 109.761719 C 117.988281 109.582031 117.828125 109.464844 117.597656 109.40625 C 117.367188 109.347656 116.988281 109.320312 116.457031 109.320312 Z M 136.296875 119.09375 C 136.296875 119.066406 136.324219 119.050781 136.382812 119.050781 C 136.425781 119.050781 136.464844 119.0625 136.5 119.082031 C 136.539062 119.105469 136.554688 119.121094 136.554688 119.136719 C 136.410156 120.171875 136.339844 121.144531 136.339844 122.050781 C 136.339844 122.164062 136.320312 122.246094 136.273438 122.296875 C 136.230469 122.347656 136.144531 122.375 136.015625 122.375 L 126.828125 122.375 C 126.785156 122.375 126.765625 122.328125 126.765625 122.242188 C 126.765625 122.15625 126.785156 122.113281 126.828125 122.113281 C 127.347656 122.113281 127.71875 122.078125 127.949219 122.007812 C 128.179688 121.933594 128.339844 121.792969 128.425781 121.585938 C 128.511719 121.378906 128.554688 121.058594 128.554688 120.625 L 128.554688 110.636719 C 128.554688 110.203125 128.511719 109.886719 128.425781 109.6875 C 128.339844 109.484375 128.175781 109.34375 127.941406 109.265625 C 127.703125 109.1875 127.332031 109.148438 126.828125 109.148438 C 126.785156 109.148438 126.765625 109.105469 126.765625 109.015625 C 126.765625 108.929688 126.785156 108.886719 126.828125 108.886719 L 135.628906 108.886719 C 135.773438 108.886719 135.84375 108.953125 135.84375 109.082031 L 135.886719 111.800781 C 135.886719 111.84375 135.847656 111.867188 135.769531 111.875 C 135.691406 111.882812 135.644531 111.867188 135.628906 111.824219 C 135.527344 111.03125 135.246094 110.429688 134.789062 110.019531 C 134.328125 109.609375 133.722656 109.40625 132.976562 109.40625 L 131.875 109.40625 C 131.242188 109.40625 130.820312 109.496094 130.601562 109.675781 C 130.386719 109.855469 130.28125 110.203125 130.28125 110.722656 L 130.28125 115.101562 L 132.652344 115.101562 C 133.386719 115.101562 133.925781 114.976562 134.269531 114.722656 C 134.613281 114.472656 134.789062 114.082031 134.789062 113.546875 C 134.789062 113.519531 134.828125 113.503906 134.90625 113.503906 C 134.984375 113.503906 135.023438 113.519531 135.023438 113.546875 L 135.003906 115.359375 L 135.023438 116.332031 C 135.054688 116.792969 135.066406 117.152344 135.066406 117.410156 C 135.066406 117.4375 135.023438 117.453125 134.9375 117.453125 C 134.851562 117.453125 134.808594 117.4375 134.808594 117.410156 C 134.808594 116.792969 134.632812 116.335938 134.28125 116.039062 C 133.929688 115.746094 133.363281 115.597656 132.585938 115.597656 L 130.28125 115.597656 L 130.28125 120.539062 C 130.28125 121.058594 130.375 121.410156 130.570312 121.597656 C 130.765625 121.785156 131.15625 121.878906 131.746094 121.878906 L 133.148438 121.878906 C 133.96875 121.878906 134.648438 121.636719 135.1875 121.152344 C 135.726562 120.671875 136.09375 119.984375 136.296875 119.09375 Z M 151.566406 122.113281 C 151.609375 122.113281 151.628906 122.15625 151.628906 122.242188 C 151.628906 122.328125 151.609375 122.375 151.566406 122.375 L 149.152344 122.375 L 148.480469 122.394531 C 148.28125 122.394531 148.125 122.367188 148.019531 122.308594 C 147.910156 122.25 147.789062 122.144531 147.652344 121.984375 C 147.515625 121.828125 147.289062 121.53125 146.972656 121.101562 C 146.84375 120.941406 146.671875 120.714844 146.453125 120.421875 C 146.238281 120.125 145.945312 119.734375 145.570312 119.246094 L 142.445312 115.1875 L 141.796875 115.8125 L 141.796875 120.625 C 141.796875 121.058594 141.839844 121.378906 141.925781 121.585938 C 142.011719 121.792969 142.175781 121.933594 142.410156 122.007812 C 142.648438 122.078125 143.027344 122.113281 143.542969 122.113281 C 143.585938 122.113281 143.609375 122.15625 143.609375 122.242188 C 143.609375 122.328125 143.585938 122.375 143.542969 122.375 C 143.082031 122.375 142.722656 122.367188 142.464844 122.351562 L 140.933594 122.328125 L 139.425781 122.351562 C 139.152344 122.367188 138.777344 122.375 138.300781 122.375 C 138.273438 122.375 138.257812 122.328125 138.257812 122.242188 C 138.257812 122.15625 138.273438 122.113281 138.300781 122.113281 C 138.820312 122.113281 139.203125 122.078125 139.445312 122.007812 C 139.691406 121.933594 139.855469 121.792969 139.941406 121.585938 C 140.027344 121.378906 140.070312 121.058594 140.070312 120.625 L 140.070312 110.636719 C 140.070312 110.203125 140.027344 109.886719 139.941406 109.6875 C 139.855469 109.484375 139.695312 109.34375 139.457031 109.265625 C 139.21875 109.1875 138.847656 109.148438 138.347656 109.148438 C 138.300781 109.148438 138.28125 109.105469 138.28125 109.015625 C 138.28125 108.929688 138.300781 108.886719 138.347656 108.886719 L 139.425781 108.910156 C 140.058594 108.9375 140.558594 108.953125 140.933594 108.953125 C 141.335938 108.953125 141.855469 108.9375 142.488281 108.910156 L 143.542969 108.886719 C 143.570312 108.886719 143.585938 108.929688 143.585938 109.015625 C 143.585938 109.105469 143.570312 109.148438 143.542969 109.148438 C 143.039062 109.148438 142.667969 109.191406 142.421875 109.277344 C 142.175781 109.363281 142.011719 109.511719 141.925781 109.71875 C 141.839844 109.925781 141.796875 110.246094 141.796875 110.679688 L 141.796875 115.253906 L 146.21875 110.785156 C 146.675781 110.328125 146.90625 109.964844 146.90625 109.707031 C 146.90625 109.332031 146.484375 109.148438 145.636719 109.148438 C 145.59375 109.148438 145.570312 109.105469 145.570312 109.015625 C 145.570312 108.929688 145.59375 108.886719 145.636719 108.886719 L 146.585938 108.910156 C 147.160156 108.9375 147.707031 108.953125 148.222656 108.953125 C 148.742188 108.953125 149.273438 108.9375 149.820312 108.910156 L 150.683594 108.886719 C 150.726562 108.886719 150.746094 108.929688 150.746094 109.015625 C 150.746094 109.105469 150.726562 109.148438 150.683594 109.148438 C 150.0625 109.148438 149.402344 109.292969 148.699219 109.589844 C 147.992188 109.882812 147.347656 110.328125 146.757812 110.917969 L 143.652344 114 L 146.777344 118.078125 C 147.800781 119.429688 148.570312 120.382812 149.097656 120.9375 C 149.621094 121.492188 150.03125 121.828125 150.324219 121.941406 C 150.621094 122.058594 151.035156 122.113281 151.566406 122.113281 Z M 166.855469 122.113281 C 166.914062 122.113281 166.941406 122.15625 166.941406 122.242188 C 166.941406 122.328125 166.914062 122.375 166.855469 122.375 C 166.582031 122.375 166.144531 122.359375 165.542969 122.328125 C 164.964844 122.300781 164.542969 122.285156 164.269531 122.285156 C 163.9375 122.285156 163.527344 122.300781 163.039062 122.328125 C 162.550781 122.359375 162.183594 122.375 161.941406 122.375 C 161.882812 122.375 161.851562 122.328125 161.851562 122.242188 C 161.851562 122.15625 161.882812 122.113281 161.941406 122.113281 C 162.429688 122.113281 162.78125 122.066406 162.996094 121.972656 C 163.210938 121.878906 163.320312 121.710938 163.320312 121.46875 C 163.320312 121.222656 163.210938 120.882812 162.996094 120.453125 L 160.582031 115.445312 L 156.613281 115.445312 L 154.84375 119.523438 C 154.644531 120 154.542969 120.394531 154.542969 120.710938 C 154.542969 121.648438 155.238281 122.113281 156.632812 122.113281 C 156.707031 122.113281 156.742188 122.15625 156.742188 122.242188 C 156.742188 122.328125 156.707031 122.375 156.632812 122.375 C 156.375 122.375 156 122.359375 155.511719 122.328125 C 154.964844 122.300781 154.492188 122.285156 154.089844 122.285156 C 153.714844 122.285156 153.269531 122.300781 152.753906 122.328125 C 152.292969 122.359375 151.917969 122.375 151.628906 122.375 C 151.574219 122.375 151.542969 122.328125 151.542969 122.242188 C 151.542969 122.15625 151.574219 122.113281 151.628906 122.113281 C 152.035156 122.113281 152.375 122.035156 152.65625 121.878906 C 152.9375 121.71875 153.207031 121.445312 153.464844 121.058594 C 153.722656 120.667969 154.015625 120.09375 154.347656 119.332031 L 158.941406 108.738281 C 158.957031 108.695312 159.007812 108.667969 159.09375 108.660156 C 159.179688 108.652344 159.230469 108.679688 159.242188 108.738281 L 164.441406 119.417969 C 164.929688 120.46875 165.347656 121.179688 165.691406 121.554688 C 166.039062 121.925781 166.425781 122.113281 166.855469 122.113281 Z M 158.488281 111.066406 L 156.808594 114.949219 L 160.34375 114.949219 Z M 172.703125 122.113281 C 174.054688 120.863281 175.117188 119.828125 175.894531 119.007812 C 176.667969 118.1875 177.253906 117.433594 177.652344 116.742188 C 178.046875 116.050781 178.242188 115.390625 178.242188 114.757812 C 178.242188 114.09375 178.0625 113.550781 177.695312 113.128906 C 177.328125 112.703125 176.800781 112.492188 176.109375 112.492188 C 175.417969 112.492188 174.835938 112.730469 174.363281 113.214844 C 173.886719 113.695312 173.5 114.382812 173.199219 115.273438 C 173.199219 115.304688 173.167969 115.316406 173.109375 115.316406 C 173.066406 115.316406 173.023438 115.308594 172.980469 115.285156 C 172.9375 115.265625 172.925781 115.246094 172.9375 115.230469 L 173.824219 111.824219 C 173.824219 111.792969 173.851562 111.777344 173.910156 111.777344 C 173.953125 111.777344 173.992188 111.789062 174.027344 111.8125 C 174.0625 111.832031 174.074219 111.851562 174.058594 111.867188 C 174.046875 111.9375 174.039062 112.023438 174.039062 112.125 C 174.039062 112.382812 174.152344 112.511719 174.382812 112.511719 C 174.554688 112.511719 174.792969 112.457031 175.09375 112.339844 C 175.152344 112.324219 175.359375 112.269531 175.710938 112.167969 C 176.0625 112.066406 176.46875 112.015625 176.929688 112.015625 C 177.847656 112.015625 178.585938 112.261719 179.140625 112.75 C 179.691406 113.238281 179.96875 113.878906 179.96875 114.671875 C 179.96875 115.1875 179.832031 115.679688 179.558594 116.148438 C 179.285156 116.617188 178.921875 117.070312 178.46875 117.507812 C 178.019531 117.945312 177.359375 118.527344 176.496094 119.246094 L 174.535156 120.949219 C 174.433594 121.050781 174.460938 121.101562 174.621094 121.101562 C 176.546875 121.101562 177.871094 121.078125 178.589844 121.035156 C 179.308594 120.992188 179.804688 120.886719 180.078125 120.722656 C 180.351562 120.558594 180.542969 120.25 180.660156 119.804688 C 180.675781 119.761719 180.71875 119.746094 180.800781 119.75 C 180.878906 119.757812 180.917969 119.777344 180.917969 119.804688 L 180.660156 122.136719 C 180.660156 122.195312 180.640625 122.246094 180.605469 122.296875 C 180.570312 122.347656 180.523438 122.375 180.464844 122.375 L 172.851562 122.375 C 172.792969 122.375 172.75 122.34375 172.710938 122.285156 C 172.675781 122.230469 172.671875 122.171875 172.703125 122.113281 Z M 182.75 122.375 C 182.707031 122.375 182.6875 122.328125 182.6875 122.242188 C 182.6875 122.15625 182.707031 122.113281 182.75 122.113281 C 183.3125 122.113281 183.722656 122.074219 183.980469 121.996094 C 184.238281 121.917969 184.417969 121.777344 184.519531 121.574219 C 184.621094 121.375 184.671875 121.058594 184.671875 120.625 L 184.671875 114.777344 C 184.671875 114.289062 184.628906 113.9375 184.542969 113.722656 C 184.457031 113.503906 184.289062 113.398438 184.046875 113.398438 C 183.816406 113.398438 183.382812 113.535156 182.75 113.808594 L 182.707031 113.828125 C 182.652344 113.828125 182.609375 113.792969 182.578125 113.722656 C 182.550781 113.648438 182.566406 113.605469 182.621094 113.589844 L 186.007812 112.039062 L 186.050781 112.039062 C 186.09375 112.039062 186.128906 112.054688 186.160156 112.09375 C 186.1875 112.128906 186.203125 112.160156 186.203125 112.1875 L 186.203125 120.625 C 186.203125 121.070312 186.25 121.394531 186.34375 121.597656 C 186.4375 121.796875 186.617188 121.933594 186.882812 122.007812 C 187.148438 122.078125 187.566406 122.113281 188.144531 122.113281 C 188.171875 122.113281 188.1875 122.15625 188.1875 122.242188 C 188.1875 122.328125 188.171875 122.375 188.144531 122.375 C 187.667969 122.375 187.300781 122.367188 187.042969 122.351562 L 185.449219 122.328125 L 183.871094 122.351562 C 183.601562 122.367188 183.226562 122.375 182.75 122.375 Z M 198.410156 121.402344 C 198.464844 121.402344 198.496094 121.539062 198.496094 121.8125 C 198.496094 121.941406 198.484375 122.0625 198.460938 122.179688 C 198.441406 122.292969 198.417969 122.351562 198.386719 122.351562 L 197.847656 122.328125 C 197.386719 122.300781 197.019531 122.285156 196.75 122.285156 L 196.75 125.179688 C 196.75 125.335938 196.691406 125.4375 196.574219 125.480469 L 195.410156 126.0625 L 195.28125 126.105469 C 195.222656 126.105469 195.195312 126.046875 195.195312 125.933594 L 195.195312 122.242188 C 194.1875 122.214844 192.292969 122.199219 189.5 122.199219 C 189.429688 122.199219 189.375 122.171875 189.339844 122.113281 C 189.304688 122.058594 189.308594 122 189.351562 121.941406 L 196.382812 112.039062 C 196.425781 111.996094 196.476562 111.972656 196.53125 111.972656 C 196.589844 111.972656 196.640625 111.988281 196.683594 112.015625 C 196.726562 112.046875 196.75 112.082031 196.75 112.125 L 196.75 121.445312 Z M 190.625 121.53125 C 191.945312 121.53125 193.46875 121.515625 195.195312 121.488281 L 195.195312 114.714844 L 190.515625 121.378906 C 190.488281 121.425781 190.484375 121.460938 190.503906 121.488281 C 190.527344 121.515625 190.566406 121.53125 190.625 121.53125 Z M 190.625 121.53125 "/>
</g>
</g>
</svg>
