<svg version="1.1" preserveAspectRatio="none" xmlns="http://www.w3.org/2000/svg" width="500" height="500" viewBox="0 0 500 500"><rect width="100%" height="100%" fill="#F7F4F2" fill-opacity="1"/><svg viewBox="35.5065 74.3681 366.9961 259.8232" width="333" height="235.75489112827083" x="83.5px" y="132.1226px" xmlns="http://www.w3.org/2000/svg" xmlns:xlink="http://www.w3.org/1999/xlink" preserveAspectRatio="none"><defs></defs><style>.companyName {fill:#161616;fill-opacity:1;}.icon1 {fill:#161616;fill-opacity:1;}.icon2 {fill:#E5B7D2;fill-opacity:1;}.icon3 {fill:#848282;fill-opacity:1;}.icon3-str {stroke:#848282;stroke-opacity:1;}.text {fill:#161616;fill-opacity:1;}</style><g opacity="1" transform="rotate(0 142.5929 316.1913)">
<svg width="152.8233" height="18" x="142.5929" y="316.1913" version="1.1" preserveAspectRatio="none" viewBox="3.56 -29.2 251.28 29.6">
  <g transform="matrix(1 0 0 1 0 0)" class="text"><path id="id-6izo4zJp13" d="M6.36 0L3.56 0L3.56-28.40L15.32-28.40Q17.16-28.40 18.70-27.62Q20.24-26.84 21.36-25.58Q22.48-24.32 23.12-22.72Q23.76-21.12 23.76-19.48L23.76-19.48Q23.76-17.72 23.16-16.10Q22.56-14.48 21.48-13.24Q20.40-12 18.90-11.24Q17.40-10.48 15.56-10.48L15.56-10.48L6.36-10.48L6.36 0ZM6.36-25.92L6.36-12.96L15.44-12.96Q16.68-12.96 17.70-13.50Q18.72-14.04 19.44-14.94Q20.16-15.84 20.56-17.02Q20.96-18.20 20.96-19.48L20.96-19.48Q20.96-20.80 20.50-21.98Q20.04-23.16 19.26-24.04Q18.48-24.92 17.42-25.42Q16.36-25.92 15.20-25.92L15.20-25.92L6.36-25.92Z M32.20 0L29.48 0L29.48-20.84L32.20-20.84L32.20 0ZM32.20-25.20L29.48-25.20L29.48-29.20L32.20-29.20L32.20-25.20Z M48.80 0.40L48.80 0.40Q46.52 0.40 44.62-0.46Q42.72-1.32 41.32-2.82Q39.92-4.32 39.14-6.28Q38.36-8.24 38.36-10.48L38.36-10.48Q38.36-12.68 39.14-14.62Q39.92-16.56 41.30-18.02Q42.68-19.48 44.60-20.34Q46.52-21.20 48.76-21.20L48.76-21.20Q51.04-21.20 52.94-20.34Q54.84-19.48 56.20-18Q57.56-16.52 58.32-14.60Q59.08-12.68 59.08-10.52L59.08-10.52Q59.08-10.20 59.08-9.88Q59.08-9.56 59.04-9.44L59.04-9.44L41.20-9.44Q41.32-7.76 41.98-6.34Q42.64-4.92 43.68-3.88Q44.72-2.84 46.06-2.26Q47.40-1.68 48.92-1.68L48.92-1.68Q49.92-1.68 50.92-1.96Q51.92-2.24 52.76-2.72Q53.60-3.20 54.28-3.90Q54.96-4.60 55.32-5.44L55.32-5.44L57.68-4.80Q57.20-3.64 56.32-2.70Q55.44-1.76 54.28-1.06Q53.12-0.36 51.72 0.02Q50.32 0.40 48.80 0.40ZM41.16-11.52L56.48-11.52Q56.36-13.20 55.70-14.58Q55.04-15.96 54.02-16.96Q53-17.96 51.66-18.52Q50.32-19.08 48.80-19.08L48.80-19.08Q47.28-19.08 45.92-18.52Q44.56-17.96 43.54-16.96Q42.52-15.96 41.90-14.56Q41.28-13.16 41.16-11.52L41.16-11.52Z M82.40-12.20L82.40 0L79.68 0L79.68-11.64Q79.68-15.36 78.58-17.04Q77.48-18.72 75.20-18.72L75.20-18.72Q74-18.72 72.80-18.28Q71.60-17.84 70.58-17.04Q69.56-16.24 68.76-15.14Q67.96-14.04 67.60-12.76L67.60-12.76L67.60 0L64.88 0L64.88-20.84L67.36-20.84L67.36-16.12Q68.64-18.40 71.02-19.80Q73.40-21.20 76.20-21.20L76.20-21.20Q77.92-21.20 79.12-20.56Q80.32-19.92 81.04-18.76Q81.76-17.60 82.08-15.92Q82.40-14.24 82.40-12.20L82.40-12.20Z M98.80 0.40L98.80 0.40Q96.52 0.40 94.62-0.46Q92.72-1.32 91.32-2.82Q89.92-4.32 89.14-6.28Q88.36-8.24 88.36-10.48L88.36-10.48Q88.36-12.68 89.14-14.62Q89.92-16.56 91.30-18.02Q92.68-19.48 94.60-20.34Q96.52-21.20 98.76-21.20L98.76-21.20Q101.04-21.20 102.94-20.34Q104.84-19.48 106.20-18Q107.56-16.52 108.32-14.60Q109.08-12.68 109.08-10.52L109.08-10.52Q109.08-10.20 109.08-9.88Q109.08-9.56 109.04-9.44L109.04-9.44L91.20-9.44Q91.32-7.76 91.98-6.34Q92.64-4.92 93.68-3.88Q94.72-2.84 96.06-2.26Q97.40-1.68 98.92-1.68L98.92-1.68Q99.92-1.68 100.92-1.96Q101.92-2.24 102.76-2.72Q103.60-3.20 104.28-3.90Q104.96-4.60 105.32-5.44L105.32-5.44L107.68-4.80Q107.20-3.64 106.32-2.70Q105.44-1.76 104.28-1.06Q103.12-0.36 101.72 0.02Q100.32 0.40 98.80 0.40ZM91.16-11.52L106.48-11.52Q106.36-13.20 105.70-14.58Q105.04-15.96 104.02-16.96Q103-17.96 101.66-18.52Q100.32-19.08 98.80-19.08L98.80-19.08Q97.28-19.08 95.92-18.52Q94.56-17.96 93.54-16.96Q92.52-15.96 91.90-14.56Q91.28-13.16 91.16-11.52L91.16-11.52Z M135.24 0.40L135.24 0.40Q133.08 0.40 131.24-0.50Q129.40-1.40 128.08-2.88Q126.76-4.36 126.02-6.30Q125.28-8.24 125.28-10.36L125.28-10.36Q125.28-12.56 126.00-14.54Q126.72-16.52 127.98-18Q129.24-19.48 130.98-20.34Q132.72-21.20 134.80-21.20L134.80-21.20Q137.44-21.20 139.48-19.82Q141.52-18.44 142.68-16.48L142.68-16.48L142.68-29.20L145.40-29.20L145.40-3.52Q145.40-2.40 146.36-2.40L146.36-2.40L146.36 0Q145.76 0.12 145.40 0.12L145.40 0.12Q144.44 0.12 143.72-0.50Q143-1.12 143-2L143-2L143-4.04Q141.76-2 139.64-0.80Q137.52 0.40 135.24 0.40ZM135.84-2L135.84-2Q136.84-2 137.98-2.40Q139.12-2.80 140.12-3.50Q141.12-4.20 141.82-5.14Q142.52-6.08 142.68-7.16L142.68-7.16L142.68-13.60Q142.28-14.68 141.52-15.62Q140.76-16.56 139.78-17.28Q138.80-18 137.68-18.40Q136.56-18.80 135.48-18.80L135.48-18.80Q133.80-18.80 132.44-18.08Q131.08-17.36 130.10-16.18Q129.12-15 128.60-13.48Q128.08-11.96 128.08-10.36L128.08-10.36Q128.08-8.68 128.68-7.16Q129.28-5.64 130.32-4.50Q131.36-3.36 132.78-2.68Q134.20-2 135.84-2Z M162.04 0.40L162.04 0.40Q159.76 0.40 157.88-0.46Q156-1.32 154.62-2.80Q153.24-4.28 152.48-6.24Q151.72-8.20 151.72-10.36L151.72-10.36Q151.72-12.56 152.50-14.52Q153.28-16.48 154.66-17.96Q156.04-19.44 157.92-20.32Q159.80-21.20 162.04-21.20L162.04-21.20Q164.28-21.20 166.18-20.32Q168.08-19.44 169.46-17.96Q170.84-16.48 171.62-14.52Q172.40-12.56 172.40-10.36L172.40-10.36Q172.40-8.20 171.64-6.24Q170.88-4.28 169.50-2.80Q168.12-1.32 166.22-0.46Q164.32 0.40 162.04 0.40ZM154.48-10.32L154.48-10.32Q154.48-8.56 155.08-7.06Q155.68-5.56 156.70-4.42Q157.72-3.28 159.10-2.64Q160.48-2 162.04-2L162.04-2Q163.60-2 164.98-2.66Q166.36-3.32 167.40-4.46Q168.44-5.60 169.04-7.12Q169.64-8.64 169.64-10.40L169.64-10.40Q169.64-12.12 169.04-13.66Q168.44-15.20 167.40-16.34Q166.36-17.48 164.98-18.14Q163.60-18.80 162.04-18.80L162.04-18.80Q160.48-18.80 159.12-18.14Q157.76-17.48 156.72-16.32Q155.68-15.16 155.08-13.62Q154.48-12.08 154.48-10.32Z M188.60 0L188.60-1.84L202.68-18.80L188.92-18.80L188.92-20.84L205.64-20.84L205.64-19L191.60-2.04L205.60-2.04L205.60 0L188.60 0Z M219.96 0.40L219.96 0.40Q217.68 0.40 215.80-0.46Q213.92-1.32 212.54-2.80Q211.16-4.28 210.40-6.24Q209.64-8.20 209.64-10.36L209.64-10.36Q209.64-12.56 210.42-14.52Q211.20-16.48 212.58-17.96Q213.96-19.44 215.84-20.32Q217.72-21.20 219.96-21.20L219.96-21.20Q222.20-21.20 224.10-20.32Q226-19.44 227.38-17.96Q228.76-16.48 229.54-14.52Q230.32-12.56 230.32-10.36L230.32-10.36Q230.32-8.20 229.56-6.24Q228.80-4.28 227.42-2.80Q226.04-1.32 224.14-0.46Q222.24 0.40 219.96 0.40ZM212.40-10.32L212.40-10.32Q212.40-8.56 213.00-7.06Q213.60-5.56 214.62-4.42Q215.64-3.28 217.02-2.64Q218.40-2 219.96-2L219.96-2Q221.52-2 222.90-2.66Q224.28-3.32 225.32-4.46Q226.36-5.60 226.96-7.12Q227.56-8.64 227.56-10.40L227.56-10.40Q227.56-12.12 226.96-13.66Q226.36-15.20 225.32-16.34Q224.28-17.48 222.90-18.14Q221.52-18.80 219.96-18.80L219.96-18.80Q218.40-18.80 217.04-18.14Q215.68-17.48 214.64-16.32Q213.60-15.16 213.00-13.62Q212.40-12.08 212.40-10.32Z M246.88-20.92L246.88-18.44Q244.12-18.36 242.08-16.92Q240.04-15.48 239.20-12.96L239.20-12.96L239.20 0L236.48 0L236.48-20.84L239.04-20.84L239.04-15.84Q240.20-18.24 242.16-19.60Q244.12-20.96 246.36-20.96L246.36-20.96Q246.68-20.96 246.88-20.92L246.88-20.92Z M254.84 0L252.12 0L252.12-20.84L254.84-20.84L254.84 0ZM254.84-25.20L252.12-25.20L252.12-29.20L254.84-29.20L254.84-25.20Z"/></g>
</svg>
</g><g opacity="1" transform="rotate(0 35.5065 238.1913)">
<svg width="366.9961" height="60" x="35.5065" y="238.1913" version="1.1" preserveAspectRatio="none" viewBox="5.8594 -28.5937 184.4531 30.1562">
  <g transform="matrix(1 0 0 1 0 0)" class="companyName"><path id="id-D6z1nYkh13" d="M9.39-19.14L9.39-19.14L8.98-19.20L8.91-19.20Q8.42-19.20 7.90-19.59Q7.38-19.98 7.38-20.98Q7.38-21.97 8.47-23.24Q9.55-24.51 11.41-25.58Q13.26-26.64 16.03-27.32Q18.79-28.01 21.86-28.01L21.86-28.01Q28.13-28.01 31.65-25.54Q35.18-23.07 35.18-19.12L35.18-19.12Q35.18-16.66 34.08-14.20Q32.99-11.74 31.15-9.66Q29.32-7.58 26.84-5.77Q24.36-3.96 21.64-2.70L21.64-2.70Q15.78 0 10.43 0L10.43 0Q7.79 0 7.11-0.43L7.11-0.43Q6.86-0.57 6.61-0.85Q6.37-1.13 6.23-1.23L6.23-1.23Q5.86-1.46 5.86-2.24Q5.86-3.01 6.02-3.63L6.02-3.63Q6.60-5.72 11.28-12.71Q15.96-19.69 19.10-23.96L19.10-23.96Q19.32-24.26 21.31-24.39L21.31-24.39Q22.13-24.39 22.44-24.28Q22.75-24.16 22.75-23.86Q22.75-23.55 21.74-22.14Q20.72-20.72 15.21-12.24Q9.71-3.75 9.71-3.52Q9.71-3.28 11.44-3.28Q13.16-3.28 15.69-4.01Q18.22-4.75 20.45-5.94Q22.68-7.13 24.71-8.70Q26.74-10.27 28.18-11.91L28.18-11.91Q31.35-15.51 31.35-18.30Q31.35-21.09 28.80-23.05Q26.25-25 21.82-25L21.82-25Q18.83-25 16.17-24.00Q13.52-23.01 12.52-22.23Q11.52-21.45 11.52-21.17L11.52-21.17Q11.52-21.02 11.76-21.02L11.76-21.02L12.60-21.17Q12.77-21.17 12.77-21.09Q12.77-21.02 12.44-20.82Q12.11-20.63 11.90-20.40Q11.70-20.18 10.88-19.68Q10.06-19.18 9.39-19.14Z M45.31-21.45L45.31-21.45Q45.31-20.33 44.28-19.21Q43.24-18.09 42.12-18.09Q41.00-18.09 41.00-19.26Q41.00-20.43 41.98-21.49Q42.97-22.56 44.16-22.56L44.16-22.56Q44.69-22.56 45-22.27Q45.31-21.97 45.31-21.45ZM42.15-4.39L42.15-4.39Q42.15-3.81 42.03-3.55L42.03-3.55Q41.07-1.60 38.98-0.40Q36.89 0.80 35.35 0.80Q33.81 0.80 32.70-0.23Q31.58-1.27 31.58-2.34Q31.58-3.42 32.66-5.47Q33.73-7.52 34.80-9.26Q35.88-11.00 35.88-11.14Q35.88-11.29 35.48-11.72Q35.08-12.15 35.08-12.35Q35.08-12.56 35.89-13.43Q36.70-14.30 37.86-15.15Q39.02-16.00 39.64-16.00Q40.25-16.00 40.74-15.45Q41.23-14.90 41.23-14.45Q41.23-14.00 36.58-6.00L36.58-6.00Q36.52-5.88 36.26-5.48Q36.00-5.08 35.85-4.81Q35.70-4.55 35.51-4.18L35.51-4.18Q35.12-3.40 35.12-2.87L35.12-2.87Q35.12-2.21 36.02-2.21Q36.91-2.21 37.88-2.82Q38.85-3.44 39.55-4.18L39.55-4.18Q41.39-6.15 41.64-6.15L41.64-6.15Q42.15-6.15 42.15-4.39Z M42.85-3.91L42.85-3.91L42.83-3.59Q42.83-3.11 43.20-2.75Q43.57-2.40 43.89-2.40L43.89-2.40Q46.23-2.40 48.04-3.11Q49.84-3.81 49.84-4.51L49.84-4.51Q49.84-4.84 49.19-5.09Q48.54-5.33 46.98-5.69Q45.43-6.05 44.73-6.26Q44.02-6.46 43.61-6.64Q43.20-6.82 42.77-7.13L42.77-7.13Q41.86-7.77 41.86-9.05Q41.86-10.33 42.80-11.59Q43.75-12.85 45.18-13.75Q46.60-14.65 48.24-15.33L48.24-15.33Q51.48-16.68 53.69-16.68L53.69-16.68Q55.86-16.68 56.37-15.74L56.37-15.74Q56.52-15.41 56.52-15L56.52-15L56.52-14.86Q56.52-13.83 56.08-13.24Q55.64-12.66 54.70-12.19Q53.75-11.72 53.19-11.72Q52.64-11.72 52.49-11.80Q52.34-11.88 52.25-12.00Q52.15-12.13 52.00-12.19Q51.86-12.25 51.86-12.48Q51.86-12.71 52.05-12.96Q52.25-13.20 52.32-13.48L52.32-13.48Q51.04-13.42 49.63-12.88Q48.22-12.34 47.22-11.68Q46.21-11.02 45.55-10.41Q44.88-9.80 44.88-9.52Q44.88-9.24 45.78-9.06L45.78-9.06Q49.82-8.26 51.09-7.68Q52.36-7.09 52.85-6.35Q53.34-5.61 53.34-5L53.34-5Q53.34-3.75 52.34-2.64Q51.35-1.52 49.88-0.82L49.88-0.82Q46.74 0.72 44.40 0.72Q42.07 0.72 41.18 0.01Q40.29-0.70 40.29-1.68Q40.29-2.66 40.79-3.49Q41.29-4.32 42.07-4.32Q42.85-4.32 42.85-3.91Z M55.72 0.47L55.72 0.47L54.47 0.20Q53.91 0.14 53.54-0.53L53.54-0.53Q53.44-0.70 53.41-0.74Q53.38-0.78 53.38-0.84Q53.38-0.90 53.42-1.01Q53.46-1.11 53.54-1.30Q53.61-1.48 53.67-1.68L53.67-1.68Q54.08-3.07 60.53-14.73Q66.97-26.39 67.28-26.75Q67.58-27.11 67.72-27.28Q67.87-27.44 68.06-27.56Q68.24-27.68 68.33-27.71Q68.42-27.75 68.68-27.84Q68.95-27.93 69.23-28.03Q69.51-28.13 69.82-28.29Q70.14-28.46 70.25-28.53Q70.37-28.59 70.56-28.59Q70.74-28.59 70.91-28.42Q71.07-28.24 71.07-27.97L71.07-27.97L71.07-27.83Q70.98-27.46 65.99-18.57Q61.00-9.69 60.55-8.85L60.55-8.85Q62.07-9.45 65.04-11.84Q68.01-14.22 68.04-15Q68.07-15.78 68.57-16.13Q69.08-16.48 69.68-16.48Q70.27-16.48 70.69-16.08Q71.11-15.68 71.09-14.78Q71.07-13.87 70.08-12.47Q69.08-11.07 67.70-9.88L67.70-9.88Q64.71-7.34 62.71-6.52L62.71-6.52Q64.30-2.25 66.35-2.25L66.35-2.25Q67.46-2.40 69.08-4.06L69.08-4.06Q69.69-4.67 70.25-5.28Q70.82-5.90 70.95-6.02Q71.07-6.13 71.31-6.13L71.31-6.13Q71.68-6.13 71.76-5.57Q71.84-5 71.84-4.39Q71.84-3.79 71.72-3.55L71.72-3.55Q71.15-2.46 69.24-0.89Q67.32 0.68 65.61 0.68L65.61 0.68Q64.38 0.68 63.65 0.21Q62.93-0.25 62.52-0.57Q62.11-0.88 61.68-1.42Q61.25-1.95 60.97-2.30Q60.68-2.66 60.32-3.28Q59.96-3.91 59.80-4.17Q59.65-4.43 59.35-5.03Q59.04-5.63 59.00-5.68L59.00-5.68Q58.65-4.96 58.22-4.12Q57.79-3.28 57.44-2.56Q57.09-1.84 56.80-1.24Q56.50-0.64 56.32-0.25Q56.13 0.14 56.11 0.16L56.11 0.16Q55.98 0.47 55.72 0.47Z M83.38-14.88Q83.96-14.88 84.58-14.36Q85.20-13.83 85.20-12.74Q85.20-11.66 84.43-9.93Q83.67-8.20 82.34-6.42Q81.02-4.63 79.42-3.06Q77.83-1.48 75.99-0.48Q74.14 0.53 72.64 0.53Q71.13 0.53 70.22-0.42Q69.32-1.37 69.32-3.06Q69.32-4.75 70.15-6.80Q70.98-8.85 72.29-10.42Q73.59-11.99 75.12-13.24L75.12-13.24Q78.30-15.80 80.70-15.80L80.70-15.80Q81.78-15.80 82.32-15.27L82.32-15.27Q82.52-15.10 82.52-14.96L82.52-14.96L82.52-14.84Q82.79-14.88 83.38-14.88ZM81.41-12.29L81.41-12.29L81.27-12.29Q80.59-12.29 80.59-13.28L80.59-13.28Q79.16-12.81 77.60-11.64Q76.04-10.47 74.80-8.87L74.80-8.87Q72.30-5.66 72.27-3.46L72.27-3.46Q72.27-2.36 73.07-2.36Q73.87-2.36 75.45-3.42Q77.03-4.47 78.58-6.43Q80.14-8.38 80.91-9.81Q81.68-11.25 81.68-11.77Q81.68-12.29 81.41-12.29Z M97.29-25.04L98.20-25.16L99.00-24.96Q99.18-24.96 99.32-24.79Q99.45-24.61 99.45-24.45Q99.45-24.30 99.04-23.61Q98.63-22.93 98.08-22.06Q97.52-21.19 97.48-21.11L97.48-21.11Q99.00-21.23 99.64-21.23Q100.27-21.23 100.51-21.14Q100.74-21.05 101.04-20.65Q101.35-20.25 101.60-20.05Q101.86-19.84 101.86-19.43Q101.86-19.02 101.36-18.74Q100.86-18.46 100.29-18.40L100.29-18.40Q95.76-17.95 95.29-17.93L95.29-17.93Q93.71-15.51 90.87-10.38Q88.03-5.25 87.85-3.96L87.85-3.96Q87.77-3.38 87.77-3.01L87.77-3.01Q87.77-2.25 88.57-2.25Q89.38-2.25 90.35-2.86Q91.33-3.48 92.15-4.20L92.15-4.20Q94.34-6.15 94.49-6.15L94.49-6.15Q95-6.15 95-4.39L95-4.39Q95-3.44 94.12-2.68L94.12-2.68Q92.15-0.98 90.80-0.12Q89.45 0.74 88.11 0.74L88.11 0.74Q87.81 0.74 87.56 0.68L87.56 0.68Q86.00 0.39 85.26-0.46Q84.53-1.31 84.54-2.75Q84.55-4.20 85.40-6.26Q86.25-8.32 87.54-10.64L87.54-10.64Q89.65-14.43 91.76-17.75L91.76-17.75L91.02-17.66Q88.75-17.40 88.38-17.40L88.38-17.40L88.20-17.40Q87.64-17.40 87.11-17.63Q86.58-17.85 86.58-18.18Q86.58-18.52 86.87-18.83Q87.15-19.14 87.21-19.32L87.21-19.32Q87.34-19.75 88.23-20.27Q89.12-20.80 89.57-20.83Q90.02-20.86 90.44-20.88Q90.86-20.90 91.38-20.92Q91.89-20.94 92.17-20.96L92.17-20.96L93.93-21.04Q95.57-23.50 96.18-24.20Q96.80-24.90 96.89-24.97Q96.99-25.04 97.29-25.04L97.29-25.04Z M106.80-14.61L106.80-14.61Q106.80-13.32 105.75-12.34Q104.71-11.37 103.38-11.37L103.38-11.37Q102.95-11.37 102.81-11.57Q102.68-11.78 102.68-12.11Q102.68-12.44 102.75-12.75L102.75-12.75Q102.05-12.52 101.19-12.03Q100.33-11.54 99.08-10.59Q97.83-9.63 97.83-9.16L97.83-9.16Q97.83-9.00 98.29-9.00Q98.75-9.00 99.71-9.33Q100.66-9.65 101.04-9.65Q101.43-9.65 101.54-9.61L101.54-9.61Q101.80-9.47 102.09-9.01Q102.38-8.55 102.38-8.29Q102.38-8.03 101.88-7.60Q101.37-7.17 100.72-6.94Q100.08-6.72 99.86-6.60L99.86-6.60Q95.74-4.30 95.74-3.44L95.74-3.44Q95.74-1.91 98.34-1.91L98.34-1.91Q100-1.91 101.68-2.97L101.68-2.97Q103.11-3.87 104.25-4.79Q105.39-5.72 105.69-5.94Q106.00-6.15 106.15-6.15L106.15-6.15Q106.66-6.15 106.66-5.02Q106.66-3.89 106.52-3.53Q106.39-3.16 105.74-2.64L105.74-2.64Q101.56 0.76 97.83 0.76L97.83 0.76Q95.84 0.76 94.65 0.21L94.65 0.21Q92.46-0.78 92.46-2.83L92.46-2.83Q92.46-5.53 96.19-6.91L96.19-6.91Q95.45-7.25 95.23-7.76Q95.02-8.28 95.02-9.42Q95.02-10.57 96.08-11.85Q97.15-13.13 98.69-13.95L98.69-13.95Q102.13-15.80 104.82-15.80L104.82-15.80Q105.47-15.80 106.13-15.49Q106.80-15.18 106.80-14.61Z M106.37 0.47L106.37 0.47L105.12 0.20Q104.55 0.14 104.18-0.53L104.18-0.53Q104.08-0.70 104.05-0.74Q104.02-0.78 104.02-0.84Q104.02-0.90 104.06-1.01Q104.10-1.11 104.18-1.30Q104.26-1.48 104.32-1.68L104.32-1.68Q104.73-3.07 111.17-14.73Q117.62-26.39 117.92-26.75Q118.22-27.11 118.37-27.28Q118.52-27.44 118.70-27.56Q118.89-27.68 118.97-27.71Q119.06-27.75 119.33-27.84Q119.59-27.93 119.87-28.03Q120.16-28.13 120.47-28.29Q120.78-28.46 120.90-28.53Q121.02-28.59 121.20-28.59Q121.39-28.59 121.55-28.42Q121.72-28.24 121.72-27.97L121.72-27.97L121.72-27.83Q121.62-27.46 116.63-18.57Q111.64-9.69 111.19-8.85L111.19-8.85Q112.71-9.45 115.68-11.84Q118.65-14.22 118.68-15Q118.71-15.78 119.22-16.13Q119.73-16.48 120.32-16.48Q120.92-16.48 121.34-16.08Q121.76-15.68 121.74-14.78Q121.72-13.87 120.72-12.47Q119.73-11.07 118.34-9.88L118.34-9.88Q115.35-7.34 113.36-6.52L113.36-6.52Q114.94-2.25 116.99-2.25L116.99-2.25Q118.11-2.40 119.73-4.06L119.73-4.06Q120.33-4.67 120.90-5.28Q121.46-5.90 121.59-6.02Q121.72-6.13 121.95-6.13L121.95-6.13Q122.32-6.13 122.40-5.57Q122.48-5 122.48-4.39Q122.48-3.79 122.36-3.55L122.36-3.55Q121.80-2.46 119.88-0.89Q117.97 0.68 116.25 0.68L116.25 0.68Q115.02 0.68 114.30 0.21Q113.57-0.25 113.16-0.57Q112.75-0.88 112.32-1.42Q111.89-1.95 111.61-2.30Q111.33-2.66 110.97-3.28Q110.61-3.91 110.45-4.17Q110.29-4.43 109.99-5.03Q109.69-5.63 109.65-5.68L109.65-5.68Q109.30-4.96 108.87-4.12Q108.44-3.28 108.09-2.56Q107.73-1.84 107.44-1.24Q107.15-0.64 106.96-0.25Q106.78 0.14 106.76 0.16L106.76 0.16Q106.62 0.47 106.37 0.47Z M135.66-14.84L135.66-14.84Q137.15-14.84 137.15-13.83L137.15-13.83Q137.15-13.28 136.89-13.03Q136.64-12.77 135.81-11.34Q134.98-9.90 133.97-7.67Q132.97-5.43 132.68-3.85L132.68-3.85Q132.62-3.65 132.62-3.30L132.62-3.30Q132.62-2.23 133.20-2.23Q133.79-2.23 134.59-2.78Q135.39-3.34 136.02-3.97Q136.64-4.61 137.24-5.27Q137.83-5.94 137.95-6.04Q138.07-6.13 138.30-6.13L138.30-6.13Q138.67-6.13 138.75-5.57Q138.83-5 138.83-4.39Q138.83-3.79 138.71-3.55L138.71-3.55Q138.14-2.44 136.22-0.88Q134.30 0.68 132.72 0.68Q131.15 0.68 130.41-0.27Q129.67-1.23 129.67-2.39Q129.67-3.55 130.06-4.43L130.06-4.43Q128.44-2.32 126.34-0.86Q124.24 0.61 122.91 0.61Q121.58 0.61 120.74-0.20L120.74-0.20Q119.67-1.19 119.67-2.96Q119.67-4.73 120.46-6.51Q121.25-8.30 122.54-9.78Q123.83-11.25 125.37-12.46L125.37-12.46Q128.61-15 131.35-15L131.35-15Q132.40-15 133.07-14.65Q133.73-14.30 133.91-13.77L133.91-13.77Q134.38-14.47 134.70-14.66Q135.02-14.84 135.66-14.84ZM133.07-12.68L133.07-12.68Q129.73-12.68 126.15-8.96L126.15-8.96Q124.88-7.64 123.82-5.78Q122.75-3.93 122.75-3.24Q122.75-2.56 123.14-2.56L123.14-2.56Q123.69-2.56 126.19-4.72Q128.69-6.88 129.51-7.89L129.51-7.89Q130.41-9.02 133.07-12.68Z M149.36-3.20L149.36-3.20Q154.39-4.20 156.35-4.20L156.35-4.20Q157.07-4.20 157.17-3.75L157.17-3.75Q157.21-3.57 157.36-3.49Q157.52-3.40 157.69-2.71Q157.85-2.03 157.87-1.60L157.87-1.60L157.87-1.43Q157.87-0.74 157.36-0.64L157.36-0.64Q155.49-0.25 151.26 0.06Q147.03 0.37 146.23 0.49L146.23 0.49Q145.82 0.49 144.92 0.04L144.92 0.04Q144.75-0.14 144.54-0.59Q144.34-1.04 144.34-1.37Q144.34-1.70 144.71-2.44L144.71-2.44Q144.77-2.58 147.15-5.20L147.15-5.20Q147.73-5.82 150.21-8.00Q152.68-10.18 153.64-11.26Q154.61-12.34 157.03-14.86Q159.45-17.38 160.63-18.78Q161.80-20.18 161.80-20.76L161.80-20.76Q161.80-21.13 161.23-21.13Q160.66-21.13 159.85-20.79Q159.04-20.45 157.97-19.77L157.97-19.77Q155.45-18.14 153.13-14.88L153.13-14.88Q153.01-14.79 153.01-14.47L153.01-14.47Q152.85-14.08 152.34-13.83Q151.84-13.57 151.52-13.57Q151.21-13.57 150.73-13.78Q150.25-13.98 150.02-14.20Q149.79-14.41 149.79-15.02Q149.79-15.63 150.47-16.75Q151.15-17.87 152.38-19.13Q153.61-20.39 155.13-21.51Q156.64-22.64 158.52-23.38Q160.39-24.12 161.70-24.12Q163.01-24.12 163.63-23.55L163.63-23.55Q164.79-22.50 164.79-21.21Q164.79-19.92 163.56-18.05Q162.34-16.17 160.25-13.93Q158.16-11.68 156.31-9.84Q154.45-8.01 152.19-5.89Q149.92-3.77 149.36-3.20Z M168.52-11.64L168.52-11.64Q162.44-1.62 161.86 0.08L161.86 0.08Q161.86 0.16 161.27 0.32Q160.68 0.49 160.54 0.49Q160.39 0.49 160.29 0.31L160.29 0.31Q159.84-0.51 159.63-0.76Q159.41-1.02 159.21-1.13Q159.00-1.25 159.00-1.29L159.00-1.29Q159.00-1.76 163.05-8.49Q167.09-15.21 169.51-18.63L169.51-18.63Q168.81-18.14 168.23-17.68Q167.66-17.21 167.53-17.21Q167.40-17.21 167.32-17.37Q167.25-17.54 167.19-17.77Q167.13-18.01 166.99-18.21Q166.86-18.42 166.88-18.56Q166.89-18.71 167.03-19.06Q167.17-19.41 168.51-20.64Q169.84-21.88 171.38-22.98Q172.91-24.08 173.44-24.08Q173.96-24.08 174.55-23.47Q175.14-22.85 175.14-22.30L175.14-22.30Q175.12-22.07 172.49-17.96Q169.86-13.85 168.52-11.64Z M190.27-22.75L190.27-22.75Q186.13-16.39 183.52-11.68L183.52-11.68Q187.58-12.09 187.98-12.09Q188.38-12.09 188.38-11.90Q188.38-11.72 187.39-10.29Q186.41-8.87 185.90-8.63L185.90-8.63Q185.25-8.50 181.56-8.16L181.56-8.16Q179.30-4.16 176.84 0.39L176.84 0.39Q176.58 0.98 174.77 1.31L174.77 1.31Q174.00 1.45 173.75 1.56L173.75 1.56Q173.54 1.56 173.28 1.32Q173.03 1.07 173.01 0.84L173.01 0.84Q173.89-1.04 177.81-7.87L177.81-7.87Q171.76-7.44 171.46-7.44L171.46-7.44Q170.82-7.44 170.82-9.10L170.82-9.10Q170.82-9.88 170.94-10.16L170.94-10.16Q171.64-11.80 175.52-15.25Q179.39-18.71 183.33-21.52Q187.27-24.34 188.34-24.51L188.34-24.51Q188.36-24.51 188.50-24.46Q188.63-24.41 189.00-24.29Q189.38-24.16 189.71-24.04L189.71-24.04Q189.82-23.96 189.94-23.70Q190.06-23.44 190.16-23.40L190.16-23.40Q190.31-23.09 190.31-22.94Q190.31-22.79 190.27-22.75ZM174.49-10.45L174.49-10.45Q176.86-10.90 179.80-11.29L179.80-11.29Q182.52-15.88 185.90-20.64L185.90-20.64Q183.83-18.93 179.51-15Q175.20-11.07 174.49-10.45Z"/></g>
</svg>
</g><g opacity="1" transform="rotate(0 145.6053 74.3681)">
<svg width="146.7985" height="133.8232" x="145.6053" y="74.3681" version="1.1" preserveAspectRatio="none" viewBox="36.00425338745117 29.99782943725586 147.00567626953125 134.0121612548828">
  <g transform="matrix(1 0 0 1 0 0)"><g><path d="M69.33 101.23v14.41c0 2.69-2.94 4.47-5.56 3.86a22.7 22.7 0 0 0-5.12-.58c-12.46-.01-22.55 10.09-22.55 22.54s10.09 22.55 22.55 22.55 22.55-10.1 22.55-22.55v-38.78c17.07 1.29 35.39-.52 52.22-4.34v6.62c0 2.69-2.94 4.47-5.56 3.86a22.7 22.7 0 0 0-5.12-.58c-12.45 0-22.55 10.1-22.55 22.55 0 12.45 10.09 22.55 22.55 22.55s22.55-10.1 22.55-22.55V95.24c7.28-2.16 14.11-4.68 20.22-7.47 32.08-16.24 15.31-33.72-12.29-36.93l-.04.05c-1.39-.26-1.82 1.97-.39 2.18 8.87 1.93 19.93 4.35 25.49 11.85 4.71 8.85-7.89 15.37-14.82 18.63-4.73 2.22-10.99 4.29-18.18 6.07V33.56c0-2.4-2.33-4.11-4.62-3.4L73.99 51C54.7 56.58 19.21 74.59 45.16 93.65c7.23 3.6 15.43 6.07 24.17 7.58Zm0-36.43c-11.36 3.75-24.96 9.93-22.64 17.23 5.05 5.22 13.05 8.69 22.64 10.8V64.8Zm64.08 27.32V66.93c0-2.4-2.33-4.11-4.62-3.4l-45.1 14.09c-1.49.46-2.5 1.84-2.5 3.4v13.65c16.58 1.69 35.73.38 52.22-2.55Z" clip-rule="evenodd" fill-rule="evenodd" data-color="1" class="icon1"></path></g></g>
</svg>
</g></svg></svg>