<svg version="1.1" preserveAspectRatio="none" xmlns="http://www.w3.org/2000/svg" width="500" height="500" viewBox="0 0 500 500"><rect width="100%" height="100%" fill="#0C0C0C" fill-opacity="1"/><svg viewBox="-81.1589 91.5065 397.5528 69" width="333" height="57.796096518500185" x="83.5px" y="221.102px" xmlns="http://www.w3.org/2000/svg" xmlns:xlink="http://www.w3.org/1999/xlink" preserveAspectRatio="none"><defs></defs><style>.background-floo {flood-color:#0C0C0C;flood-opacity:1;}.companyName {fill:#3A3AC6;fill-opacity:1;}.icon1 {fill:#F1F1F1;fill-opacity:1;}.icon3-str {stroke:#F1F1F1;stroke-opacity:1;}</style><defs>
      <filter
        x="-10.5264"
        y="120.4983"
        width="255.2837"
        height="40.0082"
        id="gMiGyJc9Q"
        filterUnits="userSpaceOnUse"
        primitiveUnits="userSpaceOnUse"
        color-interpolation-filters="sRGB">
        
    <feGaussianBlur in="SourceGraphic" stdDeviation="0"/>
    <feOffset dx="-1.0041204080946162" dy="-2.0082408161892324" result="a0-kT-H4YHP"/>
    <feFlood flood-color="#0C0C0C" flood-opacity="1" in="a0-kT-H4YHP" />
    <feComposite  in2="a0-kT-H4YHP" operator="in" result="wr-ePZzjXS"/><feMerge result="RZGb-7n0o2"><feMergeNode in="wr-ePZzjXS" /><feMergeNode in="SourceGraphic" /></feMerge>
      </filter></defs><g opacity="1" transform="rotate(0 -81.1589 91.5065)">
<svg width="397.5528" height="38" x="-81.1589" y="91.5065" version="1.1" preserveAspectRatio="none" viewBox="2 -29.08 307.16 29.359999999999996">
  <g transform="matrix(1 0 0 1 0 0)" class="companyName"><path id="id-D6z1nYkh13" d="M28.52-14.24Q28.52-10.20 26.72-6.96Q24.92-3.72 21.58-1.86Q18.24 0 13.80 0L13.80 0L2 0L2-28.32L13.80-28.32Q18.24-28.32 21.58-26.52Q24.92-24.72 26.72-21.52Q28.52-18.32 28.52-14.24L28.52-14.24ZM13-7.92Q16-7.92 17.76-9.56Q19.52-11.20 19.52-14.24L19.52-14.24Q19.52-17.28 17.76-18.92Q16-20.56 13-20.56L13-20.56L10.88-20.56L10.88-7.92L13-7.92Z M31.72-28.32L40.60-28.32L40.60 0L31.72 0L31.72-28.32Z M66.48-8.36Q66.48-5.92 65.22-3.96Q63.96-2 61.56-0.86Q59.16 0.28 55.84 0.28L55.84 0.28Q50.76 0.28 47.46-2.10Q44.16-4.48 43.88-9.08L43.88-9.08L53.32-9.08Q53.52-6.64 55.48-6.64L55.48-6.64Q56.16-6.64 56.58-7Q57-7.36 57-8.04L57-8.04Q57-9.04 55.98-9.62Q54.96-10.20 52.68-10.96L52.68-10.96Q50-11.84 48.22-12.76Q46.44-13.68 45.12-15.48Q43.80-17.28 43.80-20.16L43.80-20.16Q43.80-22.92 45.22-24.86Q46.64-26.80 49.10-27.80Q51.56-28.80 54.64-28.80L54.64-28.80Q59.72-28.80 62.72-26.44Q65.72-24.08 66-19.64L66-19.64L56.44-19.64Q56.24-21.88 54.60-21.88L54.60-21.88Q54.04-21.88 53.68-21.54Q53.32-21.20 53.32-20.52L53.32-20.52Q53.32-19.60 54.34-19.02Q55.36-18.44 57.52-17.68L57.52-17.68Q60.24-16.72 62.02-15.78Q63.80-14.84 65.14-13.02Q66.48-11.20 66.48-8.36L66.48-8.36Z M97.40-28.32L86.92-14.56L97.40 0L86.72 0L78.48-12.28L78.48 0L69.60 0L69.60-28.32L78.48-28.32L78.48-16.36L86.80-28.32L97.40-28.32Z M113.60-28.80Q117.60-28.80 120.92-26.94Q124.24-25.08 126.18-21.76Q128.12-18.44 128.12-14.28L128.12-14.28Q128.12-10.12 126.18-6.80Q124.24-3.48 120.90-1.60Q117.56 0.28 113.60 0.28L113.60 0.28Q109.60 0.28 106.26-1.60Q102.92-3.48 100.96-6.80Q99-10.12 99-14.28L99-14.28Q99-18.44 100.96-21.76Q102.92-25.08 106.26-26.94Q109.60-28.80 113.60-28.80L113.60-28.80ZM113.60-20.60Q110.92-20.60 109.48-18.90Q108.04-17.20 108.04-14.28L108.04-14.28Q108.04-11.40 109.48-9.70Q110.92-8 113.60-8L113.60-8Q116.24-8 117.68-9.70Q119.12-11.40 119.12-14.28L119.12-14.28Q119.12-17.20 117.68-18.90Q116.24-20.60 113.60-20.60L113.60-20.60Z M129.72-28.32L153.56-28.32L153.56-21.28L146.04-21.28L146.04 0L137.16 0L137.16-21.28L129.72-21.28L129.72-28.32Z M174.84-21.28L164.84-21.28L164.84-17.76L173.64-17.76L173.64-11.08L164.84-11.08L164.84-7.08L174.84-7.08L174.84 0L155.96 0L155.96-28.32L174.84-28.32L174.84-21.28Z M206-28.32L195.52-14.56L206 0L195.32 0L187.08-12.28L187.08 0L178.20 0L178.20-28.32L187.08-28.32L187.08-16.36L195.40-28.32L206-28.32Z M227.96 0L226.56-4.28L217.12-4.28L215.72 0L206.40 0L216.76-28.32L227.00-28.32L237.32 0L227.96 0ZM219.28-10.96L224.40-10.96L221.84-18.84L219.28-10.96Z M245.24-7.08Q250.48-11.04 253.54-14.12Q256.60-17.20 256.60-19.64L256.60-19.64Q256.60-21.64 255.20-21.64L255.20-21.64Q254.40-21.64 254.06-20.94Q253.72-20.24 253.72-18.32L253.72-18.32L245.12-18.32Q245.24-22.04 246.74-24.44Q248.24-26.84 250.64-27.96Q253.04-29.08 255.92-29.08L255.92-29.08Q260.96-29.08 263.30-26.60Q265.64-24.12 265.64-20.52L265.64-20.52Q265.64-16.72 263.12-13.36Q260.60-10 256.76-7.56L256.76-7.56L265.92-7.56L265.92-0.40L245.24-0.40L245.24-7.08Z M271.40-20L267.16-20L267.16-28.32L280.72-28.32L280.72 0L271.40 0L271.40-20Z M297.32-4.40L284.80-4.40L284.80-11.80L296.72-28.80L306.28-28.80L306.28-12.08L309.16-12.08L309.16-4.40L306.28-4.40L306.28 0L297.32 0L297.32-4.40ZM298.04-12.08L298.04-18.68L293.72-12.08L298.04-12.08Z"/></g>
</svg>
</g><g filter="url(#gMiGyJc9Q)"><g opacity="1" transform="rotate(0 -9.5223 122.5065)">
<svg width="254.2796" height="38" x="-9.5223" y="122.5065" version="1.1" preserveAspectRatio="none" viewBox="6.2305 -29.3164 201.5234 30.117200000000004">
  <g transform="matrix(1 0 0 1 0 0)" class="icon1"><path id="id-6izo4zJp13" d="M12.05-20.96L12.05-20.96Q11.41-20.49 11.41-19.91Q11.41-19.34 12.27-19.34L12.27-19.34Q12.64-19.34 13.22-19.55L13.22-19.55L13.24-19.55Q13.34-19.55 13.34-19.15Q13.34-18.75 13.26-18.67L13.26-18.67Q11.25-17.25 9.86-17.25Q8.48-17.25 7.85-18.03Q7.23-18.81 7.23-20.07Q7.23-21.33 8.61-22.74Q10-24.16 12.34-25.36Q14.69-26.56 18.15-27.34Q21.62-28.13 25.95-28.13Q30.27-28.13 33.18-26.44Q36.09-24.75 36.09-22.59Q36.09-20.43 34.58-18.20Q33.07-15.98 30.79-14.33Q28.52-12.68 25.74-11.62Q22.97-10.57 20.78-10.57Q18.59-10.57 17.38-12.32L17.38-12.32Q14.41-7.66 13.36-5.95Q12.30-4.24 11.57-3.08Q10.84-1.91 10.44-1.25Q10.04-0.59 10.02-0.57L10.02-0.57Q9.61-0.12 9.14-0.12L9.14-0.12L8.18 0.06L7.71 0.02L7.38 0.02Q6.23 0.02 6.23-0.70L6.23-0.70Q6.23-1.62 10.08-7.62Q13.93-13.61 17.33-18.50Q20.74-23.38 21.31-23.98Q21.88-24.59 22.31-24.70Q22.75-24.80 23.73-24.80L23.73-24.80L24.71-24.80Q24.96-24.80 24.96-24.40Q24.96-24.00 24.86-23.85L24.86-23.85Q23.14-21.45 18.65-14.36L18.65-14.36Q18.81-14.04 19.17-13.96Q19.53-13.89 19.94-13.89L19.94-13.89L20.51-13.89Q22.30-13.89 24.39-14.76Q26.48-15.63 28.07-16.84Q29.65-18.05 30.71-19.37Q31.78-20.68 31.78-21.62Q31.78-22.56 31.19-23.30Q30.61-24.04 29.59-24.47L29.59-24.47Q27.60-25.31 24.76-25.31Q21.91-25.31 17.90-23.84Q13.89-22.36 12.05-20.96Z M42.79-21.45L42.79-21.45Q42.79-20.33 41.76-19.21Q40.72-18.09 39.60-18.09Q38.48-18.09 38.48-19.26Q38.48-20.43 39.46-21.49Q40.45-22.56 41.64-22.56L41.64-22.56Q42.17-22.56 42.48-22.27Q42.79-21.97 42.79-21.45ZM39.63-4.39L39.63-4.39Q39.63-3.81 39.51-3.55L39.51-3.55Q38.55-1.60 36.46-0.40Q34.38 0.80 32.83 0.80Q31.29 0.80 30.18-0.23Q29.06-1.27 29.06-2.34Q29.06-3.42 30.14-5.47Q31.21-7.52 32.29-9.26Q33.36-11.00 33.36-11.14Q33.36-11.29 32.96-11.72Q32.56-12.15 32.56-12.35Q32.56-12.56 33.37-13.43Q34.18-14.30 35.34-15.15Q36.50-16.00 37.12-16.00Q37.73-16.00 38.22-15.45Q38.71-14.90 38.71-14.45Q38.71-14.00 34.06-6.00L34.06-6.00Q34.00-5.88 33.74-5.48Q33.48-5.08 33.33-4.81Q33.18-4.55 32.99-4.18L32.99-4.18Q32.60-3.40 32.60-2.87L32.60-2.87Q32.60-2.21 33.50-2.21Q34.39-2.21 35.36-2.82Q36.33-3.44 37.03-4.18L37.03-4.18Q38.87-6.15 39.12-6.15L39.12-6.15Q39.63-6.15 39.63-4.39Z M51.62-14.61L51.62-14.61Q51.62-13.32 50.58-12.34Q49.53-11.37 48.20-11.37L48.20-11.37Q47.77-11.37 47.64-11.57Q47.50-11.78 47.50-12.11Q47.50-12.44 47.58-12.75L47.58-12.75Q46.88-12.52 46.02-12.03Q45.16-11.54 43.91-10.59Q42.66-9.63 42.66-9.16L42.66-9.16Q42.66-9.00 43.12-9.00Q43.57-9.00 44.53-9.33Q45.49-9.65 45.87-9.65Q46.25-9.65 46.37-9.61L46.37-9.61Q46.62-9.47 46.91-9.01Q47.21-8.55 47.21-8.29Q47.21-8.03 46.70-7.60Q46.19-7.17 45.55-6.94Q44.90-6.72 44.69-6.60L44.69-6.60Q40.57-4.30 40.57-3.44L40.57-3.44Q40.57-1.91 43.16-1.91L43.16-1.91Q44.82-1.91 46.50-2.97L46.50-2.97Q47.93-3.87 49.07-4.79Q50.21-5.72 50.52-5.94Q50.82-6.15 50.98-6.15L50.98-6.15Q51.48-6.15 51.48-5.02Q51.48-3.89 51.35-3.53Q51.21-3.16 50.57-2.64L50.57-2.64Q46.39 0.76 42.66 0.76L42.66 0.76Q40.66 0.76 39.47 0.21L39.47 0.21Q37.29-0.78 37.29-2.83L37.29-2.83Q37.29-5.53 41.02-6.91L41.02-6.91Q40.27-7.25 40.06-7.76Q39.84-8.28 39.84-9.42Q39.84-10.57 40.91-11.85Q41.97-13.13 43.52-13.95L43.52-13.95Q46.95-15.80 49.65-15.80L49.65-15.80Q50.29-15.80 50.96-15.49Q51.62-15.18 51.62-14.61Z M61.07-3.01L61.07-3.01Q61.07-2.15 62.25-2.15L62.25-2.15Q62.87-2.15 63.82-2.77Q64.77-3.40 65.53-4.14L65.53-4.14Q67.56-6.15 67.83-6.15L67.83-6.15Q68.34-6.15 68.34-4.69Q68.34-3.22 67.42-2.68L67.42-2.68Q64.63-0.16 63.11 0.39L63.11 0.39Q62.25 0.68 61.21 0.66Q60.18 0.64 59.16-0.23Q58.14-1.11 58.14-2.37Q58.14-3.63 58.81-5.23Q59.47-6.84 60.17-7.98Q60.86-9.12 61.88-10.63Q62.89-12.15 62.95-12.52L62.95-12.52L62.91-12.56Q62.27-12.50 59.72-10.02Q57.17-7.54 55.51-5.70Q53.85-3.87 51.54-0.80L51.54-0.80Q50.90 0.04 50.49 0.04Q50.08 0.04 49.38-0.22Q48.69-0.49 48.54-0.61Q48.38-0.72 48.38-0.96Q48.38-1.19 48.52-1.53Q48.65-1.88 48.78-2.10Q48.91-2.32 49.20-2.79Q49.49-3.26 50.36-4.78Q51.23-6.29 53.03-9.30Q54.82-12.30 55.18-12.93L55.18-12.93Q55.92-14.22 56.39-14.80L56.39-14.80Q57.27-15.92 59.36-15.92L59.36-15.92Q59.82-15.92 59.82-15.33L59.82-15.33Q59.82-14.41 58.13-11.88L58.13-11.88L57.30-10.64Q60.68-14.39 63.01-15.39L63.01-15.39Q64.14-15.88 65.05-15.88Q65.96-15.88 66.49-15.39Q67.03-14.90 67.03-14.31Q67.03-13.71 66.62-12.88Q66.21-12.05 65.79-11.40Q65.37-10.74 64.69-9.75Q64.00-8.75 63.95-8.66Q63.89-8.57 63.64-8.19Q63.40-7.81 63.28-7.64Q63.16-7.46 62.89-7.02Q62.62-6.58 62.45-6.29Q62.29-6.00 62.04-5.57Q61.80-5.14 61.65-4.82Q61.50-4.51 61.35-4.14L61.35-4.14Q61.07-3.46 61.07-3.01Z M79.94-14.61L79.94-14.61Q79.94-13.32 78.90-12.34Q77.85-11.37 76.52-11.37L76.52-11.37Q76.09-11.37 75.96-11.57Q75.82-11.78 75.82-12.11Q75.82-12.44 75.90-12.75L75.90-12.75Q75.20-12.52 74.34-12.03Q73.48-11.54 72.23-10.59Q70.98-9.63 70.98-9.16L70.98-9.16Q70.98-9.00 71.44-9.00Q71.89-9.00 72.85-9.33Q73.81-9.65 74.19-9.65Q74.57-9.65 74.69-9.61L74.69-9.61Q74.94-9.47 75.23-9.01Q75.53-8.55 75.53-8.29Q75.53-8.03 75.02-7.60Q74.51-7.17 73.87-6.94Q73.22-6.72 73.01-6.60L73.01-6.60Q68.89-4.30 68.89-3.44L68.89-3.44Q68.89-1.91 71.48-1.91L71.48-1.91Q73.14-1.91 74.82-2.97L74.82-2.97Q76.25-3.87 77.39-4.79Q78.54-5.72 78.84-5.94Q79.14-6.15 79.30-6.15L79.30-6.15Q79.80-6.15 79.80-5.02Q79.80-3.89 79.67-3.53Q79.53-3.16 78.89-2.64L78.89-2.64Q74.71 0.76 70.98 0.76L70.98 0.76Q68.98 0.76 67.79 0.21L67.79 0.21Q65.61-0.78 65.61-2.83L65.61-2.83Q65.61-5.53 69.34-6.91L69.34-6.91Q68.59-7.25 68.38-7.76Q68.16-8.28 68.16-9.42Q68.16-10.57 69.23-11.85Q70.29-13.13 71.84-13.95L71.84-13.95Q75.27-15.80 77.97-15.80L77.97-15.80Q78.61-15.80 79.28-15.49Q79.94-15.18 79.94-14.61Z M95.68-19.14L95.68-19.14L95.27-19.20L95.20-19.20Q94.71-19.20 94.19-19.59Q93.67-19.98 93.67-20.98Q93.67-21.97 94.76-23.24Q95.84-24.51 97.70-25.58Q99.55-26.64 102.31-27.32Q105.08-28.01 108.14-28.01L108.14-28.01Q114.41-28.01 117.94-25.54Q121.46-23.07 121.46-19.12L121.46-19.12Q121.46-16.66 120.37-14.20Q119.28-11.74 117.44-9.66Q115.61-7.58 113.13-5.77Q110.64-3.96 107.93-2.70L107.93-2.70Q102.07 0 96.72 0L96.72 0Q94.08 0 93.40-0.43L93.40-0.43Q93.14-0.57 92.90-0.85Q92.66-1.13 92.52-1.23L92.52-1.23Q92.15-1.46 92.15-2.24Q92.15-3.01 92.30-3.63L92.30-3.63Q92.89-5.72 97.57-12.71Q102.25-19.69 105.39-23.96L105.39-23.96Q105.61-24.26 107.60-24.39L107.60-24.39Q108.42-24.39 108.73-24.28Q109.04-24.16 109.04-23.86Q109.04-23.55 108.03-22.14Q107.01-20.72 101.50-12.24Q96.00-3.75 96.00-3.52Q96.00-3.28 97.72-3.28Q99.45-3.28 101.98-4.01Q104.51-4.75 106.74-5.94Q108.96-7.13 111.00-8.70Q113.03-10.27 114.47-11.91L114.47-11.91Q117.64-15.51 117.64-18.30Q117.64-21.09 115.09-23.05Q112.54-25 108.11-25L108.11-25Q105.12-25 102.46-24.00Q99.80-23.01 98.81-22.23Q97.81-21.45 97.81-21.17L97.81-21.17Q97.81-21.02 98.05-21.02L98.05-21.02L98.89-21.17Q99.06-21.17 99.06-21.09Q99.06-21.02 98.73-20.82Q98.40-20.63 98.19-20.40Q97.99-20.18 97.17-19.68Q96.35-19.18 95.68-19.14Z M132.15-14.88Q132.73-14.88 133.35-14.36Q133.96-13.83 133.96-12.74Q133.96-11.66 133.20-9.93Q132.44-8.20 131.11-6.42Q129.79-4.63 128.19-3.06Q126.60-1.48 124.76-0.48Q122.91 0.53 121.41 0.53Q119.90 0.53 118.99-0.42Q118.09-1.37 118.09-3.06Q118.09-4.75 118.92-6.80Q119.75-8.85 121.05-10.42Q122.36-11.99 123.89-13.24L123.89-13.24Q127.07-15.80 129.47-15.80L129.47-15.80Q130.55-15.80 131.09-15.27L131.09-15.27Q131.29-15.10 131.29-14.96L131.29-14.96L131.29-14.84Q131.56-14.88 132.15-14.88ZM130.18-12.29L130.18-12.29L130.04-12.29Q129.36-12.29 129.36-13.28L129.36-13.28Q127.93-12.81 126.37-11.64Q124.80-10.47 123.57-8.87L123.57-8.87Q121.07-5.66 121.04-3.46L121.04-3.46Q121.04-2.36 121.84-2.36Q122.64-2.36 124.22-3.42Q125.80-4.47 127.35-6.43Q128.91-8.38 129.68-9.81Q130.45-11.25 130.45-11.77Q130.45-12.29 130.18-12.29Z M152.77-27.44L152.77-27.44Q152.77-26.60 157.66-26.60L157.66-26.60Q160-26.60 163.43-26.83Q166.86-27.05 167.57-27.30Q168.28-27.56 168.79-27.94Q169.30-28.32 169.53-28.59L169.53-28.59Q170.16-29.32 171.16-29.32Q172.17-29.32 172.99-28.94Q173.81-28.55 173.81-27.90Q173.81-27.25 173.24-26.56Q172.68-25.88 172.05-25.44Q171.43-25 170.67-24.55Q169.92-24.10 169.80-24.00Q169.69-23.91 168.83-23.16L168.83-23.16Q165.14-20.08 157.20-12.54Q149.26-5 147.50-3.24L147.50-3.24Q149.65-3.73 153.24-4.22Q156.84-4.71 159.91-4.71Q162.99-4.71 164.64-4.05Q166.29-3.40 166.29-1.80L166.29-1.80Q166.29-1.04 165.95-0.22Q165.61 0.59 165.37 0.59L165.37 0.59Q165.29 0.59 165.21 0.34Q165.14 0.10 165.06 0.04L165.06 0.04Q164.14-0.57 161.77-0.57Q159.39-0.57 153.78-0.11Q148.16 0.35 146.79 0.51Q145.41 0.66 144.98 0.66L144.98 0.66Q143.75 0.66 142.97-0.19Q142.19-1.04 142.19-1.70L142.19-1.70L142.34-2.32Q142.34-3.26 146.90-7.93Q151.46-12.60 156.63-17.31Q161.80-22.03 164.26-23.96L164.26-23.96Q162.56-23.48 159.98-23.10Q157.40-22.71 155.12-22.71L155.12-22.71Q149.41-22.71 149.41-25.20L149.41-25.20Q149.41-26.02 149.87-26.68Q150.33-27.34 150.98-27.70L150.98-27.70Q152.27-28.42 152.84-28.42Q153.42-28.42 153.42-28.16L153.42-28.16Q153.42-28.05 153.10-27.81Q152.77-27.58 152.77-27.44Z M179.69-14.88Q180.27-14.88 180.89-14.36Q181.50-13.83 181.50-12.74Q181.50-11.66 180.74-9.93Q179.98-8.20 178.65-6.42Q177.32-4.63 175.73-3.06Q174.14-1.48 172.29-0.48Q170.45 0.53 168.95 0.53Q167.44 0.53 166.53-0.42Q165.63-1.37 165.63-3.06Q165.63-4.75 166.46-6.80Q167.29-8.85 168.59-10.42Q169.90-11.99 171.43-13.24L171.43-13.24Q174.61-15.80 177.01-15.80L177.01-15.80Q178.09-15.80 178.63-15.27L178.63-15.27Q178.83-15.10 178.83-14.96L178.83-14.96L178.83-14.84Q179.10-14.88 179.69-14.88ZM177.71-12.29L177.71-12.29L177.58-12.29Q176.89-12.29 176.89-13.28L176.89-13.28Q175.47-12.81 173.91-11.64Q172.34-10.47 171.11-8.87L171.11-8.87Q168.61-5.66 168.57-3.46L168.57-3.46Q168.57-2.36 169.38-2.36Q170.18-2.36 171.76-3.42Q173.34-4.47 174.89-6.43Q176.45-8.38 177.22-9.81Q177.99-11.25 177.99-11.77Q177.99-12.29 177.71-12.29Z M188.28-11.88L187.46-10.64Q192.07-15.88 195.31-15.88L195.31-15.88Q196.11-15.88 196.63-15.40Q197.15-14.92 197.15-14.16Q197.15-13.40 196.06-11.61Q194.98-9.82 194.06-8.59L194.06-8.59Q193.57-7.97 192.96-7.97Q192.34-7.97 192.00-8.42Q191.66-8.87 191.66-9.47L191.66-9.47Q191.66-10.82 193.11-12.52L193.11-12.52L193.07-12.56Q192.42-12.50 189.87-10.02Q187.32-7.54 185.54-5.58Q183.75-3.61 181.66-0.80L181.66-0.80Q181.05 0.04 180.63 0.04Q180.21 0.04 179.52-0.22Q178.83-0.49 178.68-0.61Q178.54-0.72 178.54-1.00Q178.54-1.27 178.69-1.63Q178.85-1.99 179.27-2.66Q179.69-3.32 180.54-4.80Q181.39-6.29 183.18-9.30Q184.98-12.30 185.33-12.93L185.33-12.93Q186.07-14.22 186.54-14.80L186.54-14.80Q187.42-15.92 189.51-15.92L189.51-15.92Q189.98-15.92 189.98-15.33L189.98-15.33Q189.98-14.41 188.28-11.88L188.28-11.88Z M207.75-21.45L207.75-21.45Q207.75-20.33 206.72-19.21Q205.68-18.09 204.56-18.09Q203.44-18.09 203.44-19.26Q203.44-20.43 204.42-21.49Q205.41-22.56 206.60-22.56L206.60-22.56Q207.13-22.56 207.44-22.27Q207.75-21.97 207.75-21.45ZM204.59-4.39L204.59-4.39Q204.59-3.81 204.47-3.55L204.47-3.55Q203.52-1.60 201.43-0.40Q199.34 0.80 197.79 0.80Q196.25 0.80 195.14-0.23Q194.02-1.27 194.02-2.34Q194.02-3.42 195.10-5.47Q196.17-7.52 197.25-9.26Q198.32-11.00 198.32-11.14Q198.32-11.29 197.92-11.72Q197.52-12.15 197.52-12.35Q197.52-12.56 198.33-13.43Q199.14-14.30 200.30-15.15Q201.46-16.00 202.08-16.00Q202.70-16.00 203.18-15.45Q203.67-14.90 203.67-14.45Q203.67-14.00 199.02-6.00L199.02-6.00Q198.96-5.88 198.70-5.48Q198.44-5.08 198.29-4.81Q198.14-4.55 197.95-4.18L197.95-4.18Q197.56-3.40 197.56-2.87L197.56-2.87Q197.56-2.21 198.46-2.21Q199.36-2.21 200.32-2.82Q201.29-3.44 201.99-4.18L201.99-4.18Q203.83-6.15 204.08-6.15L204.08-6.15Q204.59-6.15 204.59-4.39Z"/></g>
</svg>
</g></g></svg></svg>