<svg version="1.1" preserveAspectRatio="none" xmlns="http://www.w3.org/2000/svg" width="500" height="500" viewBox="0 0 500 500"><rect width="100%" height="100%" fill="#FFFFFF" fill-opacity="1"/><svg viewBox="-60.1692 176.7222 561.4738 124.4" width="333" height="73.77939985801653" x="83.5px" y="213.1103px" xmlns="http://www.w3.org/2000/svg" xmlns:xlink="http://www.w3.org/1999/xlink" preserveAspectRatio="none"><defs></defs><style>.companyName {fill:#4D4D4D;fill-opacity:1;}.icon1 {fill:#FF834F;fill-opacity:1;}.icon2 {fill:#FF4949;fill-opacity:1;}.icon3 {fill:#FFAE78;fill-opacity:1;}.icon3-str {stroke:#FFAE78;stroke-opacity:1;}.shapeStroke-str {stroke:#313131;stroke-opacity:1;}.text {fill:#4D4D4D;fill-opacity:1;}</style><g opacity="1" transform="rotate(0 -60.1692 188.7222)">
<svg width="168.822" height="100.4" x="-60.1692" y="188.7222" version="1.1" preserveAspectRatio="none" viewBox="27.501007080078125 260.4989929199219 944.9990234375 562">
  <g transform="matrix(1 0 0 1 0 0)" class="icon1"><g><path d="M646.5,590.5h-298v88h298V590.5z M626.5,658.5h-258v-48h258V658.5z"></path><path d="M406.5,723.5c0-15.99-13.009-29-29-29s-29,13.01-29,29s13.009,29,29,29S406.5,739.49,406.5,723.5z M368.5,723.5   c0-4.963,4.038-9,9-9s9,4.037,9,9s-4.038,9-9,9S368.5,728.463,368.5,723.5z"></path><path d="M497.5,694.5c-15.991,0-29,13.01-29,29s13.009,29,29,29c15.99,0,29-13.01,29-29S513.49,694.5,497.5,694.5z M497.5,732.5   c-4.962,0-9-4.037-9-9s4.038-9,9-9c4.963,0,9,4.037,9,9S502.463,732.5,497.5,732.5z"></path><path d="M617.5,694.5c-15.99,0-29,13.01-29,29s13.01,29,29,29s29-13.01,29-29S633.49,694.5,617.5,694.5z M617.5,732.5   c-4.963,0-9-4.037-9-9s4.037-9,9-9s9,4.037,9,9S622.463,732.5,617.5,732.5z"></path><path d="M962.5,260.5h-230c-2.744,0-5.229,1.107-7.037,2.898l-0.001-0.001l-0.031,0.031c-0.001,0-0.002,0.001-0.003,0.002   L668,320.331v222.206l-37.512-28.046c-1.729-1.293-3.83-1.991-5.988-1.991h-256c-2.393,0-4.707,0.858-6.521,2.419L332,540.707   V320.331l-57.461-56.935l-0.001,0.001c-1.807-1.791-4.292-2.898-7.037-2.898h-230c-5.523,0-10,4.477-10,10v504   c0,5.522,4.477,10,10,10H75v18H37.5v20h925v-20h-45.25v-18h45.25c5.522,0,10-4.478,10-10v-504   C972.5,264.977,968.022,260.5,962.5,260.5z M688,328.669l34.5-34.184V764.5H688v-172v-30V328.669z M332,764.5v-172v-20h336v20v172   H332z M372.209,532.5h248.965l26.75,20H348.959L372.209,532.5z M312,562.5v30v172h-34.5V294.486l34.5,34.183V562.5z M47.5,764.5   v-484h210v484H47.5z M95,802.5v-18h23.5v18H95z M138.5,802.5v-18h226.25v18H138.5z M384.75,802.5v-18h23.5v18H384.75z    M428.25,802.5v-18h138.5v18H428.25z M586.75,802.5v-18h23.5v18H586.75z M630.25,802.5v-18h223.5v18H630.25z M897.25,802.5h-23.5   v-18h23.5V802.5z M952.5,764.5h-210v-484h210V764.5z"></path><path d="M850.5,486.5c48.523,0,88-39.477,88-88s-39.477-88-88-88s-88,39.477-88,88S801.977,486.5,850.5,486.5z M850.5,330.5   c37.495,0,68,30.505,68,68s-30.505,68-68,68s-68-30.505-68-68S813.005,330.5,850.5,330.5z"></path><path d="M850.5,498.5c-41.079,0-74.5,33.421-74.5,74.5s33.421,74.5,74.5,74.5S925,614.079,925,573S891.579,498.5,850.5,498.5z    M850.5,627.5c-30.052,0-54.5-24.448-54.5-54.5s24.448-54.5,54.5-54.5S905,542.948,905,573S880.552,627.5,850.5,627.5z"></path><path d="M149.5,486.5c48.523,0,88-39.477,88-88s-39.477-88-88-88s-88,39.477-88,88S100.977,486.5,149.5,486.5z M149.5,330.5   c37.495,0,68,30.505,68,68s-30.505,68-68,68s-68-30.505-68-68S112.005,330.5,149.5,330.5z"></path><path d="M149.5,446.5c26.467,0,48-21.533,48-48s-21.533-48-48-48s-48,21.533-48,48S123.033,446.5,149.5,446.5z M149.5,370.5   c15.439,0,28,12.561,28,28s-12.561,28-28,28s-28-12.561-28-28S134.061,370.5,149.5,370.5z"></path><path d="M850.5,446.5c26.468,0,48-21.533,48-48s-21.532-48-48-48s-48,21.533-48,48S824.032,446.5,850.5,446.5z M850.5,370.5   c15.439,0,28,12.561,28,28s-12.561,28-28,28s-28-12.561-28-28S835.061,370.5,850.5,370.5z"></path><path d="M224,573c0-41.079-33.42-74.5-74.5-74.5S75,531.921,75,573s33.42,74.5,74.5,74.5S224,614.079,224,573z M95,573   c0-30.052,24.449-54.5,54.5-54.5S204,542.948,204,573s-24.449,54.5-54.5,54.5S95,603.052,95,573z"></path><path d="M847.5,656.5c-26.468,0-48,21.532-48,48s21.532,48,48,48s48-21.532,48-48S873.968,656.5,847.5,656.5z M847.5,732.5   c-15.439,0-28-12.561-28-28s12.561-28,28-28s28,12.561,28,28S862.939,732.5,847.5,732.5z"></path><path d="M197.5,704.5c0-26.468-21.533-48-48-48s-48,21.532-48,48s21.533,48,48,48S197.5,730.968,197.5,704.5z M121.5,704.5   c0-15.439,12.561-28,28-28s28,12.561,28,28s-12.561,28-28,28S121.5,719.939,121.5,704.5z"></path></g></g>
</svg>
</g><g opacity="1" transform="rotate(0 142.6528 255.7222)">
<svg width="182.655" height="18.4" x="142.6528" y="255.7222" version="1.1" preserveAspectRatio="none" viewBox="3.76 -30.88 309.32 31.16">
  <g transform="matrix(1 0 0 1 0 0)" class="text"><path id="id-6izo4zJp13" d="M15.28-28Q18.92-28 21.62-26.80Q24.32-25.60 25.76-23.36Q27.20-21.12 27.20-18.04L27.20-18.04Q27.20-15 25.76-12.74Q24.32-10.48 21.62-9.28Q18.92-8.08 15.28-8.08L15.28-8.08L8.96-8.08L8.96 0L3.76 0L3.76-28L15.28-28ZM15.04-12.48Q18.44-12.48 20.20-13.92Q21.96-15.36 21.96-18.04L21.96-18.04Q21.96-20.72 20.20-22.16Q18.44-23.60 15.04-23.60L15.04-23.60L8.96-23.60L8.96-12.48L15.04-12.48Z M35.72 0L35.72-21.36L40.72-21.36L40.72 0L35.72 0ZM38.24-24.88Q36.88-24.88 35.96-25.74Q35.04-26.60 35.04-27.88L35.04-27.88Q35.04-29.16 35.96-30.02Q36.88-30.88 38.24-30.88L38.24-30.88Q39.60-30.88 40.52-30.06Q41.44-29.24 41.44-28L41.44-28Q41.44-26.68 40.54-25.78Q39.64-24.88 38.24-24.88L38.24-24.88Z M71.36-10.56Q71.36-10.04 71.28-9.08L71.28-9.08L54.52-9.08Q54.96-6.72 56.82-5.34Q58.68-3.96 61.44-3.96L61.44-3.96Q64.96-3.96 67.24-6.28L67.24-6.28L69.92-3.20Q68.48-1.48 66.28-0.60Q64.08 0.28 61.32 0.28L61.32 0.28Q57.80 0.28 55.12-1.12Q52.44-2.52 50.98-5.02Q49.52-7.52 49.52-10.68L49.52-10.68Q49.52-13.80 50.94-16.30Q52.36-18.80 54.88-20.20Q57.40-21.60 60.56-21.60L60.56-21.60Q63.68-21.60 66.14-20.22Q68.60-18.84 69.98-16.34Q71.36-13.84 71.36-10.56L71.36-10.56ZM60.56-17.60Q58.16-17.60 56.50-16.18Q54.84-14.76 54.48-12.40L54.48-12.40L66.60-12.40Q66.28-14.72 64.64-16.16Q63-17.60 60.56-17.60L60.56-17.60Z M92.28-21.60Q96.32-21.60 98.76-19.24Q101.20-16.88 101.20-12.24L101.20-12.24L101.20 0L96.20 0L96.20-11.60Q96.20-14.40 94.88-15.82Q93.56-17.24 91.12-17.24L91.12-17.24Q88.36-17.24 86.76-15.58Q85.16-13.92 85.16-10.80L85.16-10.80L85.16 0L80.16 0L80.16-21.36L84.92-21.36L84.92-18.60Q86.16-20.08 88.04-20.84Q89.92-21.60 92.28-21.60L92.28-21.60Z M131.84-10.56Q131.84-10.04 131.76-9.08L131.76-9.08L115-9.08Q115.44-6.72 117.30-5.34Q119.16-3.96 121.92-3.96L121.92-3.96Q125.44-3.96 127.72-6.28L127.72-6.28L130.40-3.20Q128.96-1.48 126.76-0.60Q124.56 0.28 121.80 0.28L121.80 0.28Q118.28 0.28 115.60-1.12Q112.92-2.52 111.46-5.02Q110-7.52 110-10.68L110-10.68Q110-13.80 111.42-16.30Q112.84-18.80 115.36-20.20Q117.88-21.60 121.04-21.60L121.04-21.60Q124.16-21.60 126.62-20.22Q129.08-18.84 130.46-16.34Q131.84-13.84 131.84-10.56L131.84-10.56ZM121.04-17.60Q118.64-17.60 116.98-16.18Q115.32-14.76 114.96-12.40L114.96-12.40L127.08-12.40Q126.76-14.72 125.12-16.16Q123.48-17.60 121.04-17.60L121.04-17.60Z M171.60-29.68L176.60-29.68L176.60 0L171.80 0L171.80-2.76Q170.56-1.24 168.74-0.48Q166.92 0.28 164.72 0.28L164.72 0.28Q161.64 0.28 159.18-1.08Q156.72-2.44 155.32-4.94Q153.92-7.44 153.92-10.68L153.92-10.68Q153.92-13.92 155.32-16.40Q156.72-18.88 159.18-20.24Q161.64-21.60 164.72-21.60L164.72-21.60Q166.84-21.60 168.60-20.88Q170.36-20.16 171.60-18.72L171.60-18.72L171.60-29.68ZM165.32-4Q167.12-4 168.56-4.82Q170-5.64 170.84-7.16Q171.68-8.68 171.68-10.68L171.68-10.68Q171.68-12.68 170.84-14.20Q170-15.72 168.56-16.54Q167.12-17.36 165.32-17.36L165.32-17.36Q163.52-17.36 162.08-16.54Q160.64-15.72 159.80-14.20Q158.96-12.68 158.96-10.68L158.96-10.68Q158.96-8.68 159.80-7.16Q160.64-5.64 162.08-4.82Q163.52-4 165.32-4L165.32-4Z M196.76 0.28Q193.52 0.28 190.92-1.12Q188.32-2.52 186.86-5.02Q185.40-7.52 185.40-10.68L185.40-10.68Q185.40-13.84 186.86-16.32Q188.32-18.80 190.92-20.20Q193.52-21.60 196.76-21.60L196.76-21.60Q200.04-21.60 202.64-20.20Q205.24-18.80 206.70-16.32Q208.16-13.84 208.16-10.68L208.16-10.68Q208.16-7.52 206.70-5.02Q205.24-2.52 202.64-1.12Q200.04 0.28 196.76 0.28L196.76 0.28ZM196.76-4Q199.52-4 201.32-5.84Q203.12-7.68 203.12-10.68L203.12-10.68Q203.12-13.68 201.32-15.52Q199.52-17.36 196.76-17.36L196.76-17.36Q194-17.36 192.22-15.52Q190.44-13.68 190.44-10.68L190.44-10.68Q190.44-7.68 192.22-5.84Q194-4 196.76-4L196.76-4Z M236.60-4L248.68-4L248.68 0L230.24 0L230.24-3.16L241.96-17.36L230.48-17.36L230.48-21.36L248.36-21.36L248.36-18.20L236.60-4Z M266.56 0.28Q263.32 0.28 260.72-1.12Q258.12-2.52 256.66-5.02Q255.20-7.52 255.20-10.68L255.20-10.68Q255.20-13.84 256.66-16.32Q258.12-18.80 260.72-20.20Q263.32-21.60 266.56-21.60L266.56-21.60Q269.84-21.60 272.44-20.20Q275.04-18.80 276.50-16.32Q277.96-13.84 277.96-10.68L277.96-10.68Q277.96-7.52 276.50-5.02Q275.04-2.52 272.44-1.12Q269.84 0.28 266.56 0.28L266.56 0.28ZM266.56-4Q269.32-4 271.12-5.84Q272.92-7.68 272.92-10.68L272.92-10.68Q272.92-13.68 271.12-15.52Q269.32-17.36 266.56-17.36L266.56-17.36Q263.80-17.36 262.02-15.52Q260.24-13.68 260.24-10.68L260.24-10.68Q260.24-7.68 262.02-5.84Q263.80-4 266.56-4L266.56-4Z M291.52-18.24Q293.68-21.60 299.12-21.60L299.12-21.60L299.12-16.84Q298.48-16.96 297.96-16.96L297.96-16.96Q295.04-16.96 293.40-15.26Q291.76-13.56 291.76-10.36L291.76-10.36L291.76 0L286.76 0L286.76-21.36L291.52-21.36L291.52-18.24Z M307.36 0L307.36-21.36L312.36-21.36L312.36 0L307.36 0ZM309.88-24.88Q308.52-24.88 307.60-25.74Q306.68-26.60 306.68-27.88L306.68-27.88Q306.68-29.16 307.60-30.02Q308.52-30.88 309.88-30.88L309.88-30.88Q311.24-30.88 312.16-30.06Q313.08-29.24 313.08-28L313.08-28Q313.08-26.68 312.18-25.78Q311.28-24.88 309.88-24.88L309.88-24.88Z"/></g>
</svg>
</g><g opacity="1" transform="rotate(0 142.6528 203.7222)">
<svg width="358.6518" height="40" x="142.6528" y="203.7222" version="1.1" preserveAspectRatio="none" viewBox="3.32 -31.48 285.12 31.8">
  <g transform="matrix(1 0 0 1 0 0)" class="companyName"><path id="id-D6z1nYkh13" d="M3.32 0L3.32-28L16.04-28Q20.60-28 24.10-26.26Q27.60-24.52 29.54-21.36Q31.48-18.20 31.48-14L31.48-14Q31.48-9.80 29.54-6.64Q27.60-3.48 24.10-1.74Q20.60 0 16.04 0L16.04 0L3.32 0ZM9.80-5.32L15.72-5.32Q19.92-5.32 22.42-7.66Q24.92-10 24.92-14L24.92-14Q24.92-18 22.42-20.34Q19.92-22.68 15.72-22.68L15.72-22.68L9.80-22.68L9.80-5.32Z M35.92 0L35.92-21.52L42.16-21.52L42.16 0L35.92 0ZM39.04-24.52Q37.32-24.52 36.24-25.52Q35.16-26.52 35.16-28L35.16-28Q35.16-29.48 36.24-30.48Q37.32-31.48 39.04-31.48L39.04-31.48Q40.76-31.48 41.84-30.52Q42.92-29.56 42.92-28.12L42.92-28.12Q42.92-26.56 41.84-25.54Q40.76-24.52 39.04-24.52L39.04-24.52Z M55.20 0.32Q52.52 0.32 49.96-0.34Q47.40-1 45.88-2L45.88-2L47.96-6.48Q49.40-5.56 51.44-4.98Q53.48-4.40 55.44-4.40L55.44-4.40Q59.40-4.40 59.40-6.36L59.40-6.36Q59.40-7.28 58.32-7.68Q57.24-8.08 55-8.36L55-8.36Q52.36-8.76 50.64-9.28Q48.92-9.80 47.66-11.12Q46.40-12.44 46.40-14.88L46.40-14.88Q46.40-16.92 47.58-18.50Q48.76-20.08 51.02-20.96Q53.28-21.84 56.36-21.84L56.36-21.84Q58.64-21.84 60.90-21.34Q63.16-20.84 64.64-19.96L64.64-19.96L62.56-15.52Q59.72-17.12 56.36-17.12L56.36-17.12Q54.36-17.12 53.36-16.56Q52.36-16 52.36-15.12L52.36-15.12Q52.36-14.12 53.44-13.72Q54.52-13.32 56.88-12.96L56.88-12.96Q59.52-12.52 61.20-12.02Q62.88-11.52 64.12-10.20Q65.36-8.88 65.36-6.52L65.36-6.52Q65.36-4.52 64.16-2.96Q62.96-1.40 60.66-0.54Q58.36 0.32 55.20 0.32L55.20 0.32Z M85.24 0L78.44-8.44L75.44-5.48L75.44 0L69.20 0L69.20-29.68L75.44-29.68L75.44-12.88L84.56-21.52L92-21.52L83.04-12.40L92.80 0L85.24 0Z M104.92 0.32Q101.52 0.32 98.82-1.10Q96.12-2.52 94.60-5.04Q93.08-7.56 93.08-10.76L93.08-10.76Q93.08-13.96 94.60-16.48Q96.12-19 98.82-20.42Q101.52-21.84 104.92-21.84L104.92-21.84Q108.32-21.84 111-20.42Q113.68-19 115.20-16.48Q116.72-13.96 116.72-10.76L116.72-10.76Q116.72-7.56 115.20-5.04Q113.68-2.52 111-1.10Q108.32 0.32 104.92 0.32L104.92 0.32ZM104.92-4.80Q107.32-4.80 108.86-6.42Q110.40-8.04 110.40-10.76L110.40-10.76Q110.40-13.48 108.86-15.10Q107.32-16.72 104.92-16.72L104.92-16.72Q102.52-16.72 100.96-15.10Q99.40-13.48 99.40-10.76L99.40-10.76Q99.40-8.04 100.96-6.42Q102.52-4.80 104.92-4.80L104.92-4.80Z M133.08-5.44L134.76-1.04Q133.84-0.36 132.50-0.02Q131.16 0.32 129.68 0.32L129.68 0.32Q125.84 0.32 123.74-1.64Q121.64-3.60 121.64-7.40L121.64-7.40L121.64-16.24L118.32-16.24L118.32-21.04L121.64-21.04L121.64-26.28L127.88-26.28L127.88-21.04L133.24-21.04L133.24-16.24L127.88-16.24L127.88-7.48Q127.88-6.12 128.58-5.38Q129.28-4.64 130.56-4.64L130.56-4.64Q132.04-4.64 133.08-5.44L133.08-5.44Z M158.68-10.68Q158.68-10.56 158.56-9L158.56-9L142.28-9Q142.72-7 144.36-5.84Q146-4.68 148.44-4.68L148.44-4.68Q150.12-4.68 151.42-5.18Q152.72-5.68 153.84-6.76L153.84-6.76L157.16-3.16Q154.12 0.32 148.28 0.32L148.28 0.32Q144.64 0.32 141.84-1.10Q139.04-2.52 137.52-5.04Q136-7.56 136-10.76L136-10.76Q136-13.92 137.50-16.46Q139-19 141.62-20.42Q144.24-21.84 147.48-21.84L147.48-21.84Q150.64-21.84 153.20-20.48Q155.76-19.12 157.22-16.58Q158.68-14.04 158.68-10.68L158.68-10.68ZM147.52-17.12Q145.40-17.12 143.96-15.92Q142.52-14.72 142.20-12.64L142.20-12.64L152.80-12.64Q152.48-14.68 151.04-15.90Q149.60-17.12 147.52-17.12L147.52-17.12Z M178.88 0L172.08-8.44L169.08-5.48L169.08 0L162.84 0L162.84-29.68L169.08-29.68L169.08-12.88L178.20-21.52L185.64-21.52L176.68-12.40L186.44 0L178.88 0Z M197.52-21.84Q202.52-21.84 205.20-19.46Q207.88-17.08 207.88-12.28L207.88-12.28L207.88 0L202.04 0L202.04-2.68Q200.28 0.32 195.48 0.32L195.48 0.32Q193 0.32 191.18-0.52Q189.36-1.36 188.40-2.84Q187.44-4.32 187.44-6.20L187.44-6.20Q187.44-9.20 189.70-10.92Q191.96-12.64 196.68-12.64L196.68-12.64L201.64-12.64Q201.64-14.68 200.40-15.78Q199.16-16.88 196.68-16.88L196.68-16.88Q194.96-16.88 193.30-16.34Q191.64-15.80 190.48-14.88L190.48-14.88L188.24-19.24Q190-20.48 192.46-21.16Q194.92-21.84 197.52-21.84L197.52-21.84ZM197.04-3.88Q198.64-3.88 199.88-4.62Q201.12-5.36 201.64-6.80L201.64-6.80L201.64-9L197.36-9Q193.52-9 193.52-6.48L193.52-6.48Q193.52-5.28 194.46-4.58Q195.40-3.88 197.04-3.88L197.04-3.88Z M232.40-5.28L244.44-5.28L244.44 0L223.28 0L223.28-4.20L234.08-14.40Q235.80-16.04 236.40-17.22Q237-18.40 237-19.56L237-19.56Q237-21.24 235.86-22.14Q234.72-23.04 232.52-23.04L232.52-23.04Q230.68-23.04 229.20-22.34Q227.72-21.64 226.72-20.24L226.72-20.24L222-23.28Q223.64-25.72 226.52-27.10Q229.40-28.48 233.12-28.48L233.12-28.48Q236.24-28.48 238.58-27.46Q240.92-26.44 242.22-24.58Q243.52-22.72 243.52-20.20L243.52-20.20Q243.52-17.92 242.56-15.92Q241.60-13.92 238.84-11.36L238.84-11.36L232.40-5.28Z M245.84-28L257.92-28L257.92 0L251.44 0L251.44-22.80L245.84-22.80L245.84-28Z M288.44-11.16L288.44-5.88L283.88-5.88L283.88 0L277.56 0L277.56-5.88L262.48-5.88L262.48-10.24L275.68-28L282.48-28L270.24-11.16L277.76-11.16L277.76-16.40L283.88-16.40L283.88-11.16L288.44-11.16Z"/></g>
</svg>
</g><g opacity="1" transform="rotate(0 122.6528 176.7222)">
<svg width="4" height="124.4" x="122.6528" y="176.7222" version="1.1" preserveAspectRatio="none" viewBox="0 0 4 124.4">
  <defs><rect x="0" y="0" width="4" height="124.4" rx="0px" ry="0px" id="id-tBXipXk0b1714137248803"></rect></defs><use class="companyName shapeStroke-str" style="stroke-width:0;" xlink:href="#id-tBXipXk0b1714137248803"></use>
</svg>
</g></svg></svg>