<?xml version="1.0" encoding="UTF-8"?>
<svg xmlns="http://www.w3.org/2000/svg" xmlns:xlink="http://www.w3.org/1999/xlink" width="px" height="px" viewBox="0 0 295 295" version="1.1">
<defs>
<clipPath id="clip1">
  <path d="M 107.863281 178.058594 L 187.140625 178.058594 L 187.140625 188.570312 L 107.863281 188.570312 Z M 107.863281 178.058594 "/>
</clipPath>
<clipPath id="clip2">
  <path d="M 53 114 L 243 114 L 243 172 L 53 172 Z M 53 114 "/>
</clipPath>
<clipPath id="clip3">
  <path d="M 49.265625 140.074219 L 240.082031 106.429688 L 245.738281 138.496094 L 54.921875 172.140625 Z M 49.265625 140.074219 "/>
</clipPath>
</defs>
<g id="surface1">
<rect x="0" y="0" width="295" height="295" style="fill:rgb(100%,100%,100%);fill-opacity:1;stroke:none;"/>
<g clip-path="url(#clip1)" clip-rule="nonzero">
<path style=" stroke:none;fill-rule:nonzero;fill:rgb(11.764706%,11.764706%,11.764706%);fill-opacity:1;" d="M 110.460938 178.753906 C 111.515625 178.753906 112.339844 179.019531 112.933594 179.546875 C 113.527344 180.074219 113.824219 180.808594 113.824219 181.753906 C 113.824219 182.300781 113.714844 182.808594 113.496094 183.28125 C 113.277344 183.757812 112.921875 184.140625 112.4375 184.433594 C 111.949219 184.730469 111.335938 184.875 110.59375 184.875 L 109.160156 184.875 L 109.160156 188.4375 L 107.863281 188.4375 L 107.863281 178.753906 Z M 110.59375 183.617188 C 111.058594 183.617188 111.4375 183.519531 111.726562 183.324219 C 112.015625 183.125 112.222656 182.886719 112.347656 182.605469 C 112.472656 182.324219 112.535156 182.050781 112.535156 181.78125 C 112.535156 181.316406 112.386719 180.90625 112.082031 180.542969 C 111.777344 180.183594 111.304688 180 110.660156 180 L 109.160156 180 L 109.160156 183.617188 Z M 115.792969 182.894531 L 117.039062 182.894531 L 117.039062 188.4375 L 115.792969 188.4375 Z M 115.699219 180.898438 C 115.699219 180.703125 115.773438 180.535156 115.925781 180.402344 C 116.078125 180.269531 116.253906 180.203125 116.449219 180.203125 C 116.644531 180.203125 116.816406 180.269531 116.964844 180.402344 C 117.113281 180.535156 117.183594 180.703125 117.183594 180.898438 C 117.183594 181.09375 117.113281 181.261719 116.964844 181.394531 C 116.816406 181.527344 116.644531 181.59375 116.449219 181.59375 C 116.253906 181.59375 116.078125 181.527344 115.925781 181.394531 C 115.773438 181.261719 115.699219 181.09375 115.699219 180.898438 Z M 122.074219 187.5 C 122.539062 187.5 122.988281 187.339844 123.429688 187.019531 L 124.003906 187.945312 C 123.710938 188.140625 123.390625 188.292969 123.046875 188.40625 C 122.703125 188.515625 122.371094 188.574219 122.046875 188.574219 C 121.433594 188.574219 120.894531 188.445312 120.433594 188.191406 C 119.972656 187.9375 119.617188 187.585938 119.367188 187.140625 C 119.117188 186.695312 118.992188 186.1875 118.992188 185.625 C 118.992188 185.082031 119.128906 184.585938 119.402344 184.132812 C 119.675781 183.683594 120.046875 183.324219 120.519531 183.0625 C 120.996094 182.796875 121.511719 182.667969 122.074219 182.667969 C 122.796875 182.667969 123.402344 182.878906 123.890625 183.304688 C 124.375 183.726562 124.710938 184.320312 124.886719 185.078125 L 120.492188 186.617188 C 120.65625 186.894531 120.871094 187.109375 121.144531 187.265625 C 121.417969 187.421875 121.726562 187.5 122.074219 187.5 Z M 121.980469 183.65625 C 121.472656 183.65625 121.050781 183.835938 120.722656 184.195312 C 120.390625 184.550781 120.226562 185.007812 120.226562 185.558594 C 120.226562 185.695312 120.230469 185.796875 120.238281 185.867188 L 123.46875 184.675781 C 123.335938 184.371094 123.144531 184.125 122.898438 183.9375 C 122.652344 183.75 122.347656 183.65625 121.980469 183.65625 Z M 130.152344 182.679688 C 130.671875 182.679688 131.097656 182.835938 131.4375 183.140625 C 131.777344 183.449219 131.953125 183.851562 131.960938 184.339844 L 131.960938 188.4375 L 130.703125 188.4375 L 130.703125 184.769531 C 130.683594 184.457031 130.589844 184.210938 130.421875 184.03125 C 130.25 183.855469 129.996094 183.761719 129.65625 183.75 C 129.164062 183.75 128.757812 183.949219 128.4375 184.339844 C 128.117188 184.734375 127.957031 185.234375 127.957031 185.839844 L 127.957031 188.4375 L 126.710938 188.4375 L 126.710938 182.894531 L 127.835938 182.894531 L 127.914062 183.964844 C 128.113281 183.5625 128.40625 183.25 128.800781 183.023438 C 129.191406 182.792969 129.644531 182.679688 130.152344 182.679688 Z M 136.984375 187.5 C 137.449219 187.5 137.898438 187.339844 138.335938 187.019531 L 138.914062 187.945312 C 138.617188 188.140625 138.300781 188.292969 137.957031 188.40625 C 137.613281 188.515625 137.277344 188.574219 136.957031 188.574219 C 136.339844 188.574219 135.804688 188.445312 135.34375 188.191406 C 134.882812 187.9375 134.527344 187.585938 134.277344 187.140625 C 134.027344 186.695312 133.902344 186.1875 133.902344 185.625 C 133.902344 185.082031 134.039062 184.585938 134.3125 184.132812 C 134.585938 183.683594 134.957031 183.324219 135.429688 183.0625 C 135.902344 182.796875 136.421875 182.667969 136.984375 182.667969 C 137.707031 182.667969 138.3125 182.878906 138.800781 183.304688 C 139.285156 183.726562 139.617188 184.320312 139.796875 185.078125 L 135.402344 186.617188 C 135.5625 186.894531 135.78125 187.109375 136.054688 187.265625 C 136.324219 187.421875 136.636719 187.5 136.984375 187.5 Z M 136.890625 183.65625 C 136.382812 183.65625 135.960938 183.835938 135.632812 184.195312 C 135.300781 184.550781 135.136719 185.007812 135.136719 185.558594 C 135.136719 185.695312 135.140625 185.796875 135.148438 185.867188 L 138.378906 184.675781 C 138.242188 184.371094 138.054688 184.125 137.808594 183.9375 C 137.5625 183.75 137.257812 183.65625 136.890625 183.65625 Z M 150.660156 178.058594 L 151.90625 178.058594 L 151.90625 188.4375 L 150.648438 188.4375 L 150.648438 187.570312 C 150.378906 187.882812 150.050781 188.125 149.664062 188.304688 C 149.273438 188.484375 148.847656 188.574219 148.382812 188.574219 C 147.867188 188.574219 147.398438 188.449219 146.976562 188.199219 C 146.558594 187.949219 146.230469 187.597656 145.992188 187.148438 C 145.757812 186.695312 145.636719 186.175781 145.636719 185.585938 C 145.636719 184.988281 145.761719 184.46875 146.011719 184.027344 C 146.261719 183.585938 146.605469 183.246094 147.042969 183.015625 C 147.480469 182.78125 147.976562 182.667969 148.53125 182.667969 C 148.953125 182.667969 149.355469 182.753906 149.742188 182.929688 C 150.132812 183.101562 150.4375 183.339844 150.660156 183.644531 Z M 148.773438 187.5 C 149.253906 187.5 149.664062 187.371094 150 187.113281 C 150.332031 186.855469 150.550781 186.507812 150.648438 186.070312 L 150.648438 185.023438 C 150.539062 184.621094 150.3125 184.292969 149.964844 184.039062 C 149.617188 183.785156 149.21875 183.65625 148.773438 183.65625 C 148.433594 183.65625 148.121094 183.742188 147.835938 183.90625 C 147.550781 184.070312 147.320312 184.296875 147.152344 184.589844 C 146.980469 184.878906 146.898438 185.207031 146.898438 185.574219 C 146.898438 185.929688 146.980469 186.257812 147.152344 186.550781 C 147.320312 186.84375 147.550781 187.078125 147.835938 187.246094 C 148.121094 187.417969 148.433594 187.5 148.773438 187.5 Z M 153.847656 185.613281 C 153.847656 185.070312 153.980469 184.570312 154.246094 184.121094 C 154.507812 183.667969 154.875 183.3125 155.34375 183.054688 C 155.8125 182.796875 156.339844 182.667969 156.929688 182.667969 C 157.519531 182.667969 158.042969 182.796875 158.503906 183.054688 C 158.964844 183.3125 159.320312 183.667969 159.578125 184.113281 C 159.832031 184.558594 159.957031 185.058594 159.957031 185.613281 C 159.957031 186.167969 159.832031 186.667969 159.578125 187.121094 C 159.320312 187.570312 158.960938 187.925781 158.496094 188.183594 C 158.035156 188.445312 157.503906 188.574219 156.902344 188.574219 C 156.324219 188.574219 155.800781 188.449219 155.335938 188.203125 C 154.871094 187.960938 154.507812 187.613281 154.246094 187.167969 C 153.980469 186.71875 153.847656 186.203125 153.847656 185.613281 Z M 155.109375 185.625 C 155.109375 185.976562 155.1875 186.296875 155.34375 186.589844 C 155.5 186.886719 155.714844 187.117188 155.984375 187.289062 C 156.257812 187.457031 156.558594 187.542969 156.890625 187.542969 C 157.410156 187.542969 157.835938 187.359375 158.175781 186.992188 C 158.515625 186.625 158.683594 186.171875 158.683594 185.625 C 158.683594 185.082031 158.515625 184.625 158.175781 184.253906 C 157.835938 183.882812 157.410156 183.699219 156.890625 183.699219 C 156.550781 183.699219 156.246094 183.785156 155.980469 183.960938 C 155.710938 184.132812 155.5 184.367188 155.34375 184.664062 C 155.1875 184.957031 155.109375 185.277344 155.109375 185.625 Z M 170.875 182.894531 L 167.726562 187.40625 L 170.820312 187.40625 L 170.820312 188.4375 L 165.691406 188.4375 L 168.839844 183.914062 L 166.925781 183.914062 C 166.628906 183.914062 166.386719 183.824219 166.199219 183.652344 C 166.011719 183.476562 165.917969 183.226562 165.917969 182.894531 L 165.917969 182.359375 L 166.871094 182.359375 L 166.871094 182.53125 C 166.871094 182.675781 166.902344 182.773438 166.972656 182.820312 C 167.039062 182.871094 167.15625 182.894531 167.324219 182.894531 Z M 172.390625 185.613281 C 172.390625 185.070312 172.519531 184.570312 172.785156 184.121094 C 173.046875 183.667969 173.414062 183.3125 173.882812 183.054688 C 174.351562 182.796875 174.882812 182.667969 175.46875 182.667969 C 176.058594 182.667969 176.585938 182.796875 177.042969 183.054688 C 177.503906 183.3125 177.863281 183.667969 178.117188 184.113281 C 178.371094 184.558594 178.496094 185.058594 178.496094 185.613281 C 178.496094 186.167969 178.371094 186.667969 178.117188 187.121094 C 177.863281 187.570312 177.503906 187.925781 177.039062 188.183594 C 176.574219 188.445312 176.042969 188.574219 175.445312 188.574219 C 174.863281 188.574219 174.339844 188.449219 173.875 188.203125 C 173.410156 187.960938 173.046875 187.613281 172.785156 187.167969 C 172.519531 186.71875 172.390625 186.203125 172.390625 185.613281 Z M 173.648438 185.625 C 173.648438 185.976562 173.726562 186.296875 173.882812 186.589844 C 174.039062 186.886719 174.253906 187.117188 174.527344 187.289062 C 174.796875 187.457031 175.101562 187.542969 175.429688 187.542969 C 175.949219 187.542969 176.375 187.359375 176.714844 186.992188 C 177.054688 186.625 177.226562 186.171875 177.226562 185.625 C 177.226562 185.082031 177.054688 184.625 176.714844 184.253906 C 176.375 183.882812 175.949219 183.699219 175.429688 183.699219 C 175.089844 183.699219 174.789062 183.785156 174.519531 183.960938 C 174.25 184.132812 174.039062 184.367188 173.882812 184.664062 C 173.726562 184.957031 173.648438 185.277344 173.648438 185.625 Z M 181.644531 184.207031 C 181.789062 183.902344 181.992188 183.636719 182.253906 183.402344 C 182.519531 183.171875 182.796875 182.992188 183.09375 182.867188 C 183.386719 182.742188 183.644531 182.675781 183.871094 182.667969 L 183.816406 183.914062 C 183.414062 183.894531 183.050781 183.976562 182.722656 184.152344 C 182.398438 184.332031 182.144531 184.578125 181.960938 184.898438 C 181.777344 185.214844 181.6875 185.550781 181.6875 185.90625 L 181.6875 188.4375 L 180.441406 188.4375 L 180.441406 182.894531 L 181.550781 182.894531 Z M 185.746094 182.894531 L 186.992188 182.894531 L 186.992188 188.4375 L 185.746094 188.4375 Z M 185.652344 180.898438 C 185.652344 180.703125 185.726562 180.535156 185.878906 180.402344 C 186.03125 180.269531 186.203125 180.203125 186.402344 180.203125 C 186.597656 180.203125 186.769531 180.269531 186.917969 180.402344 C 187.0625 180.535156 187.136719 180.703125 187.136719 180.898438 C 187.136719 181.09375 187.0625 181.261719 186.917969 181.394531 C 186.769531 181.527344 186.597656 181.59375 186.402344 181.59375 C 186.203125 181.59375 186.03125 181.527344 185.878906 181.394531 C 185.726562 181.261719 185.652344 181.09375 185.652344 180.898438 Z M 185.652344 180.898438 "/>
</g>
<g clip-path="url(#clip2)" clip-rule="nonzero">
<g clip-path="url(#clip3)" clip-rule="nonzero">
<path style=" stroke:none;fill-rule:nonzero;fill:rgb(11.764706%,11.764706%,11.764706%);fill-opacity:1;" d="M 68.867188 166.675781 C 66.800781 169.042969 64.300781 170.484375 61.375 171.003906 C 58.03125 171.589844 55.804688 171.023438 54.699219 169.292969 C 54.4375 168.886719 54.257812 168.390625 54.15625 167.804688 C 54.050781 167.222656 54.238281 166.542969 54.71875 165.761719 C 55.460938 164.535156 56.664062 163.777344 58.324219 163.484375 C 59.4375 163.289062 60.59375 163.289062 61.792969 163.492188 C 62.992188 163.695312 65.164062 164.308594 68.308594 165.332031 C 69.386719 163.859375 70.390625 161.972656 71.320312 159.667969 C 72.25 157.367188 73.019531 155.167969 73.625 153.070312 C 74.230469 150.972656 75.011719 148.664062 75.972656 146.144531 C 76.929688 143.625 77.949219 141.492188 79.035156 139.753906 C 75.824219 138.527344 72.585938 138.203125 69.320312 138.78125 C 67.972656 139.019531 66.625 139.402344 65.277344 139.933594 C 61.410156 141.5 58.660156 143.785156 57.027344 146.800781 C 56.011719 148.636719 55.632812 150.277344 55.890625 151.730469 C 56.238281 153.699219 57.410156 154.816406 59.40625 155.078125 C 60.113281 155.140625 60.710938 155.128906 61.203125 155.039062 C 61.695312 154.953125 62.234375 154.777344 62.816406 154.515625 C 63.398438 154.253906 63.9375 153.785156 64.433594 153.109375 C 65.371094 151.769531 65.792969 150.597656 65.695312 149.597656 C 65.683594 149.363281 65.816406 149.25 66.097656 149.269531 C 66.382812 149.285156 66.527344 149.464844 66.535156 149.8125 C 66.609375 151.75 65.867188 153.363281 64.304688 154.65625 C 63.339844 155.410156 62.328125 155.882812 61.265625 156.070312 L 59.183594 156.078125 C 57.09375 155.753906 55.578125 154.722656 54.628906 152.992188 C 54.246094 152.339844 53.996094 151.664062 53.871094 150.964844 C 53.621094 149.539062 53.902344 148.03125 54.71875 146.445312 C 56.460938 142.984375 60.160156 140.316406 65.8125 138.4375 C 66.925781 138.082031 68.039062 137.804688 69.15625 137.609375 C 72.757812 136.972656 76.34375 137.222656 79.910156 138.355469 C 80.714844 137.011719 81.492188 135.960938 82.238281 135.199219 C 82.988281 134.441406 83.621094 134.015625 84.140625 133.921875 C 84.425781 133.875 84.601562 133.902344 84.675781 134.007812 C 84.746094 134.117188 84.757812 134.207031 84.703125 134.285156 C 84.652344 134.359375 84.570312 134.410156 84.46875 134.425781 C 84.027344 134.503906 83.539062 135.070312 83.003906 136.128906 C 82.46875 137.183594 82.050781 138.152344 81.753906 139.035156 C 84.851562 140.382812 87.378906 142.371094 89.335938 144.988281 C 90.910156 147.089844 91.9375 149.5 92.417969 152.222656 C 93.011719 155.589844 92.679688 158.414062 91.425781 160.695312 C 90.390625 162.558594 88.988281 163.996094 87.214844 165.003906 C 85.101562 166.203125 82.941406 167 80.738281 167.386719 C 76.28125 168.171875 72.324219 167.9375 68.867188 166.675781 Z M 69.679688 165.808594 C 72.570312 166.902344 75.777344 167.140625 79.304688 166.519531 C 83.398438 165.796875 86.457031 164.054688 88.484375 161.292969 C 90.09375 159.058594 90.605469 156.269531 90.015625 152.925781 C 89.59375 150.542969 88.734375 148.382812 87.429688 146.449219 C 85.792969 143.984375 83.675781 142.0625 81.082031 140.675781 C 80.535156 141.972656 79.503906 144.578125 77.988281 148.496094 C 76.472656 152.410156 75.171875 155.597656 74.082031 158.058594 C 72.996094 160.523438 72.105469 162.289062 71.410156 163.359375 C 70.71875 164.429688 70.140625 165.25 69.679688 165.808594 Z M 67.4375 166.285156 C 64.148438 165.371094 62.078125 164.839844 61.222656 164.695312 C 60.371094 164.554688 59.558594 164.546875 58.796875 164.683594 C 58.03125 164.816406 57.472656 165.210938 57.121094 165.859375 C 56.765625 166.511719 56.628906 167.0625 56.710938 167.515625 C 56.789062 167.96875 56.96875 168.386719 57.25 168.761719 C 57.992188 169.78125 59.203125 170.140625 60.886719 169.84375 C 63.375 169.40625 65.558594 168.21875 67.4375 166.285156 Z M 98.835938 147.242188 C 98.527344 147.617188 98.152344 147.84375 97.710938 147.921875 C 97.269531 148 96.894531 147.90625 96.578125 147.640625 C 96.265625 147.375 96.09375 147.019531 96.070312 146.570312 C 96.070312 146.113281 96.222656 145.699219 96.53125 145.324219 C 96.839844 144.949219 97.214844 144.722656 97.65625 144.644531 C 98.09375 144.566406 98.480469 144.660156 98.804688 144.921875 C 99.132812 145.1875 99.296875 145.546875 99.296875 146 C 99.296875 146.453125 99.140625 146.867188 98.835938 147.242188 Z M 97.539062 162.179688 C 98.03125 162.09375 98.507812 161.753906 98.964844 161.167969 C 99.753906 160.039062 100.628906 157.867188 101.585938 154.652344 C 101.695312 154.234375 101.859375 154.085938 102.066406 154.207031 C 102.128906 154.25 102.167969 154.332031 102.1875 154.445312 C 102.210938 154.5625 102.15625 154.867188 102.027344 155.355469 C 101.902344 155.847656 101.785156 156.289062 101.679688 156.679688 C 101.578125 157.074219 101.355469 157.71875 101.019531 158.621094 C 100.683594 159.519531 100.363281 160.226562 100.050781 160.734375 C 99.203125 162.140625 98.304688 162.925781 97.359375 163.09375 C 96.414062 163.261719 95.683594 163.09375 95.167969 162.597656 C 94.652344 162.101562 94.332031 161.503906 94.210938 160.804688 C 94.085938 160.105469 94.121094 159.308594 94.3125 158.421875 L 95.683594 151.648438 C 95.707031 151.480469 95.695312 151.269531 95.652344 151.011719 C 95.605469 150.75 95.390625 150.441406 95.003906 150.082031 L 97.136719 149.667969 C 97.734375 149.5625 98.101562 149.609375 98.246094 149.8125 C 98.386719 150.015625 98.371094 150.371094 98.195312 150.882812 L 96.363281 158.699219 C 96.09375 159.738281 96.015625 160.589844 96.136719 161.265625 C 96.269531 162.015625 96.734375 162.320312 97.539062 162.179688 Z M 106.113281 160.789062 C 106.460938 160.78125 106.699219 160.765625 106.828125 160.742188 C 107.863281 160.558594 108.78125 159.769531 109.578125 158.375 C 110 157.605469 110.675781 155.734375 111.59375 152.769531 C 111.625 152.628906 111.703125 152.550781 111.832031 152.527344 C 112.0625 152.460938 112.195312 152.527344 112.230469 152.738281 C 112.238281 152.789062 112.207031 152.949219 112.132812 153.214844 C 112.0625 153.480469 111.992188 153.746094 111.933594 154.011719 C 111.875 154.277344 111.769531 154.660156 111.617188 155.167969 C 111.464844 155.675781 111.332031 156.089844 111.214844 156.402344 C 111.09375 156.71875 110.941406 157.105469 110.757812 157.566406 C 110.570312 158.027344 110.367188 158.394531 110.148438 158.675781 L 109.484375 159.671875 C 109.121094 160.191406 108.65625 160.59375 108.09375 160.878906 C 107.191406 161.359375 106.261719 161.550781 105.308594 161.453125 C 104.757812 161.816406 104.25 162.039062 103.78125 162.121094 C 101.941406 162.445312 100.699219 161.917969 100.054688 160.535156 C 99.917969 160.210938 99.808594 159.808594 99.722656 159.332031 C 99.636719 158.851562 99.71875 158.363281 99.964844 157.863281 C 100.210938 157.367188 100.515625 157.074219 100.871094 156.984375 C 101.75 154.238281 102.480469 151.769531 103.054688 149.585938 C 103.703125 147.199219 104.714844 145.886719 106.089844 145.644531 C 106.453125 145.578125 106.824219 145.601562 107.203125 145.707031 C 107.582031 145.8125 107.746094 145.980469 107.691406 146.203125 C 107.636719 146.425781 107.457031 146.496094 107.148438 146.417969 C 106.839844 146.339844 106.582031 146.316406 106.375 146.355469 C 106.167969 146.390625 105.992188 146.460938 105.851562 146.566406 C 105.042969 147.136719 104.757812 148.109375 105 149.480469 C 105.128906 150.207031 105.339844 150.785156 105.628906 151.214844 C 105.917969 151.644531 106.238281 152.109375 106.59375 152.609375 C 107.429688 153.851562 107.921875 154.898438 108.070312 155.753906 C 108.222656 156.609375 108.097656 157.5 107.699219 158.425781 C 107.304688 159.351562 106.773438 160.136719 106.113281 160.789062 Z M 104.742188 160.75 C 105.730469 159.667969 106.046875 158.140625 105.699219 156.171875 C 105.558594 155.367188 105.273438 154.285156 104.847656 152.917969 C 104.417969 151.550781 104.160156 150.621094 104.074219 150.128906 C 103.988281 149.632812 103.941406 149.296875 103.933594 149.109375 C 102.660156 153.394531 101.863281 156.007812 101.546875 156.945312 C 102.089844 156.847656 102.433594 157.191406 102.570312 157.96875 C 102.839844 159.496094 103.5625 160.421875 104.742188 160.75 Z M 101.644531 160.214844 C 101.671875 160.371094 101.710938 160.535156 101.769531 160.710938 C 102.101562 161.375 102.644531 161.640625 103.394531 161.507812 C 103.707031 161.453125 103.957031 161.355469 104.144531 161.214844 C 103.082031 160.789062 102.390625 159.910156 102.074219 158.574219 C 101.691406 159.125 101.546875 159.671875 101.644531 160.214844 Z M 121.035156 148.097656 C 120.910156 147.398438 120.5 147.109375 119.796875 147.234375 C 118.761719 147.417969 117.667969 148.21875 116.515625 149.636719 C 115.359375 151.054688 114.445312 152.492188 113.765625 153.949219 C 113.511719 154.769531 113.359375 155.769531 113.316406 156.953125 C 113.269531 158.136719 113.285156 158.949219 113.363281 159.390625 C 113.441406 159.832031 113.570312 160.101562 113.746094 160.203125 L 111.296875 160.636719 C 110.910156 160.703125 110.75 160.378906 110.824219 159.65625 C 110.898438 158.9375 111.03125 158.144531 111.226562 157.28125 C 111.421875 156.417969 111.679688 155.417969 112 154.28125 C 112.320312 153.140625 112.550781 152.28125 112.6875 151.695312 C 111.269531 156.085938 110.304688 158.632812 109.785156 159.339844 C 109.570312 159.617188 109.425781 159.5625 109.355469 159.175781 C 109.34375 159.097656 109.351562 159 109.386719 158.890625 C 110.082031 157.535156 111.320312 153.980469 113.097656 148.214844 C 114.871094 142.453125 116.160156 138.65625 116.960938 136.832031 C 117.621094 135.40625 118.363281 134.621094 119.191406 134.476562 C 119.191406 134.476562 119.207031 134.472656 119.230469 134.46875 L 119.425781 134.433594 C 119.453125 134.429688 119.683594 134.429688 120.125 134.429688 C 120.566406 134.433594 120.886719 134.390625 121.085938 134.300781 C 120.253906 135.195312 119.226562 137.09375 118 139.996094 C 116.777344 142.898438 115.84375 145.414062 115.203125 147.542969 C 114.5625 149.671875 114.164062 151.273438 114.003906 152.34375 C 115.847656 149 117.640625 146.8125 119.382812 145.785156 C 120.214844 145.34375 120.886719 145.078125 121.40625 144.988281 C 122.546875 144.785156 123.203125 145.164062 123.371094 146.125 C 123.425781 146.433594 123.421875 146.796875 123.363281 147.207031 C 123.171875 148.253906 122.582031 149.273438 121.59375 150.261719 C 120.605469 151.253906 119.449219 151.929688 118.125 152.296875 C 117.941406 153.078125 117.90625 153.773438 118.011719 154.382812 C 118.121094 154.992188 118.28125 155.53125 118.496094 156 C 119.027344 157.1875 119.746094 157.851562 120.652344 157.984375 C 120.84375 158.003906 121.027344 158 121.210938 157.964844 C 121.9375 157.839844 122.710938 157.234375 123.535156 156.152344 C 124.183594 155.128906 124.921875 153.171875 125.746094 150.273438 C 125.867188 149.90625 125.992188 149.769531 126.117188 149.867188 C 126.238281 149.964844 126.3125 150.066406 126.328125 150.171875 C 126.347656 150.273438 126.242188 150.8125 126.011719 151.789062 C 125.785156 152.765625 125.417969 153.859375 124.910156 155.070312 C 123.824219 157.558594 122.386719 158.960938 120.597656 159.277344 C 119.511719 159.46875 118.613281 159.304688 117.90625 158.789062 C 116.898438 158.058594 116.265625 156.980469 116.015625 155.554688 C 115.886719 154.832031 115.949219 154.058594 116.207031 153.238281 C 116.464844 152.417969 116.847656 151.9375 117.355469 151.792969 C 117.433594 151.777344 117.511719 151.765625 117.589844 151.75 C 118.496094 151.589844 119.320312 151.085938 120.066406 150.234375 C 120.8125 149.378906 121.132812 148.667969 121.035156 148.097656 Z M 131.683594 143.015625 C 133.574219 142.679688 134.730469 143.707031 135.152344 146.089844 C 135.34375 147.179688 135.261719 148.394531 134.914062 149.738281 C 134.484375 151.550781 133.664062 153.273438 132.457031 154.902344 C 132.90625 155.488281 133.574219 155.707031 134.453125 155.550781 C 135.152344 155.425781 135.753906 154.960938 136.25 154.152344 C 136.886719 153.210938 137.320312 152.40625 137.550781 151.738281 C 137.78125 151.070312 137.945312 150.578125 138.050781 150.265625 C 138.15625 149.953125 138.285156 149.511719 138.4375 148.9375 C 138.589844 148.363281 138.683594 148.011719 138.714844 147.886719 C 138.746094 147.761719 138.828125 147.6875 138.957031 147.664062 C 139.210938 147.589844 139.355469 147.660156 139.390625 147.867188 C 139.40625 147.945312 139.394531 148.039062 139.363281 148.152344 L 139.226562 148.738281 C 139.132812 149.128906 139.0625 149.40625 139.011719 149.578125 C 138.960938 149.746094 138.875 150.050781 138.75 150.484375 C 138.628906 150.921875 138.515625 151.269531 138.414062 151.527344 C 138.3125 151.785156 138.171875 152.128906 137.996094 152.5625 C 137.816406 152.992188 137.652344 153.34375 137.5 153.613281 C 137.347656 153.878906 137.152344 154.179688 136.917969 154.515625 C 136.683594 154.851562 136.449219 155.117188 136.21875 155.320312 C 135.636719 155.824219 135.0625 156.125 134.492188 156.226562 C 133.429688 156.414062 132.542969 156.222656 131.824219 155.652344 C 130.789062 156.746094 129.765625 157.378906 128.753906 157.558594 C 126.863281 157.890625 125.707031 156.867188 125.285156 154.480469 C 125.09375 153.394531 125.171875 152.175781 125.523438 150.832031 C 125.980469 148.882812 126.804688 147.148438 127.992188 145.628906 C 129.183594 144.109375 130.410156 143.238281 131.683594 143.015625 Z M 132.320312 144.144531 C 131.621094 144.265625 130.875 144.878906 130.082031 145.980469 C 129.285156 147.082031 128.65625 148.503906 128.1875 150.242188 C 127.609375 152.269531 127.425781 153.878906 127.632812 155.070312 C 127.84375 156.261719 128.402344 156.777344 129.308594 156.617188 C 129.957031 156.503906 130.621094 156.027344 131.300781 155.183594 C 130.78125 154.660156 130.464844 154.0625 130.34375 153.390625 C 130.199219 152.265625 130.554688 151.628906 131.410156 151.480469 C 131.746094 151.417969 132.046875 151.488281 132.308594 151.679688 C 132.570312 151.875 132.71875 152.070312 132.75 152.265625 C 132.785156 152.457031 132.796875 152.664062 132.78125 152.878906 C 133.105469 152.15625 133.449219 151.144531 133.808594 149.851562 C 134.226562 148.417969 134.320312 147.066406 134.097656 145.796875 C 133.871094 144.523438 133.28125 143.976562 132.320312 144.144531 Z M 138.507812 152.632812 C 138.128906 150.480469 138.53125 146.695312 139.714844 141.277344 L 137.691406 141.632812 C 137.5625 141.65625 137.464844 141.601562 137.402344 141.464844 C 137.335938 141.328125 137.324219 141.183594 137.367188 141.03125 C 137.40625 140.875 137.488281 140.789062 137.621094 140.765625 L 139.953125 140.355469 C 140.523438 138.140625 141.089844 136.277344 141.652344 134.765625 C 142.214844 133.25 142.789062 132.191406 143.378906 131.59375 C 143.96875 130.996094 144.410156 130.671875 144.710938 130.617188 C 145.007812 130.566406 145.226562 130.554688 145.363281 130.582031 C 146.011719 130.761719 146.414062 131.300781 146.570312 132.191406 C 146.726562 133.085938 146.621094 134.222656 146.25 135.597656 C 145.875 136.972656 145.5 138.253906 145.121094 139.441406 L 146.988281 139.113281 C 147.117188 139.089844 147.214844 139.148438 147.28125 139.28125 C 147.34375 139.417969 147.355469 139.5625 147.316406 139.714844 C 147.277344 139.871094 147.191406 139.960938 147.0625 139.980469 L 144.808594 140.378906 C 143.804688 143.039062 142.460938 145.484375 140.765625 147.703125 L 140.570312 151.828125 C 140.554688 152.175781 140.574219 152.515625 140.628906 152.839844 C 140.6875 153.164062 140.835938 153.476562 141.078125 153.78125 C 141.316406 154.085938 141.632812 154.203125 142.019531 154.136719 C 142.460938 154.058594 142.925781 153.816406 143.417969 153.410156 C 144.496094 152.257812 145.523438 150.058594 146.503906 146.8125 C 146.566406 146.5625 146.664062 146.398438 146.796875 146.320312 C 146.929688 146.242188 147.019531 146.261719 147.066406 146.375 C 147.113281 146.484375 147.105469 146.679688 147.050781 146.957031 C 146.507812 148.898438 146.058594 150.285156 145.699219 151.125 C 144.695312 153.625 143.40625 155.015625 141.824219 155.292969 C 141.019531 155.433594 140.308594 155.253906 139.683594 154.75 C 139.0625 154.246094 138.667969 153.539062 138.507812 152.632812 Z M 142.324219 139.9375 L 144.265625 139.59375 C 145.4375 136.234375 145.917969 133.957031 145.710938 132.765625 C 145.617188 132.246094 145.480469 132.003906 145.300781 132.035156 C 145.015625 132.085938 144.652344 132.578125 144.21875 133.511719 C 143.78125 134.441406 143.148438 136.582031 142.324219 139.9375 Z M 143.914062 140.539062 L 142.085938 140.859375 C 141.902344 141.640625 141.507812 143.488281 140.898438 146.398438 C 142.042969 144.703125 143.046875 142.746094 143.914062 140.539062 Z M 148.460938 147.910156 C 148.253906 148.855469 148.246094 149.871094 148.4375 150.960938 C 148.566406 151.6875 148.828125 152.234375 149.226562 152.605469 C 149.628906 152.976562 150.125 153.109375 150.722656 153.003906 C 153.078125 152.585938 154.828125 149.996094 155.964844 145.226562 C 156.070312 144.777344 156.261719 144.558594 156.527344 144.566406 C 156.636719 144.574219 156.699219 144.628906 156.71875 144.730469 C 156.738281 144.835938 156.566406 145.566406 156.203125 146.925781 C 155.84375 148.285156 155.433594 149.40625 154.972656 150.289062 C 153.972656 152.335938 152.496094 153.53125 150.554688 153.875 C 149.515625 154.058594 148.578125 153.875 147.730469 153.328125 C 146.886719 152.785156 146.363281 151.929688 146.15625 150.761719 C 145.949219 149.597656 146.011719 148.308594 146.339844 146.902344 C 146.664062 145.496094 147.207031 144.144531 147.96875 142.847656 C 148.726562 141.550781 149.683594 140.535156 150.835938 139.796875 C 151.386719 139.433594 151.933594 139.203125 152.480469 139.105469 C 153.023438 139.011719 153.558594 139.078125 154.078125 139.304688 C 154.582031 139.589844 154.875 139.953125 154.953125 140.394531 C 155.226562 141.949219 154.554688 143.605469 152.941406 145.359375 C 152.449219 145.898438 151.714844 146.4375 150.738281 146.96875 C 149.765625 147.5 149.003906 147.816406 148.460938 147.910156 Z M 153.894531 140.539062 C 153.804688 140.023438 153.550781 139.800781 153.136719 139.871094 C 152.410156 140 151.464844 141.089844 150.304688 143.136719 C 149.613281 144.382812 149.050781 145.734375 148.617188 147.203125 C 149.054688 147.125 149.671875 146.855469 150.457031 146.398438 C 151.246094 145.9375 151.90625 145.394531 152.433594 144.765625 C 153.644531 143.296875 154.132812 141.886719 153.894531 140.539062 Z M 165.511719 140.253906 C 165.386719 139.554688 164.976562 139.269531 164.277344 139.390625 C 163.238281 139.574219 162.144531 140.375 160.992188 141.792969 C 159.839844 143.214844 158.921875 144.652344 158.242188 146.105469 C 157.988281 146.925781 157.835938 147.929688 157.792969 149.113281 C 157.746094 150.296875 157.761719 151.105469 157.839844 151.546875 C 157.917969 151.988281 158.046875 152.257812 158.222656 152.363281 L 155.773438 152.792969 C 155.386719 152.863281 155.226562 152.535156 155.300781 151.816406 C 155.375 151.09375 155.507812 150.300781 155.703125 149.4375 C 155.898438 148.578125 156.15625 147.574219 156.476562 146.4375 C 156.796875 145.296875 157.027344 144.4375 157.164062 143.851562 C 155.746094 148.242188 154.78125 150.792969 154.261719 151.496094 C 154.046875 151.777344 153.902344 151.722656 153.832031 151.332031 C 153.820312 151.253906 153.828125 151.160156 153.863281 151.046875 C 154.558594 149.695312 155.796875 146.136719 157.574219 140.371094 C 159.351562 134.609375 160.636719 130.816406 161.4375 128.992188 C 162.097656 127.566406 162.839844 126.78125 163.667969 126.632812 C 163.667969 126.632812 163.683594 126.632812 163.707031 126.625 L 163.902344 126.59375 C 163.929688 126.585938 164.164062 126.585938 164.605469 126.589844 C 165.046875 126.589844 165.363281 126.546875 165.5625 126.460938 C 164.730469 127.355469 163.703125 129.253906 162.476562 132.152344 C 161.253906 135.054688 160.320312 137.570312 159.679688 139.699219 C 159.039062 141.832031 158.640625 143.429688 158.480469 144.5 C 160.324219 141.15625 162.117188 138.96875 163.859375 137.941406 C 164.691406 137.5 165.367188 137.234375 165.882812 137.144531 C 167.023438 136.941406 167.679688 137.320312 167.847656 138.28125 C 167.902344 138.589844 167.898438 138.953125 167.839844 139.363281 C 167.648438 140.414062 167.0625 141.433594 166.074219 142.421875 C 165.085938 143.410156 163.929688 144.089844 162.601562 144.457031 C 162.417969 145.234375 162.382812 145.929688 162.488281 146.539062 C 162.597656 147.148438 162.757812 147.6875 162.976562 148.15625 C 163.503906 149.347656 164.222656 150.007812 165.128906 150.140625 C 165.320312 150.160156 165.503906 150.15625 165.6875 150.125 C 166.414062 149.996094 167.1875 149.390625 168.011719 148.3125 C 168.660156 147.289062 169.398438 145.328125 170.222656 142.429688 C 170.34375 142.0625 170.46875 141.925781 170.59375 142.023438 C 170.71875 142.125 170.789062 142.222656 170.804688 142.328125 C 170.824219 142.429688 170.71875 142.972656 170.492188 143.945312 C 170.261719 144.921875 169.894531 146.015625 169.386719 147.226562 C 168.300781 149.714844 166.863281 151.117188 165.074219 151.433594 C 163.988281 151.625 163.089844 151.464844 162.382812 150.945312 C 161.375 150.214844 160.742188 149.140625 160.492188 147.714844 C 160.363281 146.988281 160.429688 146.214844 160.683594 145.394531 C 160.941406 144.574219 161.324219 144.09375 161.832031 143.949219 C 161.910156 143.9375 161.988281 143.921875 162.066406 143.910156 C 162.972656 143.75 163.796875 143.242188 164.542969 142.390625 C 165.289062 141.539062 165.609375 140.824219 165.511719 140.253906 Z M 181.445312 137.40625 C 181.058594 137.953125 180.585938 139.128906 180.019531 140.921875 C 179.453125 142.71875 179.160156 144.042969 179.136719 144.886719 C 179.109375 145.734375 179.140625 146.410156 179.230469 146.914062 C 179.320312 147.417969 179.558594 147.636719 179.949219 147.570312 C 180.441406 147.480469 180.96875 146.921875 181.535156 145.886719 C 182.367188 144.378906 183.113281 142.46875 183.773438 140.160156 C 183.835938 139.910156 183.929688 139.761719 184.054688 139.710938 C 184.25 139.597656 184.367188 139.65625 184.40625 139.890625 C 184.429688 140.019531 184.417969 140.179688 184.371094 140.375 C 182.839844 145.617188 181.253906 148.382812 179.621094 148.667969 C 178.871094 148.800781 178.195312 148.546875 177.601562 147.902344 C 177.300781 147.554688 177.09375 147.058594 176.976562 146.410156 C 176.863281 145.761719 176.855469 144.949219 176.949219 143.96875 C 175.464844 147.679688 173.972656 149.664062 172.46875 149.929688 C 172.054688 150.003906 171.652344 149.941406 171.273438 149.742188 C 170.398438 149.332031 169.84375 148.46875 169.613281 147.148438 C 169.164062 144.609375 169.8125 141.835938 171.550781 138.828125 C 172.539062 137.160156 173.902344 135.945312 175.640625 135.183594 C 176.109375 134.96875 176.566406 134.820312 177.003906 134.742188 C 178.199219 134.53125 179.28125 134.769531 180.257812 135.453125 C 180.566406 135.691406 180.691406 135.949219 180.632812 136.226562 C 180.578125 136.503906 180.375 136.644531 180.027344 136.652344 C 179.578125 135.769531 178.875 135.414062 177.914062 135.582031 C 176.800781 135.78125 175.582031 136.902344 174.261719 138.953125 C 173.511719 140.15625 172.855469 141.527344 172.300781 143.066406 C 171.585938 144.929688 171.316406 146.367188 171.496094 147.375 C 171.675781 148.386719 172.085938 148.835938 172.734375 148.722656 C 174.289062 148.445312 175.90625 145.703125 177.578125 140.492188 C 177.902344 139.445312 178.199219 138.71875 178.476562 138.308594 C 178.75 137.902344 179.148438 137.652344 179.667969 137.558594 C 179.769531 137.539062 180.042969 137.53125 180.484375 137.535156 C 180.925781 137.539062 181.246094 137.496094 181.445312 137.40625 Z M 207.511719 128.601562 C 206.234375 130.75 204.996094 132.570312 203.804688 134.066406 C 202.609375 135.558594 201.761719 136.609375 201.253906 137.21875 C 200.746094 137.828125 200.042969 138.65625 199.144531 139.695312 C 198.246094 140.734375 197.773438 141.285156 197.734375 141.347656 C 200.949219 142.304688 202.867188 142.726562 203.488281 142.617188 C 204.109375 142.507812 204.707031 142.175781 205.277344 141.621094 C 205.847656 141.066406 206.308594 140.503906 206.664062 139.933594 C 207.015625 139.363281 207.242188 139.054688 207.34375 139.011719 L 207.65625 139.195312 L 207.683594 139.351562 C 205.6875 142.882812 203.910156 144.785156 202.355469 145.0625 C 201.8125 145.15625 200.988281 145.074219 199.886719 144.816406 C 198.785156 144.554688 197.863281 144.328125 197.121094 144.140625 C 196.382812 143.949219 195.96875 143.847656 195.886719 143.835938 L 193.542969 146.453125 L 192.980469 146.234375 C 192.984375 146.097656 193.46875 145.273438 194.429688 143.753906 C 195.390625 142.234375 195.929688 141.4375 196.050781 141.363281 C 196.429688 141.242188 196.71875 141.207031 196.914062 141.25 C 203.730469 132.621094 206.875 126.804688 206.34375 123.796875 C 206.140625 122.65625 205.394531 122.203125 204.097656 122.429688 C 202.800781 122.660156 201.675781 123.503906 200.71875 124.96875 C 199.761719 126.433594 199.128906 127.96875 198.824219 129.574219 L 198.695312 129.753906 L 198.230469 129.835938 L 198.109375 129.617188 C 198.449219 127.609375 199.230469 125.753906 200.457031 124.054688 C 201.679688 122.355469 203.199219 121.347656 205.011719 121.027344 C 206.050781 120.84375 206.949219 120.980469 207.710938 121.433594 C 208.472656 121.886719 208.949219 122.65625 209.140625 123.746094 C 209.332031 124.832031 208.789062 126.453125 207.511719 128.601562 Z M 214.652344 142.492188 L 214.289062 142.476562 L 214.207031 142.25 C 215.097656 139.714844 216.347656 136.128906 217.960938 131.488281 C 219.574219 126.847656 220.722656 123.574219 221.402344 121.664062 C 219.636719 123.925781 217.804688 125.890625 215.90625 127.5625 L 215.75 127.589844 L 215.539062 127.304688 L 215.578125 127.058594 C 218.5625 123.835938 220.464844 121.589844 221.285156 120.320312 C 222.101562 119.054688 222.730469 118.355469 223.160156 118.226562 L 224.34375 117.898438 C 224.371094 117.894531 224.398438 117.890625 224.421875 117.882812 C 224.449219 117.878906 224.503906 117.882812 224.585938 117.894531 L 224.621094 118.089844 L 216.625 141.863281 C 216.507812 141.964844 215.851562 142.171875 214.652344 142.492188 Z M 241.222656 123.578125 L 241.914062 123.417969 L 242.167969 123.492188 L 242.246094 123.71875 C 242.261719 123.796875 242.015625 124.667969 241.507812 126.335938 C 241 128 240.679688 129.003906 240.554688 129.347656 L 241.488281 129.183594 L 241.75 129.296875 L 241.628906 129.757812 L 241.390625 130.003906 L 240.269531 130.238281 C 238.777344 135.257812 237.988281 137.828125 237.902344 137.953125 C 237.816406 138.074219 237.4375 138.273438 236.765625 138.550781 C 236.09375 138.832031 235.667969 138.988281 235.484375 139.019531 L 235.285156 139.015625 L 235.257812 138.859375 C 235.203125 138.546875 236.0625 135.859375 237.84375 130.789062 L 228.4375 132.6875 L 228.378906 132.375 C 228.53125 131.867188 229.308594 130.597656 230.714844 128.558594 C 233.46875 124.625 235.746094 120.871094 237.546875 117.292969 C 237.953125 116.554688 238.308594 116.085938 238.621094 115.882812 C 238.933594 115.679688 239.167969 115.542969 239.332031 115.476562 C 239.492188 115.40625 239.78125 115.304688 240.199219 115.164062 C 240.613281 115.023438 240.960938 114.902344 241.238281 114.800781 L 241.527344 114.867188 L 241.617188 115.132812 C 241.703125 115.625 240.308594 117.796875 237.433594 121.640625 C 236.652344 122.6875 235.824219 123.777344 234.941406 124.90625 C 234.058594 126.039062 233.285156 127.03125 232.621094 127.882812 C 231.953125 128.734375 231.328125 129.53125 230.738281 130.277344 C 230.148438 131.023438 229.820312 131.441406 229.753906 131.53125 L 238.164062 129.890625 L 239.828125 124.546875 C 239.90625 124.238281 240.070312 124.035156 240.320312 123.9375 C 240.714844 123.734375 241.015625 123.617188 241.222656 123.578125 Z M 241.222656 123.578125 "/>
</g>
</g>
</g>
</svg>
