<?xml version="1.0" encoding="UTF-8"?>
<svg xmlns="http://www.w3.org/2000/svg" xmlns:xlink="http://www.w3.org/1999/xlink" width="px" height="px" viewBox="0 0 266 266" version="1.1">
<defs>
<clipPath id="clip1">
  <path d="M 44.421875 133 L 221.578125 133 L 221.578125 158.035156 L 44.421875 158.035156 Z M 44.421875 133 "/>
</clipPath>
<clipPath id="clip2">
  <path d="M 95.996094 148.023438 L 170.007812 148.023438 L 170.007812 156.535156 L 95.996094 156.535156 Z M 95.996094 148.023438 "/>
</clipPath>
<clipPath id="clip3">
  <path d="M 44.421875 107.964844 L 221.578125 107.964844 L 221.578125 133 L 44.421875 133 Z M 44.421875 107.964844 "/>
</clipPath>
</defs>
<g id="surface1">
<rect x="0" y="0" width="266" height="266" style="fill:rgb(100%,100%,100%);fill-opacity:1;stroke:none;"/>
<g clip-path="url(#clip1)" clip-rule="nonzero">
<path style=" stroke:none;fill-rule:nonzero;fill:rgb(93.72549%,90.980392%,90.980392%);fill-opacity:1;" d="M 44.421875 133.332031 L 44.421875 157.765625 L 50.183594 157.765625 C 52.152344 157.765625 53.703125 157.5 54.828125 156.964844 C 55.953125 156.433594 56.753906 155.617188 57.226562 154.523438 C 57.699219 153.425781 57.9375 151.972656 57.9375 150.164062 L 57.9375 141.265625 C 57.9375 139.414062 57.699219 137.917969 57.226562 136.769531 C 56.753906 135.625 55.964844 134.765625 54.859375 134.191406 C 53.753906 133.617188 52.253906 133.332031 50.363281 133.332031 Z M 48.855469 136.4375 L 50.242188 136.4375 C 51.230469 136.4375 51.941406 136.609375 52.386719 136.953125 C 52.828125 137.292969 53.109375 137.769531 53.230469 138.382812 C 53.351562 138.996094 53.410156 139.90625 53.410156 141.113281 L 53.410156 150.464844 C 53.410156 151.550781 53.339844 152.375 53.199219 152.9375 C 53.058594 153.5 52.761719 153.917969 52.308594 154.191406 C 51.859375 154.460938 51.148438 154.597656 50.183594 154.597656 L 48.855469 154.597656 Z M 61.34375 133.332031 L 61.34375 157.765625 L 65.75 157.765625 L 65.75 133.332031 Z M 75.671875 133 C 73.460938 133 71.804688 133.625 70.710938 134.871094 C 69.613281 136.117188 69.015625 137.976562 68.914062 140.449219 L 72.746094 141.203125 C 72.808594 139.65625 73.054688 138.476562 73.484375 137.660156 C 73.917969 136.847656 74.597656 136.4375 75.523438 136.4375 C 76.207031 136.4375 76.714844 136.644531 77.042969 137.058594 C 77.375 137.46875 77.542969 138.027344 77.542969 138.730469 C 77.542969 139.695312 77.328125 140.515625 76.894531 141.191406 C 76.460938 141.863281 75.78125 142.601562 74.859375 143.40625 L 71.78125 146.089844 C 70.835938 146.894531 70.128906 147.761719 69.65625 148.683594 C 69.183594 149.609375 68.945312 150.714844 68.945312 152.003906 C 68.945312 153.914062 69.503906 155.398438 70.621094 156.453125 C 71.734375 157.507812 73.28125 158.035156 75.25 158.035156 C 77.363281 158.035156 78.875 157.4375 79.789062 156.242188 C 80.703125 155.046875 81.234375 153.429688 81.375 151.398438 L 77.542969 150.738281 C 77.480469 152.0625 77.296875 153.0625 76.984375 153.738281 C 76.671875 154.410156 76.066406 154.75 75.160156 154.75 C 74.515625 154.75 74.011719 154.53125 73.652344 154.101562 C 73.289062 153.667969 73.109375 153.121094 73.109375 152.457031 C 73.109375 151.671875 73.265625 151.011719 73.574219 150.480469 C 73.886719 149.949219 74.394531 149.378906 75.097656 148.777344 L 78.144531 146.089844 C 79.292969 145.105469 80.1875 144.050781 80.832031 142.925781 C 81.472656 141.796875 81.796875 140.492188 81.796875 139.003906 C 81.796875 137.835938 81.539062 136.800781 81.027344 135.894531 C 80.515625 134.992188 79.792969 134.28125 78.871094 133.769531 C 77.945312 133.257812 76.878906 133 75.671875 133 Z M 84.421875 133.332031 L 84.421875 157.765625 L 88.855469 157.765625 L 88.855469 147.027344 L 93.710938 157.765625 L 97.964844 157.765625 L 93.289062 146.875 L 98.445312 133.332031 L 94.011719 133.332031 L 89.941406 144.433594 L 88.855469 142.59375 L 88.855469 133.332031 Z M 106.773438 133 C 104.238281 133 102.429688 133.679688 101.34375 135.035156 C 100.257812 136.394531 99.714844 138.378906 99.714844 140.992188 L 99.714844 150.164062 C 99.714844 152.757812 100.257812 154.71875 101.34375 156.046875 C 102.429688 157.371094 104.238281 158.035156 106.773438 158.035156 C 109.285156 158.035156 111.085938 157.371094 112.171875 156.046875 C 113.257812 154.71875 113.800781 152.757812 113.800781 150.164062 L 113.800781 140.992188 C 113.800781 138.398438 113.253906 136.417969 112.15625 135.050781 C 111.058594 133.683594 109.265625 133 106.773438 133 Z M 106.773438 136.289062 C 107.757812 136.289062 108.421875 136.597656 108.761719 137.222656 C 109.105469 137.847656 109.277344 138.75 109.277344 139.9375 L 109.277344 151.1875 C 109.277344 152.375 109.109375 153.269531 108.777344 153.875 C 108.445312 154.476562 107.777344 154.777344 106.773438 154.777344 C 105.765625 154.777344 105.09375 154.472656 104.75 153.859375 C 104.410156 153.246094 104.238281 152.355469 104.238281 151.1875 L 104.238281 139.9375 C 104.238281 138.75 104.410156 137.847656 104.75 137.222656 C 105.09375 136.597656 105.765625 136.289062 106.773438 136.289062 Z M 119.410156 133.332031 L 119.410156 154.476562 L 115.519531 154.476562 L 115.519531 157.765625 L 127.675781 157.765625 L 127.675781 154.476562 L 123.875 154.476562 L 123.875 133.332031 Z M 129.90625 133.332031 L 129.90625 157.765625 L 140.164062 157.765625 L 140.164062 154.628906 L 134.34375 154.628906 L 134.34375 147.597656 L 138.925781 147.597656 L 138.925781 144.492188 L 134.34375 144.492188 L 134.34375 136.378906 L 140.222656 136.378906 L 140.222656 133.332031 Z M 142.820312 133.332031 L 142.820312 157.765625 L 147.253906 157.765625 L 147.253906 147.027344 L 152.109375 157.765625 L 156.363281 157.765625 L 151.6875 146.875 L 156.84375 133.332031 L 152.410156 133.332031 L 148.339844 144.433594 L 147.253906 142.59375 L 147.253906 133.332031 Z M 157.628906 133.332031 L 162.515625 157.765625 L 167.28125 157.765625 L 172.167969 133.332031 L 168.035156 133.332031 L 167.070312 138.972656 L 162.816406 138.972656 L 161.820312 133.332031 Z M 163.269531 141.808594 L 166.589844 141.808594 L 164.929688 152.0625 Z M 181.339844 133.332031 L 181.339844 136.289062 L 187.371094 145.609375 C 187.472656 145.769531 187.5625 145.910156 187.644531 146.03125 C 187.722656 146.152344 187.792969 146.261719 187.855469 146.363281 C 188.578125 147.488281 189.109375 148.425781 189.453125 149.167969 C 189.792969 149.910156 189.964844 150.757812 189.964844 151.703125 C 189.964844 153.59375 189.300781 154.539062 187.976562 154.539062 C 187.070312 154.539062 186.4375 154.183594 186.074219 153.480469 C 185.710938 152.777344 185.53125 151.832031 185.53125 150.644531 L 185.53125 149.621094 L 181.429688 149.621094 L 181.429688 150.707031 C 181.429688 153 181.945312 154.792969 182.984375 156.089844 C 184.019531 157.386719 185.640625 158.035156 187.855469 158.035156 C 189.90625 158.035156 191.464844 157.476562 192.53125 156.363281 C 193.59375 155.246094 194.128906 153.683594 194.128906 151.671875 C 194.128906 150.425781 193.914062 149.320312 193.480469 148.355469 C 193.046875 147.386719 192.378906 146.203125 191.472656 144.792969 L 191.113281 144.25 L 186.074219 136.679688 L 193.496094 136.679688 L 193.496094 133.332031 Z M 199.617188 133.332031 L 199.617188 153.148438 C 199.417969 153.007812 198.683594 152.777344 197.417969 152.457031 C 196.390625 152.15625 195.867188 151.992188 195.847656 151.972656 L 195.847656 155.082031 C 196.652344 155.363281 197.53125 155.75 198.488281 156.242188 C 199.441406 156.734375 200.140625 157.242188 200.582031 157.765625 L 203.8125 157.765625 L 203.8125 133.332031 Z M 215.183594 133.332031 L 215.183594 139.335938 L 207.851562 139.335938 L 207.851562 142.894531 L 214.21875 157.765625 L 219.074219 157.765625 L 219.074219 142.652344 L 221.578125 142.652344 L 221.578125 139.335938 L 219.074219 139.335938 L 219.074219 133.332031 Z M 211.320312 142.652344 L 215.183594 142.652344 L 215.183594 153.269531 Z M 211.320312 142.652344 "/>
</g>
<g clip-path="url(#clip2)" clip-rule="nonzero">
<path style=" stroke:none;fill-rule:nonzero;fill:rgb(10.196078%,7.058824%,27.058824%);fill-opacity:1;" d="M 99.140625 148.808594 C 99.804688 148.808594 100.382812 148.917969 100.875 149.136719 C 101.367188 149.355469 101.742188 149.667969 102.003906 150.074219 C 102.265625 150.484375 102.398438 150.96875 102.398438 151.53125 C 102.398438 152.082031 102.265625 152.566406 102.003906 152.976562 C 101.742188 153.390625 101.367188 153.703125 100.875 153.921875 C 100.382812 154.140625 99.804688 154.25 99.140625 154.25 L 97.414062 154.25 L 97.414062 156.457031 L 95.996094 156.457031 L 95.996094 148.808594 Z M 99.078125 153.046875 C 99.695312 153.046875 100.164062 152.917969 100.484375 152.65625 C 100.804688 152.394531 100.964844 152.015625 100.964844 151.53125 C 100.964844 151.042969 100.804688 150.667969 100.484375 150.402344 C 100.164062 150.140625 99.695312 150.011719 99.078125 150.011719 L 97.414062 150.011719 L 97.414062 153.046875 Z M 103.851562 156.457031 L 103.851562 150.621094 L 105.21875 150.621094 L 105.21875 156.457031 Z M 104.539062 149.660156 C 104.292969 149.660156 104.085938 149.582031 103.917969 149.425781 C 103.75 149.269531 103.664062 149.074219 103.664062 148.839844 C 103.664062 148.609375 103.75 148.414062 103.917969 148.257812 C 104.085938 148.101562 104.292969 148.023438 104.539062 148.023438 C 104.789062 148.023438 104.996094 148.097656 105.164062 148.246094 C 105.332031 148.394531 105.414062 148.582031 105.414062 148.808594 C 105.414062 149.050781 105.332031 149.25 105.167969 149.414062 C 105.003906 149.578125 104.792969 149.660156 104.539062 149.660156 Z M 112.714844 153.574219 C 112.714844 153.667969 112.707031 153.800781 112.691406 153.976562 L 108.113281 153.976562 C 108.191406 154.40625 108.402344 154.746094 108.742188 155 C 109.082031 155.25 109.5 155.375 110.003906 155.375 C 110.644531 155.375 111.171875 155.164062 111.589844 154.742188 L 112.320312 155.582031 C 112.058594 155.898438 111.726562 156.132812 111.324219 156.292969 C 110.925781 156.453125 110.472656 156.535156 109.972656 156.535156 C 109.328125 156.535156 108.765625 156.40625 108.277344 156.152344 C 107.789062 155.898438 107.410156 155.542969 107.144531 155.085938 C 106.878906 154.632812 106.746094 154.117188 106.746094 153.539062 C 106.746094 152.972656 106.875 152.460938 107.136719 152.003906 C 107.394531 151.550781 107.753906 151.195312 108.210938 150.9375 C 108.671875 150.683594 109.1875 150.558594 109.761719 150.558594 C 110.332031 150.558594 110.839844 150.683594 111.289062 150.933594 C 111.734375 151.183594 112.085938 151.539062 112.335938 151.992188 C 112.585938 152.449219 112.714844 152.976562 112.714844 153.574219 Z M 109.761719 151.648438 C 109.324219 151.648438 108.957031 151.777344 108.652344 152.039062 C 108.351562 152.296875 108.167969 152.640625 108.101562 153.070312 L 111.414062 153.070312 C 111.355469 152.648438 111.175781 152.304688 110.878906 152.042969 C 110.578125 151.78125 110.207031 151.648438 109.761719 151.648438 Z M 117.554688 150.558594 C 118.289062 150.558594 118.878906 150.773438 119.324219 151.203125 C 119.769531 151.632812 119.992188 152.269531 119.992188 153.113281 L 119.992188 156.457031 L 118.625 156.457031 L 118.625 153.289062 C 118.625 152.777344 118.503906 152.394531 118.265625 152.136719 C 118.023438 151.878906 117.683594 151.746094 117.238281 151.746094 C 116.734375 151.746094 116.335938 151.898438 116.046875 152.203125 C 115.753906 152.503906 115.609375 152.9375 115.609375 153.507812 L 115.609375 156.457031 L 114.242188 156.457031 L 114.242188 150.621094 L 115.542969 150.621094 L 115.542969 151.375 C 115.769531 151.105469 116.054688 150.902344 116.394531 150.765625 C 116.738281 150.625 117.125 150.558594 117.554688 150.558594 Z M 127.488281 153.574219 C 127.488281 153.667969 127.480469 153.800781 127.464844 153.976562 L 122.886719 153.976562 C 122.96875 154.40625 123.175781 154.746094 123.515625 155 C 123.855469 155.25 124.273438 155.375 124.777344 155.375 C 125.417969 155.375 125.945312 155.164062 126.363281 154.742188 L 127.09375 155.582031 C 126.832031 155.898438 126.5 156.132812 126.097656 156.292969 C 125.699219 156.453125 125.246094 156.535156 124.746094 156.535156 C 124.101562 156.535156 123.539062 156.40625 123.050781 156.152344 C 122.5625 155.898438 122.1875 155.542969 121.917969 155.085938 C 121.652344 154.632812 121.519531 154.117188 121.519531 153.539062 C 121.519531 152.972656 121.648438 152.460938 121.910156 152.003906 C 122.167969 151.550781 122.527344 151.195312 122.984375 150.9375 C 123.445312 150.683594 123.960938 150.558594 124.535156 150.558594 C 125.105469 150.558594 125.613281 150.683594 126.0625 150.933594 C 126.507812 151.183594 126.859375 151.539062 127.109375 151.992188 C 127.363281 152.449219 127.488281 152.976562 127.488281 153.574219 Z M 124.535156 151.648438 C 124.101562 151.648438 123.730469 151.777344 123.425781 152.039062 C 123.125 152.296875 122.941406 152.640625 122.875 153.070312 L 126.1875 153.070312 C 126.128906 152.648438 125.949219 152.304688 125.652344 152.042969 C 125.351562 151.78125 124.980469 151.648438 124.535156 151.648438 Z M 136.601562 148.351562 L 137.964844 148.351562 L 137.964844 156.457031 L 136.65625 156.457031 L 136.65625 155.703125 C 136.429688 155.980469 136.152344 156.1875 135.820312 156.328125 C 135.488281 156.464844 135.121094 156.535156 134.722656 156.535156 C 134.160156 156.535156 133.65625 156.410156 133.207031 156.164062 C 132.757812 155.914062 132.40625 155.5625 132.152344 155.109375 C 131.898438 154.652344 131.769531 154.128906 131.769531 153.539062 C 131.769531 152.949219 131.898438 152.429688 132.152344 151.976562 C 132.40625 151.527344 132.757812 151.175781 133.207031 150.929688 C 133.65625 150.679688 134.160156 150.558594 134.722656 150.558594 C 135.105469 150.558594 135.460938 150.621094 135.78125 150.753906 C 136.101562 150.882812 136.375 151.082031 136.601562 151.34375 Z M 134.886719 155.363281 C 135.210938 155.363281 135.507812 155.289062 135.769531 155.140625 C 136.03125 154.992188 136.238281 154.777344 136.394531 154.5 C 136.546875 154.226562 136.621094 153.90625 136.621094 153.539062 C 136.621094 153.175781 136.546875 152.855469 136.394531 152.578125 C 136.238281 152.300781 136.03125 152.089844 135.769531 151.9375 C 135.507812 151.789062 135.210938 151.714844 134.886719 151.714844 C 134.558594 151.714844 134.261719 151.789062 134 151.9375 C 133.738281 152.089844 133.53125 152.300781 133.378906 152.578125 C 133.222656 152.855469 133.148438 153.175781 133.148438 153.539062 C 133.148438 153.90625 133.222656 154.226562 133.378906 154.5 C 133.53125 154.777344 133.738281 154.992188 134 155.140625 C 134.261719 155.289062 134.558594 155.363281 134.886719 155.363281 Z M 142.601562 156.535156 C 142.007812 156.535156 141.476562 156.40625 141.003906 156.152344 C 140.53125 155.898438 140.160156 155.542969 139.894531 155.085938 C 139.628906 154.632812 139.496094 154.117188 139.496094 153.539062 C 139.496094 152.964844 139.628906 152.449219 139.894531 152 C 140.160156 151.546875 140.53125 151.195312 141.003906 150.9375 C 141.476562 150.683594 142.007812 150.558594 142.601562 150.558594 C 143.195312 150.558594 143.734375 150.683594 144.207031 150.9375 C 144.679688 151.195312 145.050781 151.546875 145.316406 152 C 145.582031 152.449219 145.714844 152.964844 145.714844 153.539062 C 145.714844 154.117188 145.582031 154.632812 145.316406 155.085938 C 145.050781 155.542969 144.679688 155.898438 144.207031 156.152344 C 143.734375 156.40625 143.195312 156.535156 142.601562 156.535156 Z M 142.601562 155.363281 C 143.101562 155.363281 143.515625 155.199219 143.84375 154.863281 C 144.171875 154.527344 144.335938 154.085938 144.335938 153.539062 C 144.335938 152.992188 144.171875 152.554688 143.84375 152.21875 C 143.515625 151.882812 143.101562 151.714844 142.601562 151.714844 C 142.097656 151.714844 141.683594 151.882812 141.359375 152.21875 C 141.035156 152.554688 140.875 152.992188 140.875 153.539062 C 140.875 154.085938 141.035156 154.527344 141.359375 154.863281 C 141.683594 155.199219 142.097656 155.363281 142.601562 155.363281 Z M 151.734375 155.363281 L 155.035156 155.363281 L 155.035156 156.457031 L 149.996094 156.457031 L 149.996094 155.59375 L 153.199219 151.714844 L 150.0625 151.714844 L 150.0625 150.621094 L 154.949219 150.621094 L 154.949219 151.484375 Z M 159.046875 156.535156 C 158.457031 156.535156 157.921875 156.40625 157.449219 156.152344 C 156.976562 155.898438 156.605469 155.542969 156.339844 155.085938 C 156.074219 154.632812 155.941406 154.117188 155.941406 153.539062 C 155.941406 152.964844 156.074219 152.449219 156.339844 152 C 156.605469 151.546875 156.976562 151.195312 157.449219 150.9375 C 157.921875 150.683594 158.457031 150.558594 159.046875 150.558594 C 159.644531 150.558594 160.179688 150.683594 160.652344 150.9375 C 161.125 151.195312 161.496094 151.546875 161.761719 152 C 162.027344 152.449219 162.160156 152.964844 162.160156 153.539062 C 162.160156 154.117188 162.027344 154.632812 161.761719 155.085938 C 161.496094 155.542969 161.125 155.898438 160.652344 156.152344 C 160.179688 156.40625 159.644531 156.535156 159.046875 156.535156 Z M 159.046875 155.363281 C 159.546875 155.363281 159.964844 155.199219 160.289062 154.863281 C 160.617188 154.527344 160.78125 154.085938 160.78125 153.539062 C 160.78125 152.992188 160.617188 152.554688 160.289062 152.21875 C 159.964844 151.882812 159.546875 151.714844 159.046875 151.714844 C 158.542969 151.714844 158.128906 151.882812 157.804688 152.21875 C 157.480469 152.554688 157.320312 152.992188 157.320312 153.539062 C 157.320312 154.085938 157.480469 154.527344 157.804688 154.863281 C 158.128906 155.199219 158.542969 155.363281 159.046875 155.363281 Z M 164.988281 151.476562 C 165.382812 150.863281 166.074219 150.558594 167.066406 150.558594 L 167.066406 151.855469 C 166.949219 151.835938 166.84375 151.824219 166.75 151.824219 C 166.21875 151.824219 165.800781 151.980469 165.503906 152.289062 C 165.203125 152.597656 165.054688 153.042969 165.054688 153.628906 L 165.054688 156.457031 L 163.6875 156.457031 L 163.6875 150.621094 L 164.988281 150.621094 Z M 168.441406 156.457031 L 168.441406 150.621094 L 169.808594 150.621094 L 169.808594 156.457031 Z M 169.132812 149.660156 C 168.882812 149.660156 168.675781 149.582031 168.507812 149.425781 C 168.339844 149.269531 168.257812 149.074219 168.257812 148.839844 C 168.257812 148.609375 168.339844 148.414062 168.507812 148.257812 C 168.675781 148.101562 168.882812 148.023438 169.132812 148.023438 C 169.378906 148.023438 169.585938 148.097656 169.753906 148.246094 C 169.921875 148.394531 170.003906 148.582031 170.003906 148.808594 C 170.003906 149.050781 169.921875 149.25 169.757812 149.414062 C 169.59375 149.578125 169.386719 149.660156 169.132812 149.660156 Z M 169.132812 149.660156 "/>
</g>
<g clip-path="url(#clip3)" clip-rule="nonzero">
<path style=" stroke:none;fill-rule:nonzero;fill:rgb(10.196078%,7.058824%,27.058824%);fill-opacity:1;" d="M 44.421875 132.667969 L 44.421875 108.234375 L 50.183594 108.234375 C 52.15625 108.234375 53.703125 108.5 54.828125 109.035156 C 55.953125 109.566406 56.753906 110.382812 57.226562 111.476562 C 57.699219 112.574219 57.9375 114.027344 57.9375 115.835938 L 57.9375 124.734375 C 57.9375 126.585938 57.699219 128.082031 57.226562 129.230469 C 56.753906 130.375 55.964844 131.234375 54.859375 131.808594 C 53.753906 132.382812 52.253906 132.667969 50.363281 132.667969 Z M 48.855469 129.5625 L 50.242188 129.5625 C 51.230469 129.5625 51.941406 129.390625 52.386719 129.046875 C 52.828125 128.707031 53.109375 128.230469 53.230469 127.617188 C 53.351562 127.003906 53.410156 126.09375 53.410156 124.886719 L 53.410156 115.535156 C 53.410156 114.449219 53.339844 113.625 53.199219 113.0625 C 53.058594 112.5 52.761719 112.082031 52.308594 111.808594 C 51.859375 111.539062 51.148438 111.402344 50.183594 111.402344 L 48.855469 111.402344 Z M 61.34375 132.667969 L 61.34375 108.234375 L 65.75 108.234375 L 65.75 132.667969 Z M 75.671875 133 C 73.460938 133 71.804688 132.375 70.710938 131.128906 C 69.613281 129.882812 69.015625 128.023438 68.914062 125.550781 L 72.746094 124.796875 C 72.808594 126.34375 73.054688 127.523438 73.484375 128.339844 C 73.917969 129.152344 74.597656 129.5625 75.523438 129.5625 C 76.207031 129.5625 76.714844 129.355469 77.046875 128.941406 C 77.375 128.53125 77.542969 127.972656 77.542969 127.269531 C 77.542969 126.304688 77.328125 125.484375 76.894531 124.808594 C 76.460938 124.136719 75.78125 123.398438 74.859375 122.59375 L 71.78125 119.910156 C 70.835938 119.105469 70.128906 118.238281 69.65625 117.316406 C 69.183594 116.390625 68.945312 115.285156 68.945312 113.996094 C 68.945312 112.085938 69.503906 110.601562 70.621094 109.546875 C 71.734375 108.492188 73.28125 107.964844 75.25 107.964844 C 77.363281 107.964844 78.875 108.5625 79.789062 109.757812 C 80.703125 110.953125 81.234375 112.570312 81.375 114.601562 L 77.542969 115.261719 C 77.480469 113.9375 77.296875 112.9375 76.984375 112.261719 C 76.671875 111.589844 76.066406 111.25 75.160156 111.25 C 74.515625 111.25 74.011719 111.46875 73.652344 111.898438 C 73.289062 112.332031 73.109375 112.878906 73.109375 113.542969 C 73.109375 114.328125 73.265625 114.988281 73.574219 115.519531 C 73.886719 116.050781 74.394531 116.621094 75.097656 117.222656 L 78.144531 119.910156 C 79.292969 120.894531 80.1875 121.949219 80.832031 123.074219 C 81.472656 124.203125 81.796875 125.507812 81.796875 126.996094 C 81.796875 128.164062 81.539062 129.199219 81.027344 130.105469 C 80.515625 131.007812 79.796875 131.71875 78.871094 132.230469 C 77.945312 132.742188 76.878906 133 75.671875 133 Z M 84.421875 132.667969 L 84.421875 108.234375 L 88.855469 108.234375 L 88.855469 118.972656 L 93.710938 108.234375 L 97.964844 108.234375 L 93.289062 119.125 L 98.445312 132.667969 L 94.011719 132.667969 L 89.941406 121.566406 L 88.855469 123.40625 L 88.855469 132.667969 Z M 106.773438 133 C 104.238281 133 102.429688 132.320312 101.34375 130.964844 C 100.257812 129.605469 99.714844 127.621094 99.714844 125.007812 L 99.714844 115.835938 C 99.714844 113.242188 100.257812 111.28125 101.34375 109.953125 C 102.429688 108.628906 104.238281 107.964844 106.773438 107.964844 C 109.285156 107.964844 111.085938 108.628906 112.171875 109.953125 C 113.257812 111.28125 113.800781 113.242188 113.800781 115.835938 L 113.800781 125.007812 C 113.800781 127.601562 113.253906 129.582031 112.15625 130.949219 C 111.058594 132.316406 109.265625 133 106.773438 133 Z M 106.773438 129.710938 C 107.757812 129.710938 108.421875 129.402344 108.761719 128.777344 C 109.105469 128.152344 109.277344 127.25 109.277344 126.0625 L 109.277344 114.8125 C 109.277344 113.625 109.109375 112.730469 108.777344 112.125 C 108.445312 111.523438 107.777344 111.222656 106.773438 111.222656 C 105.765625 111.222656 105.09375 111.527344 104.75 112.140625 C 104.410156 112.753906 104.238281 113.644531 104.238281 114.8125 L 104.238281 126.0625 C 104.238281 127.25 104.410156 128.152344 104.75 128.777344 C 105.09375 129.402344 105.765625 129.710938 106.773438 129.710938 Z M 119.410156 132.667969 L 119.410156 111.523438 L 115.519531 111.523438 L 115.519531 108.234375 L 127.675781 108.234375 L 127.675781 111.523438 L 123.875 111.523438 L 123.875 132.667969 Z M 129.90625 132.667969 L 129.90625 108.234375 L 140.164062 108.234375 L 140.164062 111.371094 L 134.34375 111.371094 L 134.34375 118.402344 L 138.925781 118.402344 L 138.925781 121.507812 L 134.34375 121.507812 L 134.34375 129.621094 L 140.222656 129.621094 L 140.222656 132.667969 Z M 142.820312 132.667969 L 142.820312 108.234375 L 147.253906 108.234375 L 147.253906 118.972656 L 152.109375 108.234375 L 156.363281 108.234375 L 151.6875 119.125 L 156.84375 132.667969 L 152.410156 132.667969 L 148.339844 121.566406 L 147.253906 123.40625 L 147.253906 132.667969 Z M 157.628906 132.667969 L 162.515625 108.234375 L 167.28125 108.234375 L 172.167969 132.667969 L 168.035156 132.667969 L 167.070312 127.027344 L 162.816406 127.027344 L 161.820312 132.667969 Z M 163.269531 124.191406 L 166.589844 124.191406 L 164.929688 113.9375 Z M 181.339844 132.667969 L 181.339844 129.710938 L 187.371094 120.390625 C 187.472656 120.230469 187.5625 120.089844 187.644531 119.96875 C 187.722656 119.847656 187.792969 119.738281 187.855469 119.636719 C 188.578125 118.511719 189.109375 117.574219 189.453125 116.832031 C 189.792969 116.089844 189.964844 115.242188 189.964844 114.296875 C 189.964844 112.40625 189.300781 111.460938 187.976562 111.460938 C 187.070312 111.460938 186.4375 111.816406 186.074219 112.519531 C 185.710938 113.222656 185.53125 114.167969 185.53125 115.355469 L 185.53125 116.378906 L 181.429688 116.378906 L 181.429688 115.292969 C 181.429688 113 181.945312 111.207031 182.984375 109.910156 C 184.019531 108.613281 185.640625 107.964844 187.855469 107.964844 C 189.90625 107.964844 191.464844 108.523438 192.53125 109.636719 C 193.59375 110.753906 194.128906 112.316406 194.128906 114.328125 C 194.128906 115.574219 193.910156 116.679688 193.480469 117.644531 C 193.046875 118.613281 192.378906 119.796875 191.472656 121.207031 L 191.113281 121.75 L 186.074219 129.320312 L 193.496094 129.320312 L 193.496094 132.667969 Z M 199.617188 132.667969 L 199.617188 112.851562 C 199.417969 112.992188 198.683594 113.222656 197.417969 113.542969 C 196.390625 113.84375 195.867188 114.007812 195.847656 114.027344 L 195.847656 110.917969 C 196.652344 110.636719 197.53125 110.25 198.488281 109.757812 C 199.441406 109.265625 200.140625 108.757812 200.582031 108.234375 L 203.8125 108.234375 L 203.8125 132.667969 Z M 215.183594 132.667969 L 215.183594 126.664062 L 207.851562 126.664062 L 207.851562 123.105469 L 214.21875 108.234375 L 219.074219 108.234375 L 219.074219 123.347656 L 221.578125 123.347656 L 221.578125 126.664062 L 219.074219 126.664062 L 219.074219 132.667969 Z M 211.320312 123.347656 L 215.183594 123.347656 L 215.183594 112.730469 Z M 211.320312 123.347656 "/>
</g>
</g>
</svg>
