<svg version="1.1" preserveAspectRatio="none" xmlns="http://www.w3.org/2000/svg" width="500" height="500" viewBox="0 0 500 500"><rect width="100%" height="100%" fill="#F3F3F3" fill-opacity="1"/><svg viewBox="49.6293 208.5036 417.8631 112" width="333" height="89.25411217214442" x="83.5px" y="205.3729px" xmlns="http://www.w3.org/2000/svg" xmlns:xlink="http://www.w3.org/1999/xlink" preserveAspectRatio="none"><defs></defs><style>.companyName {fill:#1e1e1e;fill-opacity:1;}.icon1 {fill:#1E1E1E;fill-opacity:1;}.icon3-str {stroke:#848383;stroke-opacity:1;}.shapeStroke-str {stroke:#949393;stroke-opacity:1;}</style><g opacity="1" transform="rotate(0 49.6293 278.5036)">
<svg width="417.8631" height="1" x="49.6293" y="278.5036" version="1.1" preserveAspectRatio="none" viewBox="0 0 417.8631 1">
  <defs><rect x="0" y="0" width="417.8631" height="1" rx="0%" ry="0%" id="id-Fn9MWtLe1714137442736"></rect></defs><use class="icon1 shapeStroke-str" style="stroke-width:0;" xlink:href="#id-Fn9MWtLe1714137442736"></use>
</svg>
</g><g opacity="1" transform="rotate(0 49.6293 272.5036)">
<svg width="417.8631" height="2" x="49.6293" y="272.5036" version="1.1" preserveAspectRatio="none" viewBox="0 0 417.8631 2">
  <defs><rect x="0" y="0" width="417.8631" height="2" rx="0%" ry="0%" id="id-7UcwTXs11714137442737"></rect></defs><use class="icon1 shapeStroke-str" style="stroke-width:0;" xlink:href="#id-7UcwTXs11714137442737"></use>
</svg>
</g><g opacity="1" transform="rotate(0 159.3596 294.5036)">
<svg width="198.4025" height="26" x="159.3596" y="294.5036" version="1.1" preserveAspectRatio="none" viewBox="4.52 -30.4 234.39999999999998 30.72">
  <g transform="matrix(1 0 0 1 0 0)" class="companyName"><path id="id-6izo4zJp13" d="M11.08-28.40Q15.12-28.40 17.50-26.34Q19.88-24.28 19.88-20.36L19.88-20.36Q19.88-18.12 18.92-16.20Q17.96-14.28 15.94-13.10Q13.92-11.92 10.88-11.92L10.88-11.92L6.48-11.92L6.48 0L4.52 0L4.52-28.40L11.08-28.40ZM10.88-13.80Q13.44-13.80 15.04-14.84Q16.64-15.88 17.30-17.38Q17.96-18.88 17.96-20.36L17.96-20.36Q17.96-23.12 16.20-24.82Q14.44-26.52 11.28-26.52L11.28-26.52L6.48-26.52L6.48-13.80L10.88-13.80Z M27.72-15.64L29.60-15.64L29.60 0L27.72 0L27.72-15.64ZM27.32-21.40Q27.32-21.96 27.74-22.34Q28.16-22.72 28.72-22.72L28.72-22.72Q29.28-22.72 29.68-22.34Q30.08-21.96 30.08-21.40L30.08-21.40Q30.08-20.80 29.68-20.42Q29.28-20.04 28.72-20.04L28.72-20.04Q28.16-20.04 27.74-20.44Q27.32-20.84 27.32-21.40L27.32-21.40Z M45.56-1.32Q48.08-1.32 50.12-3.04L50.12-3.04L51.08-1.68Q49.92-0.76 48.46-0.22Q47 0.32 45.52 0.32L45.52 0.32Q43.12 0.32 41.22-0.76Q39.32-1.84 38.26-3.70Q37.20-5.56 37.20-7.88L37.20-7.88Q37.20-10.12 38.32-12.02Q39.44-13.92 41.36-15.04Q43.28-16.16 45.56-16.16L45.56-16.16Q48.28-16.16 50.20-14.56Q52.12-12.96 53-10.24L53-10.24L39.64-5.08Q40.40-3.40 41.98-2.36Q43.56-1.32 45.56-1.32L45.56-1.32ZM45.44-14.56Q43.68-14.56 42.20-13.68Q40.72-12.80 39.88-11.30Q39.04-9.80 39.04-7.96L39.04-7.96Q39.04-7.12 39.20-6.48L39.20-6.48L50.72-11Q49.96-12.60 48.60-13.58Q47.24-14.56 45.44-14.56L45.44-14.56Z M68.60-16.08Q70.76-16.08 72.12-14.78Q73.48-13.48 73.56-11.40L73.56-11.40L73.56 0L71.64 0L71.64-10.88Q71.56-12.44 70.64-13.42Q69.72-14.40 68-14.44L68-14.44Q66.40-14.44 65.06-13.68Q63.72-12.92 62.90-11.54Q62.08-10.16 62.08-8.40L62.08-8.40L62.08 0L60.20 0L60.20-15.64L61.84-15.64L62-12.16Q62.76-13.96 64.58-15.02Q66.40-16.08 68.60-16.08L68.60-16.08Z M89.52-1.32Q92.04-1.32 94.08-3.04L94.08-3.04L95.04-1.68Q93.88-0.76 92.42-0.22Q90.96 0.32 89.48 0.32L89.48 0.32Q87.08 0.32 85.18-0.76Q83.28-1.84 82.22-3.70Q81.16-5.56 81.16-7.88L81.16-7.88Q81.16-10.12 82.28-12.02Q83.40-13.92 85.32-15.04Q87.24-16.16 89.52-16.16L89.52-16.16Q92.24-16.16 94.16-14.56Q96.08-12.96 96.96-10.24L96.96-10.24L83.60-5.08Q84.36-3.40 85.94-2.36Q87.52-1.32 89.52-1.32L89.52-1.32ZM89.40-14.56Q87.64-14.56 86.16-13.68Q84.68-12.80 83.84-11.30Q83-9.80 83-7.96L83-7.96Q83-7.12 83.16-6.48L83.16-6.48L94.68-11Q93.92-12.60 92.56-13.58Q91.20-14.56 89.40-14.56L89.40-14.56Z M131.92-30.40L133.80-30.40L133.80 0L131.88 0L131.88-3.24Q130.80-1.64 128.92-0.66Q127.04 0.32 124.84 0.32L124.84 0.32Q122.64 0.32 120.82-0.74Q119.00-1.80 117.96-3.70Q116.92-5.60 116.92-7.92L116.92-7.92Q116.92-10.36 118.00-12.24Q119.08-14.12 120.92-15.12Q122.76-16.12 125.04-16.12L125.04-16.12Q127.08-16.12 128.98-15.12Q130.88-14.12 131.92-12.48L131.92-12.48L131.92-30.40ZM125.32-1.32Q128-1.32 129.84-3Q131.68-4.68 131.88-7.24L131.88-7.24L131.88-9.24Q131.44-11.52 129.58-13.04Q127.72-14.56 125.32-14.56L125.32-14.56Q123.52-14.56 122.04-13.72Q120.56-12.88 119.68-11.38Q118.80-9.88 118.80-7.96L118.80-7.96Q118.80-6.16 119.68-4.64Q120.56-3.12 122.06-2.22Q123.56-1.32 125.32-1.32L125.32-1.32Z M141.40-7.92Q141.40-10.16 142.50-12.06Q143.60-13.96 145.52-15.06Q147.44-16.16 149.76-16.16L149.76-16.16Q152.08-16.16 154-15.06Q155.92-13.96 157-12.06Q158.08-10.16 158.08-7.92L158.08-7.92Q158.08-5.64 156.98-3.76Q155.88-1.88 153.98-0.78Q152.08 0.32 149.72 0.32L149.72 0.32Q147.36 0.32 145.46-0.74Q143.56-1.80 142.48-3.68Q141.40-5.56 141.40-7.92L141.40-7.92ZM143.28-7.88Q143.28-6.08 144.14-4.56Q145-3.04 146.48-2.16Q147.96-1.28 149.72-1.28L149.72-1.28Q151.48-1.28 152.96-2.16Q154.44-3.04 155.30-4.56Q156.16-6.08 156.16-7.88L156.16-7.88Q156.16-9.68 155.30-11.22Q154.44-12.76 152.96-13.64Q151.48-14.52 149.72-14.52L149.72-14.52Q147.92-14.52 146.44-13.58Q144.96-12.64 144.12-11.12Q143.28-9.60 143.28-7.88L143.28-7.88Z M190.92-15.64L181.04-1.60L190.76-1.60L190.76 0L177.84 0L187.76-14.08L180.36-14.08Q177.96-14.08 177.96-16.36L177.96-16.36L177.96-17.12L179.44-17.12L179.44-16.64Q179.44-15.64 180.80-15.64L180.80-15.64L190.92-15.64Z M196.60-7.92Q196.60-10.16 197.70-12.06Q198.80-13.96 200.72-15.06Q202.64-16.16 204.96-16.16L204.96-16.16Q207.28-16.16 209.20-15.06Q211.12-13.96 212.20-12.06Q213.28-10.16 213.28-7.92L213.28-7.92Q213.28-5.64 212.18-3.76Q211.08-1.88 209.18-0.78Q207.28 0.32 204.92 0.32L204.92 0.32Q202.56 0.32 200.66-0.74Q198.76-1.80 197.68-3.68Q196.60-5.56 196.60-7.92L196.60-7.92ZM198.48-7.88Q198.48-6.08 199.34-4.56Q200.20-3.04 201.68-2.16Q203.16-1.28 204.92-1.28L204.92-1.28Q206.68-1.28 208.16-2.16Q209.64-3.04 210.50-4.56Q211.36-6.08 211.36-7.88L211.36-7.88Q211.36-9.68 210.50-11.22Q209.64-12.76 208.16-13.64Q206.68-14.52 204.92-14.52L204.92-14.52Q203.12-14.52 201.64-13.58Q200.16-12.64 199.32-11.12Q198.48-9.60 198.48-7.88L198.48-7.88Z M222.68-11.92Q223.52-13.80 225.44-14.92Q227.36-16.04 229.28-16.08L229.28-16.08L229.20-14.24Q227.44-14.24 225.96-13.46Q224.48-12.68 223.62-11.30Q222.76-9.92 222.76-8.28L222.76-8.28L222.76 0L220.88 0L220.88-15.64L222.52-15.64L222.68-11.92Z M236.56-15.64L238.44-15.64L238.44 0L236.56 0L236.56-15.64ZM236.16-21.40Q236.16-21.96 236.58-22.34Q237-22.72 237.56-22.72L237.56-22.72Q238.12-22.72 238.52-22.34Q238.92-21.96 238.92-21.40L238.92-21.40Q238.92-20.80 238.52-20.42Q238.12-20.04 237.56-20.04L237.56-20.04Q237-20.04 236.58-20.44Q236.16-20.84 236.16-21.40L236.16-21.40Z"/></g>
</svg>
</g><g opacity="1" transform="rotate(0 69.6293 208.5036)">
<svg width="377.8631" height="50" x="69.6293" y="208.5036" version="1.1" preserveAspectRatio="none" viewBox="1.36 -25.08 237.6 31.439999999999998">
  <g transform="matrix(1 0 0 1 0 0)" class="companyName"><path id="id-D6z1nYkh13" d="M11.88 0.16Q10.72 0.16 9.28 0.04L9.28 0.04Q8.72 0 7.90-0.04Q7.08-0.08 6.08-0.08L6.08-0.08L3.44-0.04Q2.72 0 1.44 0L1.44 0Q1.36 0 1.36-0.24Q1.36-0.48 1.44-0.48L1.44-0.48Q3-0.48 3.74-0.68Q4.48-0.88 4.76-1.46Q5.04-2.04 5.04-3.24L5.04-3.24L5.04-21.76Q5.04-22.96 4.78-23.52Q4.52-24.08 3.78-24.30Q3.04-24.52 1.48-24.52L1.48-24.52Q1.40-24.52 1.40-24.76Q1.40-25 1.48-25L1.48-25L3.44-24.96Q5.12-24.88 6.08-24.88L6.08-24.88Q7.48-24.88 8.92-25L8.92-25Q10.68-25.08 11.32-25.08L11.32-25.08Q15.52-25.08 18.76-23.48Q22-21.88 23.78-19.12Q25.56-16.36 25.56-12.92L25.56-12.92Q25.56-9.04 23.70-6.06Q21.84-3.08 18.72-1.46Q15.60 0.16 11.88 0.16L11.88 0.16ZM11.48-0.36Q14.84-0.36 17.44-1.72Q20.04-3.08 21.50-5.72Q22.96-8.36 22.96-12.04L22.96-12.04Q22.96-15.56 21.58-18.40Q20.20-21.24 17.62-22.90Q15.04-24.56 11.68-24.56L11.68-24.56Q9.92-24.56 8.98-24.36Q8.04-24.16 7.60-23.54Q7.16-22.92 7.16-21.68L7.16-21.68L7.16-3.68Q7.16-2.48 7.52-1.76Q7.88-1.04 8.80-0.70Q9.72-0.36 11.48-0.36L11.48-0.36Z M34.40-3.24Q34.40-2 34.62-1.44Q34.84-0.88 35.46-0.68Q36.08-0.48 37.48-0.48L37.48-0.48Q37.60-0.48 37.60-0.24Q37.60 0 37.48 0L37.48 0Q36.40 0 35.80-0.04L35.80-0.04L33.32-0.08L30.96-0.04Q30.32 0 29.20 0L29.20 0Q29.12 0 29.12-0.24Q29.12-0.48 29.20-0.48L29.20-0.48Q30.60-0.48 31.24-0.68Q31.88-0.88 32.10-1.46Q32.32-2.04 32.32-3.24L32.32-3.24L32.32-15.48Q32.32-16.68 32.10-17.24Q31.88-17.80 31.22-18.02Q30.56-18.24 29.20-18.24L29.20-18.24Q29.12-18.24 29.12-18.48Q29.12-18.72 29.20-18.72L29.20-18.72L30.96-18.68Q32.48-18.60 33.32-18.60L33.32-18.60Q34.32-18.60 35.84-18.68L35.84-18.68L37.48-18.72Q37.60-18.72 37.60-18.48Q37.60-18.24 37.48-18.24L37.48-18.24Q36.16-18.24 35.52-18Q34.88-17.76 34.64-17.18Q34.40-16.60 34.40-15.40L34.40-15.40L34.40-3.24Z M43.60-15.40Q43.60-14.16 44.22-13.26Q44.84-12.36 45.76-11.76Q46.68-11.16 48.24-10.32L48.24-10.32Q49.84-9.52 50.80-8.84Q51.76-8.16 52.44-7.18Q53.12-6.20 53.12-4.80L53.12-4.80Q53.12-2.56 51.34-1.04Q49.56 0.48 46.52 0.48L46.52 0.48Q44 0.48 42-0.88L42-0.88Q41.80-1 41.74-1.16Q41.68-1.32 41.64-1.64L41.64-1.64L41.16-5.44Q41.12-5.60 41.36-5.64Q41.60-5.68 41.64-5.52L41.64-5.52Q42.08-3.20 43.72-1.64Q45.36-0.08 47.40-0.08L47.40-0.08Q48.84-0.08 49.92-0.92Q51-1.76 51-3.56L51-3.56Q51-4.88 50.36-5.84Q49.72-6.80 48.80-7.46Q47.88-8.12 46.36-8.92L46.36-8.92Q44.76-9.80 43.84-10.46Q42.92-11.12 42.28-12.08Q41.64-13.04 41.64-14.40L41.64-14.40Q41.64-16.68 43.32-17.94Q45-19.20 47.44-19.20L47.44-19.20Q49.24-19.20 51.20-18.28L51.20-18.28Q51.56-18.08 51.66-17.98Q51.76-17.88 51.80-17.64L51.80-17.64L52.12-14.24Q52.12-14.08 51.90-14.04Q51.68-14 51.64-14.16L51.64-14.16Q51.36-15.92 49.96-17.30Q48.56-18.68 46.72-18.68L46.72-18.68Q45.24-18.68 44.42-17.76Q43.60-16.84 43.60-15.40L43.60-15.40Z M75.60-0.48Q75.72-0.48 75.72-0.24Q75.72 0 75.60 0L75.60 0L71.68 0Q70.36 0 70.16-0.12Q69.96-0.24 69-1.84Q68.04-3.44 66.16-5.80L66.16-5.80L62.96-9.84L61.16-8.12L61.16-3.24Q61.16-2 61.38-1.44Q61.60-0.88 62.22-0.68Q62.84-0.48 64.24-0.48L64.24-0.48Q64.36-0.48 64.36-0.24Q64.36 0 64.24 0L64.24 0Q63.16 0 62.56-0.04L62.56-0.04L60.12-0.08L57.76-0.04Q57.12 0 56.00 0L56.00 0Q55.92 0 55.92-0.24Q55.92-0.48 56.00-0.48L56.00-0.48Q57.40-0.48 58.04-0.68Q58.68-0.88 58.92-1.46Q59.16-2.04 59.16-3.24L59.16-3.24L59.16-15.48Q59.16-16.68 58.92-17.24Q58.68-17.80 58.04-18.02Q57.40-18.24 56.04-18.24L56.04-18.24Q55.96-18.24 55.96-18.48Q55.96-18.72 56.04-18.72L56.04-18.72L57.80-18.68Q59.24-18.60 60.12-18.60L60.12-18.60Q61.12-18.60 62.56-18.68L62.56-18.68L64.24-18.72Q64.36-18.72 64.36-18.48Q64.36-18.24 64.24-18.24L64.24-18.24Q62.92-18.24 62.28-18Q61.64-17.76 61.40-17.18Q61.16-16.60 61.16-15.40L61.16-15.40L61.16-8.96L67.88-15.72Q69.48-17.24 69.48-17.72L69.48-17.72Q69.48-18 69.02-18.12Q68.56-18.24 67.44-18.24L67.44-18.24Q67.32-18.24 67.32-18.48Q67.32-18.72 67.44-18.72L67.44-18.72L68.88-18.68Q70.08-18.60 71.44-18.60L71.44-18.60Q72.92-18.60 74.20-18.68L74.20-18.68Q74.52-18.72 75-18.72L75-18.72Q75.12-18.72 75.12-18.48Q75.12-18.24 75-18.24L75-18.24Q73.68-18.24 71.96-17.60Q70.24-16.96 68.72-15.48L68.72-15.48L64.36-11.20L66.96-7.92Q70.08-3.92 71.20-2.64Q72.32-1.36 73.20-0.92Q74.08-0.48 75.60-0.48L75.60-0.48Z M86.12 0.48Q83.32 0.48 81.14-0.84Q78.96-2.16 77.78-4.38Q76.60-6.60 76.60-9.20L76.60-9.20Q76.60-12.32 78.24-14.60Q79.88-16.88 82.38-18.04Q84.88-19.20 87.48-19.20L87.48-19.20Q90.28-19.20 92.40-17.84Q94.52-16.48 95.66-14.28Q96.80-12.08 96.80-9.68L96.80-9.68Q96.80-6.96 95.36-4.62Q93.92-2.28 91.46-0.90Q89.00 0.48 86.12 0.48L86.12 0.48ZM87.20-0.32Q90.52-0.32 92.50-2.52Q94.48-4.72 94.48-8.64L94.48-8.64Q94.48-11.32 93.52-13.54Q92.56-15.76 90.68-17.08Q88.80-18.40 86.16-18.40L86.16-18.40Q82.72-18.40 80.82-16.20Q78.92-14 78.92-10.16L78.92-10.16Q78.92-7.44 79.90-5.20Q80.88-2.96 82.76-1.64Q84.64-0.32 87.20-0.32L87.20-0.32Z M104.16-18.28Q102.48-18.28 101.62-17.90Q100.76-17.52 100.36-16.54Q99.96-15.56 99.72-13.60L99.72-13.60Q99.72-13.52 99.50-13.52Q99.28-13.52 99.28-13.60L99.28-13.60Q99.40-14.48 99.54-16.50Q99.68-18.52 99.68-19.60L99.68-19.60Q99.68-19.80 99.92-19.80Q100.16-19.80 100.16-19.60L100.16-19.60Q100.16-19.08 100.76-18.94Q101.36-18.80 102.24-18.80L102.24-18.80Q105.76-18.72 108.28-18.72L108.28-18.72L111.76-18.76Q112.48-18.80 113.64-18.80L113.64-18.80Q115.08-18.80 115.74-18.98Q116.40-19.16 116.60-19.76L116.60-19.76Q116.68-19.88 116.88-19.88Q117.08-19.88 117.08-19.76L117.08-19.76Q116.84-15.44 116.84-13.60L116.84-13.60Q116.84-13.52 116.62-13.52Q116.40-13.52 116.40-13.60L116.40-13.60Q116.40-15.60 116.10-16.56Q115.80-17.52 114.98-17.90Q114.16-18.28 112.44-18.28L112.44-18.28Q111.12-18.28 110.44-18.04Q109.76-17.80 109.50-17.22Q109.24-16.64 109.24-15.48L109.24-15.48L109.24-3.24Q109.24-2 109.48-1.44Q109.72-0.88 110.46-0.68Q111.20-0.48 112.80-0.48L112.80-0.48Q112.88-0.48 112.88-0.24Q112.88 0 112.80 0L112.80 0Q111.56 0 110.88-0.04L110.88-0.04L108.16-0.08L105.56-0.04Q104.84 0 103.56 0L103.56 0Q103.48 0 103.48-0.24Q103.48-0.48 103.56-0.48L103.56-0.48Q105.12-0.48 105.86-0.68Q106.60-0.88 106.88-1.46Q107.16-2.04 107.16-3.24L107.16-3.24L107.16-15.56Q107.16-16.76 106.96-17.32Q106.76-17.88 106.14-18.08Q105.52-18.28 104.16-18.28L104.16-18.28Z M134.52-5.32Q134.52-5.44 134.74-5.44Q134.96-5.44 134.96-5.32L134.96-5.32Q134.68-2.44 134.68-0.60L134.68-0.60Q134.68-0.28 134.56-0.14Q134.44 0 134.08 0L134.08 0L119.52 0Q119.44 0 119.44-0.24Q119.44-0.48 119.52-0.48L119.52-0.48Q120.88-0.48 121.52-0.68Q122.16-0.88 122.38-1.46Q122.60-2.04 122.60-3.24L122.60-3.24L122.60-15.48Q122.60-16.68 122.38-17.24Q122.16-17.80 121.52-18.02Q120.88-18.24 119.52-18.24L119.52-18.24Q119.44-18.24 119.44-18.48Q119.44-18.72 119.52-18.72L119.52-18.72L133.36-18.72Q133.76-18.72 133.76-18.40L133.76-18.40L133.80-15.92Q133.84-15.16 133.84-14L133.84-14Q133.84-13.88 133.60-13.88Q133.36-13.88 133.36-14L133.36-14Q133.36-15.88 132.28-17.04Q131.20-18.20 129.44-18.20L129.44-18.20L128.08-18.20Q126.56-18.20 125.86-17.98Q125.16-17.76 124.90-17.20Q124.64-16.64 124.64-15.44L124.64-15.44L124.64-9.96Q128.72-10 130.16-10.16Q131.60-10.32 131.76-10.32L131.76-10.32Q131.96-10.32 131.96-9.48L131.96-9.48Q131.96-8.60 131.76-8.60L131.76-8.60Q131.60-8.60 130.16-8.84Q128.72-9.08 124.64-9.12L124.64-9.12L124.64-3.40Q124.64-2.24 124.90-1.66Q125.16-1.08 125.88-0.86Q126.60-0.64 128.08-0.64L128.08-0.64L130.40-0.64Q131.96-0.64 133.08-1.94Q134.20-3.24 134.52-5.32L134.52-5.32Z M157.68-0.48Q157.80-0.48 157.80-0.24Q157.80 0 157.68 0L157.68 0L153.76 0Q152.44 0 152.24-0.12Q152.04-0.24 151.08-1.84Q150.12-3.44 148.24-5.80L148.24-5.80L145.04-9.84L143.24-8.12L143.24-3.24Q143.24-2 143.46-1.44Q143.68-0.88 144.30-0.68Q144.92-0.48 146.32-0.48L146.32-0.48Q146.44-0.48 146.44-0.24Q146.44 0 146.32 0L146.32 0Q145.24 0 144.64-0.04L144.64-0.04L142.20-0.08L139.84-0.04Q139.20 0 138.08 0L138.08 0Q138 0 138-0.24Q138-0.48 138.08-0.48L138.08-0.48Q139.48-0.48 140.12-0.68Q140.76-0.88 141-1.46Q141.24-2.04 141.24-3.24L141.24-3.24L141.24-15.48Q141.24-16.68 141-17.24Q140.76-17.80 140.12-18.02Q139.48-18.24 138.12-18.24L138.12-18.24Q138.04-18.24 138.04-18.48Q138.04-18.72 138.12-18.72L138.12-18.72L139.88-18.68Q141.32-18.60 142.20-18.60L142.20-18.60Q143.20-18.60 144.64-18.68L144.64-18.68L146.32-18.72Q146.44-18.72 146.44-18.48Q146.44-18.24 146.32-18.24L146.32-18.24Q145-18.24 144.36-18Q143.72-17.76 143.48-17.18Q143.24-16.60 143.24-15.40L143.24-15.40L143.24-8.96L149.96-15.72Q151.56-17.24 151.56-17.72L151.56-17.72Q151.56-18 151.10-18.12Q150.64-18.24 149.52-18.24L149.52-18.24Q149.40-18.24 149.40-18.48Q149.40-18.72 149.52-18.72L149.52-18.72L150.96-18.68Q152.16-18.60 153.52-18.60L153.52-18.60Q155-18.60 156.28-18.68L156.28-18.68Q156.60-18.72 157.08-18.72L157.08-18.72Q157.20-18.72 157.20-18.48Q157.20-18.24 157.08-18.24L157.08-18.24Q155.76-18.24 154.04-17.60Q152.32-16.96 150.80-15.48L150.80-15.48L146.44-11.20L149.04-7.92Q152.16-3.92 153.28-2.64Q154.40-1.36 155.28-0.92Q156.16-0.48 157.68-0.48L157.68-0.48Z M180.36-0.48Q180.52-0.48 180.52-0.24Q180.52 0 180.36 0L180.36 0Q179.64 0 178.04-0.08L178.04-0.08Q176.52-0.16 175.80-0.16L175.80-0.16Q175.24-0.16 174.20-0.08L174.20-0.08Q173.24 0 172.72 0L172.72 0Q172.56 0 172.56-0.24Q172.56-0.48 172.72-0.48L172.72-0.48Q173.80-0.48 174.34-0.76Q174.88-1.04 174.88-1.72L174.88-1.72Q174.88-2.36 174.40-3.36L174.40-3.36L171.64-9.36L165.76-9.36L164.00-4.92Q163.36-3.24 163.36-2.44L163.36-2.44Q163.36-1.40 164.10-0.94Q164.84-0.48 166.32-0.48L166.32-0.48Q166.52-0.48 166.52-0.24Q166.52 0 166.32 0L166.32 0Q165.72 0 164.68-0.08L164.68-0.08Q163.56-0.16 162.60-0.16L162.60-0.16Q161.60-0.16 160.24-0.08L160.24-0.08Q159.04 0 158.32 0L158.32 0Q158.16 0 158.16-0.24Q158.16-0.48 158.32-0.48L158.32-0.48Q159.56-0.48 160.28-0.82Q161.00-1.16 161.60-2.16Q162.20-3.16 163.08-5.28L163.08-5.28L168.80-19.32Q168.88-19.48 169.04-19.48Q169.20-19.48 169.24-19.32L169.24-19.32L175.68-5.48Q176.72-3.24 177.34-2.24Q177.96-1.24 178.62-0.86Q179.28-0.48 180.36-0.48L180.36-0.48ZM168.48-16.16L166.04-10L171.32-10L168.48-16.16Z M191.36-0.48Q195.60-3.80 197.96-6.10Q200.32-8.40 201.36-10.24Q202.40-12.08 202.40-13.96L202.40-13.96Q202.40-16.08 201.24-17.28Q200.08-18.48 197.92-18.48L197.92-18.48Q193.68-18.48 192.36-13.56L192.36-13.56Q192.36-13.52 192.20-13.52L192.20-13.52Q191.84-13.52 191.88-13.68L191.88-13.68L193.40-19.56Q193.44-19.64 193.66-19.60Q193.88-19.56 193.84-19.48L193.84-19.48Q193.80-19.28 193.80-19L193.80-19Q193.80-18.28 194.48-18.28L194.48-18.28Q194.92-18.28 195.76-18.60L195.76-18.60Q196.76-18.92 197.44-19.06Q198.12-19.20 199.04-19.20L199.04-19.20Q201.60-19.20 203.14-17.84Q204.68-16.48 204.68-14.28L204.68-14.28Q204.68-12.64 203.68-10.94Q202.68-9.24 200.44-7.12Q198.20-5 194.20-1.92L194.20-1.92Q194.04-1.80 194.10-1.72Q194.16-1.64 194.36-1.64L194.36-1.64Q199.76-1.64 201.78-1.78Q203.80-1.92 204.64-2.46Q205.48-3 205.80-4.40L205.80-4.40Q205.84-4.48 206.04-4.46Q206.24-4.44 206.24-4.36L206.24-4.36L205.68-0.44Q205.68-0.28 205.58-0.14Q205.48 0 205.32 0L205.32 0L191.64 0Q191.48 0 191.36-0.16Q191.24-0.32 191.36-0.48L191.36-0.48Z M209.96 0Q209.84 0 209.84-0.24Q209.84-0.48 209.96-0.48L209.96-0.48Q211.68-0.48 212.50-0.70Q213.32-0.92 213.64-1.48Q213.96-2.04 213.96-3.24L213.96-3.24L213.96-14.04Q213.96-15.64 213.78-16.26Q213.60-16.88 212.96-16.88L212.96-16.88Q212.56-16.88 211.90-16.64Q211.24-16.40 209.96-15.80L209.96-15.80L209.92-15.80Q209.72-15.80 209.64-16Q209.56-16.20 209.72-16.24L209.72-16.24L215.56-19.08Q215.60-19.12 215.68-19.12L215.68-19.12Q215.76-19.12 215.84-19.02Q215.92-18.92 215.92-18.80L215.92-18.80L215.92-3.24Q215.92-2 216.20-1.44Q216.48-0.88 217.32-0.68Q218.16-0.48 219.96-0.48L219.96-0.48Q220.04-0.48 220.04-0.24Q220.04 0 219.96 0L219.96 0Q218.64 0 217.92-0.04L217.92-0.04L214.96-0.08L212.04-0.04Q211.28 0 209.96 0L209.96 0Z M238.76-1.72Q238.84-1.72 238.90-1.46Q238.96-1.20 238.96-0.88L238.96-0.88Q238.96-0.56 238.90-0.30Q238.84-0.04 238.76-0.04L238.76-0.04Q237.56-0.12 235.32-0.20L235.32-0.20L235.32 5.04Q235.32 5.48 235 5.60L235 5.60L233.64 6.28Q233.48 6.36 233.40 6.36L233.40 6.36Q233.24 6.36 233.24 6.04L233.24 6.04L233.24-0.24Q230.36-0.32 222.48-0.32L222.48-0.32Q222.28-0.32 222.18-0.48Q222.08-0.64 222.20-0.80L222.20-0.80L234.60-19.20Q234.68-19.28 234.88-19.28L234.88-19.28Q235.32-19.28 235.32-19L235.32-19L235.32-1.64Q236.36-1.64 238.76-1.72L238.76-1.72ZM224.32-1.48Q228.12-1.48 233.24-1.56L233.24-1.56L233.24-15.64L224.12-1.76Q224.04-1.64 224.10-1.56Q224.16-1.48 224.32-1.48L224.32-1.48Z"/></g>
</svg>
</g></svg></svg>